<svg width="533" height="279" viewBox="0 0 533 279" fill="none" xmlns="http://www.w3.org/2000/svg">
<path d="M102.135 71.1892C102.45 74.8867 102.254 78.3338 101.547 81.5305C100.839 84.7272 99.8292 87.8191 98.5159 90.8061C97.2674 93.7876 95.8865 96.7478 94.3731 99.6866C92.8596 102.625 91.4573 105.718 90.1662 108.965C89.7769 108.998 89.4933 109.12 89.3153 109.331C89.2022 109.537 89.0946 109.807 88.9926 110.143C88.9498 110.408 88.8422 110.678 88.6698 110.954C88.5566 111.16 88.3055 111.28 87.9162 111.313C87.4542 112.79 86.8245 114.216 86.027 115.59C85.224 116.9 84.3561 118.216 83.4234 119.537C82.55 120.788 81.6794 122.071 80.8115 123.386C80.0085 124.696 79.3111 126.095 78.7194 127.583L77.7463 127.666C74.6752 133.025 71.1057 137.903 67.0378 142.302C63.0348 146.694 58.5741 150.701 53.6559 154.323C53.5593 154.723 53.3924 155.064 53.1551 155.346C52.9177 155.627 52.8833 155.989 53.0518 156.432C52.3715 156.883 51.7967 157.422 51.3276 158.05C50.9289 158.737 50.5301 159.425 50.1314 160.112C49.7327 160.799 49.2987 161.457 48.8296 162.085C48.4309 162.773 47.8561 163.312 47.1054 163.703C46.1158 163.591 45.1613 163.509 44.2421 163.457C43.3878 163.399 42.5037 163.377 41.59 163.389C41.2008 163.422 40.8116 163.456 40.4224 163.489C40.0387 163.587 39.6819 163.617 39.3521 163.58C38.6274 163.511 37.9863 163.272 37.4286 162.862C36.9413 162.512 36.2436 162.375 35.3354 162.453C34.8813 162.491 34.5273 162.554 34.2734 162.641C33.677 161.777 32.9804 160.889 32.1839 159.977C31.4577 159.124 31.0476 158.147 30.9535 157.044C30.8815 156.201 30.9124 155.414 31.0461 154.684C31.2447 153.948 31.3108 153.191 31.2444 152.413C31.1115 150.856 30.6895 149.356 29.9784 147.914C29.3322 146.466 28.9426 144.964 28.8098 143.407C28.7655 142.888 28.7888 142.396 28.8798 141.931C28.9653 141.401 28.9859 140.877 28.9416 140.358C28.8918 139.774 28.588 139.277 28.0303 138.867C28.0675 138.537 28.1696 138.202 28.3365 137.861C28.5035 137.52 28.5703 137.155 28.5371 136.766C28.6226 136.236 28.6079 135.682 28.4933 135.103C28.373 134.46 28.2908 133.879 28.2465 133.36C28.1303 131.998 28.0789 130.63 28.0924 129.257C28.1059 127.884 28.2844 126.529 28.6277 125.193C28.5297 124.809 28.4019 124.461 28.2445 124.147L27.7723 123.207C28.1101 121.806 28.2719 120.257 28.2578 118.56C28.2436 116.862 28.1645 115.17 28.0206 113.483L27.5806 108.326C27.4367 106.64 27.3984 105.042 27.4657 103.533C27.5401 102.874 27.6172 102.246 27.6971 101.651C27.8364 100.986 27.8811 100.362 27.8313 99.7778C27.787 99.2588 27.651 98.8131 27.4232 98.4405C27.1898 98.003 26.8944 97.6035 26.5368 97.2419C26.9798 97.0735 27.2171 96.7918 27.2488 96.3971C27.2749 95.9375 27.2741 95.5455 27.2465 95.2212C27.169 94.313 26.921 93.3214 26.5026 92.2463C26.668 91.1214 26.736 90.0048 26.7068 88.8965C26.672 87.7233 26.6076 86.5854 26.5135 85.4826C26.1814 81.5905 25.5954 77.7854 24.7554 74.0673C23.9803 70.3437 23.3646 66.5738 22.9083 62.7576L22.6164 62.7825C22.1623 62.8213 21.8138 62.949 21.5709 63.1658C21.3281 63.3825 21.088 63.6317 20.8506 63.9133C20.6078 64.13 20.3325 64.3496 20.0247 64.5718C19.7115 64.7292 19.325 64.7949 18.8654 64.7688C18.1645 65.7433 17.3227 66.5993 16.3402 67.3365C15.4225 68.0682 14.4344 68.7406 13.3759 69.3536C12.3175 69.9667 11.2238 70.5501 10.0949 71.1038C8.96046 71.5926 7.89091 72.0759 6.88623 72.5537C5.95039 72.3068 5.12769 71.8543 4.41812 71.1961C3.70302 70.473 3.02035 69.7472 2.37011 69.0186C2.2831 68.7647 2.22853 68.5079 2.20639 68.2485L2.13996 67.4701C1.98498 65.6537 2.29039 64.2555 3.05619 63.2754C3.81646 62.2304 4.62775 61.0177 5.49008 59.6373L5.97659 59.5958C6.30093 59.5682 6.59837 59.6081 6.86892 59.7157C7.07459 59.8288 7.3396 59.8716 7.66394 59.8439L7.95585 59.819C9.7042 58.1016 11.5775 56.7003 13.5758 55.615C15.6335 54.4593 17.7753 53.5252 20.0014 52.8125C20.8914 51.7564 21.8008 50.9274 22.7296 50.3255C23.7232 49.7179 24.9011 49.3561 26.2633 49.2398C26.5877 49.2122 26.9472 49.2141 27.342 49.2458C27.7961 49.2071 28.188 49.2063 28.5179 49.2435C31.0723 47.784 33.4812 46.533 35.7445 45.4905C38.0672 44.3775 40.7853 43.6882 43.899 43.4225C44.2882 43.3893 44.5394 43.2699 44.6525 43.0642C44.8305 42.853 44.9761 42.6446 45.0892 42.4389C45.1968 42.1683 45.3072 41.9302 45.4203 41.7246C45.5335 41.5189 45.7522 41.4022 46.0765 41.3745C46.0876 41.5043 46.1366 41.6961 46.2237 41.95C46.3107 42.204 46.4839 42.3199 46.7434 42.2977C47.0029 42.2756 47.2244 42.1914 47.4079 42.045C47.6508 41.8283 47.9344 41.7061 48.2587 41.6784C48.583 41.6507 48.8295 41.8584 48.9979 42.3014C49.6728 41.7864 50.3179 41.3067 50.9334 40.8621C51.5488 40.4175 52.2375 40.0647 52.9993 39.8037C53.9889 39.9153 54.9758 39.9944 55.9599 40.0411C57.0089 40.0823 58.0523 40.0586 59.0902 39.9701C59.8686 39.9037 60.6443 39.8048 61.4171 39.6735C62.1845 39.4774 62.8379 39.0949 63.3775 38.5261C63.6314 38.4391 63.7722 38.5578 63.7999 38.8821C64.428 39.3513 65.0747 39.6555 65.74 39.7947C66.3997 39.8691 67.0892 39.9083 67.8082 39.9123C68.5218 39.8514 69.2381 39.8229 69.9572 39.8269C70.6763 39.8309 71.3443 40.0026 71.9614 40.342C72.4914 40.4274 72.9324 40.6185 73.2844 40.9152C73.6309 41.147 74.0719 41.338 74.6075 41.4883C75.0078 41.5849 75.535 41.6379 76.1892 41.6474C76.9083 41.6514 77.4383 41.7369 77.7793 41.9038C78.1147 42.0058 78.2962 42.219 78.3239 42.5434C78.4109 42.7973 78.6249 43.0078 78.9658 43.1747C79.5884 43.579 80.3917 43.8044 81.3758 43.8512C82.3544 43.833 83.2226 44.0529 83.9804 44.511C84.3617 45.916 85.1555 46.7957 86.3619 47.1501C87.5682 47.5046 88.7422 47.8618 89.8837 48.2218C90.3061 48.5778 90.4746 49.0208 90.3891 49.5508C91.2174 50.0682 91.9538 50.6588 92.5985 51.3225C93.3081 51.9807 93.9584 52.7093 94.5493 53.5083C95.1995 54.2369 95.8173 54.9683 96.4027 55.7024C96.988 56.4366 97.6652 57.0976 98.4341 57.6854C98.419 58.2747 98.5226 58.7232 98.7449 59.031C99.0321 59.3332 99.1384 59.8142 99.0641 60.4739C99.9034 61.1211 100.697 62.0008 101.445 63.113C101.106 63.7301 100.967 64.3954 101.028 65.1089C101.083 65.7576 101.236 66.398 101.486 67.0301C101.736 67.6621 101.888 68.3025 101.944 68.9512L102.135 71.1892ZM92.9028 69.8206C92.7423 67.9395 92.2305 66.1536 91.3675 64.463C90.499 62.7076 89.7305 60.9763 89.0621 59.2691C88.2188 59.3411 87.6426 59.0962 87.3333 58.5345C87.0833 57.9025 86.6471 57.3843 86.0245 56.98C84.7698 56.8257 83.9112 55.9515 83.4485 54.3575C82.1068 53.9493 80.7272 53.4789 79.3096 52.9465C77.892 52.414 76.6793 51.6027 75.6715 50.5126C73.2754 49.9983 70.8468 49.4868 68.3858 48.978C65.9841 48.3989 63.5507 48.2144 61.0857 48.4248C60.6317 48.4635 60.2128 48.5319 59.8291 48.63C59.5048 48.6577 59.1804 48.6854 58.8561 48.713C58.3371 48.7573 57.7941 48.9017 57.2269 49.1461C56.6596 49.3905 56.1166 49.5349 55.5976 49.5791C55.0138 49.629 54.4134 49.4842 53.7964 49.1448C52.5599 49.969 51.1798 50.6422 49.6562 51.1642C48.1974 51.6807 46.7034 52.1676 45.1743 52.6248C43.6396 53.0171 42.1456 53.5039 40.6924 54.0853C39.2336 54.6018 37.9564 55.3316 36.8607 56.2745C36.4604 56.178 36.0629 56.1139 35.6682 56.0822C35.3383 56.045 35.0112 56.0403 34.6869 56.0679C34.103 56.1177 33.66 56.2862 33.3578 56.5734C33.1743 56.7197 33.0584 56.893 33.0101 57.0931C33.0267 57.2877 33.0137 57.5175 32.9709 57.7825C32.9875 57.9771 32.9365 58.1448 32.8178 58.2856C32.6992 58.4265 32.4425 58.481 32.0477 58.4494C32.0754 58.7737 32.0679 59.0684 32.0252 59.3334C32.0473 59.5929 32.0722 59.8848 32.0999 60.2091C32.2438 61.8957 32.5499 63.5684 33.0181 65.2273C33.5457 66.8158 33.8815 68.4534 34.0254 70.14C34.0752 70.7238 34.0953 71.3428 34.0858 71.997C34.0708 72.5864 33.9908 73.1813 33.8461 73.7817C34.2368 74.5324 34.4709 75.3619 34.5484 76.27C34.6908 77.1727 34.8007 78.078 34.8782 78.9862C34.9557 79.8944 35.0656 80.7998 35.208 81.7024C35.3448 82.5401 35.641 83.3316 36.0967 84.0768C35.9851 85.0665 35.9384 86.0506 35.9565 87.0291C35.9747 88.0077 36.0253 88.9835 36.1083 89.9565C36.302 92.2269 36.5903 94.4566 36.9731 96.6455C37.4208 98.8289 37.7415 101.056 37.9352 103.326C37.985 103.91 38.0051 104.529 37.9956 105.183C38.051 105.832 38.0739 106.483 38.0644 107.138C38.0066 107.992 37.8487 108.822 37.5908 109.628C37.3329 110.434 37.2427 111.291 37.3202 112.2C37.37 112.783 37.455 113.397 37.5752 114.04C37.6899 114.618 37.7749 115.232 37.8303 115.881C37.8524 116.14 37.8421 116.402 37.7994 116.667C37.816 116.862 37.8354 117.089 37.8575 117.348C37.7269 119.646 37.6639 121.971 37.6686 124.323C37.6732 126.675 37.7724 128.986 37.9662 131.257C38.1488 133.397 38.3963 135.532 38.7087 137.662C39.0156 139.727 39.3901 141.818 39.8322 143.937C39.6115 144.413 39.526 144.943 39.5758 145.527C39.6533 146.435 39.9579 147.324 40.4894 148.193C41.0265 149.128 41.763 149.718 42.6988 149.965C44.7082 149.009 46.5333 147.808 48.174 146.361C49.8852 144.974 51.5935 143.554 53.2992 142.102C53.7256 141.739 54.3707 141.259 55.2346 140.662C56.0929 140.001 56.6732 139.527 56.9754 139.24C57.2776 138.953 57.5149 138.671 57.6874 138.395C57.9192 138.048 58.1834 137.699 58.4801 137.347L62.3712 132.409C64.6203 129.668 66.8343 126.899 69.013 124.099C71.2566 121.294 73.2918 118.343 75.1185 115.247C75.6248 114.289 76.1339 113.364 76.6457 112.47C77.1521 111.513 77.6232 110.525 78.0591 109.508C78.2909 109.161 78.4551 108.788 78.5516 108.387C78.6426 107.922 78.8364 107.514 79.1331 107.162C79.3056 106.886 79.5105 106.607 79.7478 106.325C80.05 106.038 80.2873 105.756 80.4598 105.48C80.9289 104.852 81.3656 104.227 81.7699 103.604C82.2335 102.911 82.6943 102.186 83.1524 101.428C84.4024 99.2305 85.555 97.0413 86.6104 94.8603C87.6603 92.6145 88.8426 90.39 90.1575 88.187C90.1765 86.8785 90.3336 85.6563 90.6287 84.5203C90.9183 83.3195 91.2134 82.1835 91.514 81.1124C91.8091 79.9764 92.0366 78.8136 92.1965 77.6238C92.3563 76.434 92.3105 75.1311 92.059 73.7151C92.3446 73.2333 92.5764 72.8868 92.7544 72.6756C92.9972 72.4589 93.0938 72.0586 93.0439 71.4748L92.9028 69.8206ZM165.494 77.4462C165.154 78.0633 164.983 78.7313 164.979 79.4504C164.975 80.1695 164.997 80.8209 165.047 81.4048C165.114 82.1832 165.18 82.9616 165.247 83.74C165.372 84.448 165.466 85.1588 165.527 85.8724L165.651 87.3319C165.56 87.7971 165.404 88.2677 165.183 88.744C164.963 89.2202 164.807 89.6909 164.716 90.156C164.013 92.6336 163.763 95.0725 163.968 97.4727L163.985 97.6673C163.727 98.4734 163.463 99.2146 163.194 99.8909C162.99 100.562 162.786 101.233 162.582 101.903C162.372 102.509 162.233 103.175 162.164 103.899C162.09 104.559 162.124 105.34 162.266 106.243C161.552 108.591 160.529 110.769 159.197 112.777C157.86 114.721 156.561 116.727 155.3 118.795C153.982 119.43 152.775 120.219 151.68 121.162C150.649 122.099 149.659 123.131 148.71 124.258C146.754 125.078 144.839 125.993 142.965 127.002C141.091 128.011 139.436 129.296 138.001 130.856C136.78 131.091 135.564 131.391 134.354 131.755C133.143 132.12 131.976 132.611 130.853 133.23L129.685 133.33C129.102 133.379 128.669 133.286 128.387 133.048C127.583 133.574 126.735 133.973 125.843 134.246C124.946 134.453 124.043 134.595 123.135 134.673C121.968 134.772 120.794 134.807 119.616 134.777C118.496 134.676 117.345 134.579 116.16 134.484C115.434 133.631 114.468 133.027 113.262 132.673C112.05 132.253 110.97 131.856 110.023 131.479C107.921 129.045 106.345 126.664 105.297 124.335C104.244 121.942 103.133 119.26 101.964 116.289C102.017 115.37 102.169 114.474 102.421 113.604C102.668 112.668 102.715 111.684 102.561 110.651C103.441 107.178 104.706 104 106.354 101.115C108.062 98.1591 110.041 95.3114 112.29 92.5711C112.257 92.1819 112.294 91.8521 112.402 91.5815C112.574 91.3054 112.573 90.9135 112.399 90.4056C112.47 90.4649 112.602 90.4863 112.797 90.4697C113.316 90.4254 113.629 90.268 113.737 89.9974C113.839 89.662 113.841 89.3025 113.743 88.9188C115.951 87.2276 117.912 85.3287 119.627 83.2221C121.407 81.11 123.474 79.3001 125.829 77.7924C125.973 77.192 126.256 76.6778 126.677 76.2498C127.098 75.8219 127.416 75.3373 127.631 74.7963C129.657 74.0353 131.464 72.9991 133.051 71.6875C134.638 70.376 136.333 69.1859 138.137 68.1172C139.125 67.4448 140.064 66.9726 140.956 66.7005C141.907 66.358 142.923 66.01 144.003 65.6564C144.381 65.4934 144.73 65.3657 145.049 65.2732C145.368 65.1806 145.722 65.1177 146.111 65.0845C147.278 64.9849 148.433 65.1151 149.574 65.4751C150.71 65.7702 151.862 65.8679 153.03 65.7683C153.354 65.7406 153.614 65.7185 153.808 65.7019C154.062 65.6149 154.316 65.5278 154.57 65.4408C155.789 66.709 157.272 67.6279 159.02 68.1975C159.492 69.1373 160.018 69.9419 160.598 70.6111C161.243 71.2749 161.887 71.9386 162.532 72.6024C163.171 73.2012 163.754 73.9029 164.28 74.7075C164.865 75.4416 165.27 76.3545 165.494 77.4462ZM156.195 83.3362C156.167 83.0119 156.11 82.7227 156.023 82.4688C155.358 82.3295 154.719 82.1227 154.108 81.8481C153.496 81.5736 152.834 81.4668 152.12 81.5277C151.666 81.5664 151.22 81.7025 150.783 81.9358C150.679 81.4873 150.457 81.1795 150.116 81.0126C149.84 80.8401 149.502 80.7056 149.102 80.6091C148.761 80.4422 148.393 80.3429 147.998 80.3112C147.663 80.2092 147.354 80.0395 147.073 79.8021C146.834 79.2998 146.562 78.8002 146.259 78.3034C146.014 77.7362 145.589 77.3478 144.983 77.1381C144.449 77.7717 143.809 78.3164 143.064 78.772C142.313 79.1628 141.53 79.5563 140.715 79.9526C139.964 80.3434 139.219 80.799 138.479 81.3195C137.804 81.8345 137.235 82.4384 136.771 83.1314L135.02 83.2808C134.692 84.0276 134.187 84.626 133.507 85.0761C132.821 85.4613 132.246 86.0004 131.783 86.6934C130.789 87.3009 129.871 88.0326 129.03 88.8885C128.247 89.674 127.47 90.5244 126.699 91.4397C125.922 92.29 125.148 93.1729 124.377 94.0881C123.67 94.9978 122.893 95.8482 122.046 96.6392C121.358 98.5275 120.553 100.197 119.631 101.648C118.769 103.028 117.942 104.438 117.15 105.878C116.423 107.312 115.804 108.868 115.294 110.545C114.843 112.152 114.717 114.123 114.916 116.458L114.999 117.431C115.027 117.755 115.087 118.077 115.18 118.396C116.1 119.232 116.865 120.147 117.472 121.14C118.144 122.128 119.149 122.794 120.485 123.137C121.826 123.546 123.208 123.657 124.63 123.47C126.116 123.278 127.557 123.318 128.952 123.591C132.016 122.742 134.92 121.546 137.664 120.005C140.466 118.394 143.085 116.537 145.519 114.435C145.881 114.077 146.307 113.714 146.798 113.345C147.284 112.912 147.673 112.487 147.964 112.07C148.26 111.718 148.489 111.339 148.651 110.933C148.877 110.522 149.106 110.143 149.338 109.796C149.785 108.909 150.297 108.016 150.873 107.117C151.45 106.218 152.065 105.382 152.718 104.607C152.92 103.153 153.225 101.754 153.634 100.413C154.036 99.0062 154.442 97.6321 154.85 96.2904C155.258 94.9488 155.567 93.583 155.775 92.1931C156.048 90.7976 156.121 89.3539 155.993 87.862C155.966 87.5376 155.903 87.1836 155.805 86.7999C155.771 86.4107 155.708 86.0567 155.616 85.7379C156.074 84.9801 156.267 84.1795 156.195 83.3362ZM233.8 71.6178C233.461 72.2348 233.289 72.9029 233.285 73.622C233.281 74.3411 233.304 74.9925 233.354 75.5763C233.42 76.3548 233.487 77.1332 233.553 77.9116C233.679 78.6196 233.772 79.3304 233.833 80.044L233.958 81.5035C233.867 81.9687 233.711 82.4393 233.49 82.9156C233.269 83.3918 233.113 83.8625 233.022 84.3276C232.319 86.8052 232.07 89.2441 232.275 91.6442L232.291 91.8388C232.033 92.6449 231.77 93.3862 231.501 94.0625C231.297 94.7334 231.093 95.4042 230.888 96.075C230.679 96.681 230.539 97.3463 230.471 98.0709C230.396 98.7306 230.43 99.5118 230.573 100.414C229.858 102.762 228.835 104.941 227.504 106.949C226.167 108.893 224.868 110.898 223.607 112.966C222.289 113.601 221.082 114.39 219.986 115.333C218.955 116.271 217.965 117.303 217.016 118.429C215.06 119.249 213.146 120.164 211.272 121.174C209.397 122.183 207.743 123.468 206.308 125.027C205.086 125.262 203.87 125.562 202.66 125.927C201.45 126.291 200.283 126.783 199.16 127.402L197.992 127.501C197.408 127.551 196.975 127.457 196.694 127.22C195.889 127.746 195.041 128.145 194.15 128.417C193.253 128.624 192.35 128.767 191.442 128.844C190.274 128.944 189.101 128.979 187.922 128.949C186.803 128.848 185.651 128.75 184.467 128.655C183.741 127.802 182.774 127.199 181.568 126.844C180.356 126.425 179.277 126.027 178.33 125.651C176.227 123.216 174.652 120.835 173.604 118.507C172.55 116.114 171.439 113.432 170.271 110.46C170.323 109.541 170.475 108.646 170.728 107.775C170.975 106.839 171.021 105.855 170.868 104.823C171.748 101.35 173.012 98.1711 174.661 95.2861C176.369 92.3307 178.347 89.4829 180.596 86.7427C180.563 86.3535 180.6 86.0237 180.708 85.7531C180.881 85.477 180.88 85.085 180.706 84.5772C180.776 84.6365 180.909 84.6579 181.103 84.6413C181.622 84.597 181.935 84.4396 182.043 84.169C182.145 83.8336 182.147 83.4741 182.049 83.0904C184.257 81.3992 186.219 79.5003 187.934 77.3937C189.714 75.2816 191.781 73.4717 194.135 71.964C194.28 71.3636 194.563 70.8494 194.984 70.4214C195.404 69.9935 195.723 69.5089 195.938 68.9678C197.964 68.2069 199.77 67.1707 201.357 65.8591C202.944 64.5476 204.639 63.3575 206.443 62.2888C207.431 61.6164 208.371 61.1442 209.263 60.8721C210.213 60.5296 211.229 60.1816 212.31 59.828C212.688 59.665 213.036 59.5373 213.355 59.4447C213.674 59.3522 214.028 59.2893 214.417 59.2561C215.585 59.1565 216.739 59.2867 217.881 59.6466C219.017 59.9418 220.169 60.0395 221.336 59.9399C221.661 59.9122 221.92 59.8901 222.115 59.8734C222.369 59.7864 222.623 59.6994 222.877 59.6124C224.096 60.8806 225.579 61.7995 227.326 62.3691C227.799 63.3089 228.325 64.1135 228.904 64.7827C229.549 65.4465 230.194 66.1102 230.838 66.7739C231.478 67.3728 232.06 68.0745 232.586 68.8791C233.172 69.6132 233.576 70.5261 233.8 71.6178ZM224.502 77.5078C224.474 77.1835 224.417 76.8943 224.33 76.6404C223.664 76.5011 223.026 76.2942 222.414 76.0197C221.803 75.7452 221.14 75.6384 220.427 75.6993C219.973 75.738 219.527 75.8741 219.089 76.1074C218.986 75.6589 218.764 75.3511 218.423 75.1842C218.147 75.0117 217.808 74.8772 217.408 74.7807C217.067 74.6138 216.699 74.5145 216.305 74.4828C215.969 74.3808 215.661 74.2111 215.379 73.9737C215.14 73.4714 214.869 72.9718 214.565 72.475C214.321 71.9078 213.895 71.5194 213.289 71.3097C212.755 71.9433 212.116 72.488 211.371 72.9436C210.62 73.3344 209.837 73.7279 209.021 74.1242C208.27 74.5149 207.525 74.9706 206.785 75.4911C206.111 76.006 205.541 76.61 205.078 77.303L203.326 77.4524C202.998 78.1992 202.494 78.7976 201.813 79.2477C201.128 79.6329 200.553 80.172 200.089 80.865C199.096 81.4725 198.178 82.2042 197.336 83.0601C196.554 83.8456 195.777 84.696 195.006 85.6113C194.229 86.4616 193.455 87.3444 192.683 88.2597C191.977 89.1694 191.2 90.0198 190.353 90.8108C189.664 92.6991 188.859 94.3686 187.938 95.8194C187.075 97.1998 186.248 98.6099 185.456 100.05C184.729 101.484 184.111 103.039 183.6 104.716C183.149 106.323 183.023 108.294 183.223 110.629L183.306 111.602C183.333 111.927 183.394 112.248 183.486 112.567C184.407 113.403 185.171 114.318 185.779 115.312C186.451 116.3 187.455 116.966 188.791 117.309C190.133 117.717 191.515 117.828 192.936 117.641C194.423 117.449 195.863 117.49 197.259 117.763C200.323 116.913 203.226 115.718 205.97 114.177C208.773 112.566 211.391 110.709 213.826 108.606C214.187 108.249 214.614 107.886 215.105 107.517C215.591 107.083 215.979 106.658 216.27 106.241C216.567 105.889 216.796 105.51 216.957 105.105C217.183 104.693 217.413 104.314 217.644 103.968C218.091 103.08 218.603 102.187 219.18 101.289C219.757 100.39 220.371 99.5534 221.024 98.7789C221.227 97.3241 221.532 95.9259 221.94 94.5843C222.343 93.1778 222.748 91.8037 223.157 90.462C223.565 89.1204 223.873 87.7546 224.081 86.3647C224.354 84.9692 224.427 83.5255 224.3 82.0336C224.272 81.7092 224.209 81.3552 224.111 80.9715C224.078 80.5823 224.015 80.2283 223.922 79.9095C224.38 79.1517 224.574 78.3511 224.502 77.5078ZM306.615 73.8336C306.671 74.4823 306.48 74.9233 306.042 75.1567C305.605 75.39 305.411 75.7986 305.461 76.3824C305.477 76.577 305.556 76.7337 305.697 76.8523C305.838 76.971 305.919 77.1601 305.941 77.4196L305.974 77.8088C305.517 81.6376 304.661 85.0103 303.407 87.9269C302.218 90.838 300.75 93.5443 299.004 96.0456C297.257 98.5469 295.239 100.941 292.952 103.227C290.729 105.507 288.319 107.902 285.724 110.41C285.001 111.125 284.245 111.843 283.457 112.564C282.734 113.279 282.046 114.024 281.394 114.798L279.427 117.024C279.368 117.095 279.025 117.287 278.398 117.602C277.766 117.852 277.388 118.015 277.264 118.091C276.389 118.558 275.455 119.095 274.461 119.702C273.532 120.304 272.744 121.025 272.097 121.864C270.8 121.975 269.714 122.263 268.839 122.73C267.964 123.197 267.003 123.802 265.955 124.544C265.631 124.572 265.334 124.532 265.063 124.425C264.857 124.311 264.619 124.201 264.349 124.093C264.078 123.986 263.781 123.946 263.456 123.974C263.191 123.931 262.837 123.994 262.394 124.162C261.505 122.931 260.568 121.9 259.582 121.07C258.597 120.239 257.317 119.793 255.744 119.731C255.455 118.645 254.929 117.84 254.165 117.317C253.396 116.73 252.625 116.109 251.85 115.457C251.687 115.079 251.551 114.633 251.442 114.119C251.333 113.606 251.162 113.131 250.928 112.693C250.695 112.256 250.402 111.889 250.05 111.592C249.698 111.295 249.231 111.172 248.647 111.222C248.549 110.838 248.694 110.63 249.083 110.596C249.473 110.563 249.653 110.384 249.626 110.06C249.592 109.671 249.494 109.287 249.331 108.909C249.169 108.531 249.068 108.115 249.029 107.661C249.001 107.336 249.009 107.042 249.051 106.777C249.094 106.512 249.167 106.211 249.269 105.876C248.925 104.141 248.675 102.366 248.52 100.549C248.221 97.0463 248.155 93.5889 248.321 90.177C248.547 86.6947 248.51 83.2021 248.211 79.6992C248.078 78.1424 247.848 76.5938 247.521 75.0536C247.258 73.5078 246.836 72.0083 246.255 70.5551C244.791 71.0067 243.332 71.5233 241.879 72.1046C240.42 72.6212 239.072 73.2915 237.836 74.1158C237.083 73.7226 236.315 73.5268 235.531 73.5283C234.677 73.4705 233.849 73.3451 233.049 73.1521C232.517 72.2827 232.21 71.3614 232.127 70.3884C232.05 69.4803 232.137 68.5907 232.389 67.7197L233.147 65.1068C234.676 64.6497 236.191 64.0303 237.693 63.2488C239.129 62.4728 240.604 61.7589 242.116 61.1071C242.624 60.9331 243.259 60.7156 244.021 60.4545C244.848 60.188 245.418 59.976 245.731 59.8186C246.168 59.5852 246.43 59.2035 246.515 58.6735C246.66 58.0731 246.878 57.5645 247.169 57.1476L248.823 57.0064C249.212 56.9732 249.637 56.9697 250.096 56.9958C250.551 56.957 250.98 57.0184 251.386 57.1798C253.672 56.3967 255.977 55.8407 258.301 55.5117C260.619 55.1178 262.997 54.6535 265.435 54.1188C265.694 54.0967 266.081 54.0311 266.594 53.9219L268.223 53.4889C268.796 53.3093 269.307 53.1677 269.755 53.0641C270.263 52.8901 270.614 52.7948 270.809 52.7782C271.004 52.7616 271.109 52.8506 271.126 53.0452L272.78 52.904C275.569 52.666 278.324 52.7903 281.045 53.2769L289.206 54.7368C290.386 55.5509 291.564 56.3325 292.739 57.0817C293.913 57.8309 295.209 58.4717 296.627 59.0041C297.04 60.0144 297.598 60.8161 298.302 61.4095C299.066 61.9324 299.9 62.5147 300.804 63.1563C301.2 63.9719 301.699 64.8441 302.301 65.7728C302.962 66.6311 303.594 67.5247 304.196 68.4534C304.798 69.3822 305.335 70.3165 305.807 71.2563C306.274 72.1312 306.543 72.9903 306.615 73.8336ZM297.691 76.0653C296.85 74.6342 296.036 73.1355 295.249 71.5691C294.462 70.0028 293.526 68.6124 292.443 67.3981C291.247 67.1734 290.014 66.8866 288.743 66.5376C287.531 66.1183 286.645 65.3118 286.086 64.118C285.962 64.194 285.738 64.2458 285.413 64.2735C284.83 64.3233 284.291 64.1405 283.798 63.7252C283.306 63.3098 282.762 63.0622 282.167 62.9823C281.642 62.9617 280.92 62.9253 280.001 62.873C279.147 62.8153 278.23 62.7955 277.252 62.8136C276.273 62.8318 275.295 62.8499 274.316 62.8681C273.402 62.8807 272.686 62.9092 272.167 62.9534C271.648 62.9977 271.1 63.0772 270.521 63.1919C270.002 63.2362 269.454 63.3156 268.876 63.4303C268.357 63.4746 268.041 63.5996 267.927 63.8053C267.809 63.9461 267.56 64.098 267.182 64.2609C266.847 64.1588 266.484 64.1244 266.095 64.1576L264.928 64.2573C263.565 64.3735 262.223 64.7168 260.899 65.2871C259.635 65.787 258.385 66.4491 257.148 67.2733L257.181 67.6625C257.226 68.1815 257.478 68.454 257.937 68.4801C258.397 68.5063 258.678 68.7436 258.782 69.1921C258.458 69.2198 258.201 69.2744 258.012 69.3559C257.817 69.3725 257.739 69.6078 257.778 70.0619C257.833 70.7106 257.959 71.4186 258.155 72.1859C258.416 72.9478 258.58 73.7179 258.647 74.4963C258.696 75.0801 258.69 75.7668 258.626 76.5563C258.563 77.3458 258.291 77.9897 257.811 78.488C258.509 79.0165 258.9 79.7673 258.983 80.7403C259.039 81.389 258.967 82.0812 258.768 82.8168C258.57 83.5525 258.298 84.1965 257.953 84.7486C258.056 87.4842 258.032 90.2632 257.88 93.0858C257.729 95.9083 257.77 98.6818 258.002 101.406C258.119 102.769 258.297 104.093 258.537 105.379C258.843 106.66 259.245 107.932 259.745 109.197C260.52 109.849 261.313 110.337 262.124 110.66C263.001 110.977 263.91 111.291 264.851 111.603L264.876 111.895C264.893 112.09 264.779 112.295 264.537 112.512C264.294 112.729 264.186 112.999 264.214 113.324C264.236 113.583 264.377 113.702 264.636 113.68C267.294 112.669 269.776 111.51 272.082 110.202C274.388 108.894 276.499 107.212 278.414 105.153C278.592 104.942 278.779 104.828 278.973 104.812C279.103 104.8 279.268 104.819 279.468 104.867C279.733 104.91 279.966 104.956 280.166 105.004L280.035 104.623C280.002 104.234 280.069 103.869 280.236 103.528C280.468 103.181 280.735 102.864 281.037 102.577L281.935 101.618C282.232 101.266 282.464 100.92 282.631 100.579C283.138 100.405 283.473 100.115 283.634 99.7092C283.861 99.2979 284.266 99.0673 284.85 99.0175C284.918 98.2929 285.231 97.7435 285.787 97.3693C286.338 96.9303 286.647 96.3485 286.716 95.6239C287.953 94.7996 289.013 93.827 289.898 92.7061C290.847 91.5796 291.693 90.3966 292.437 89.157C293.246 87.9119 293.987 86.6399 294.66 85.341C295.328 83.9772 296.033 82.6755 296.777 81.4359L296.744 81.0467C296.655 80.0088 296.745 79.1517 297.014 78.4753C297.348 77.7934 297.574 76.9901 297.691 76.0653ZM365.886 91.9068C365.947 92.6204 365.735 93.1939 365.249 93.6274C364.758 93.996 364.537 94.4723 364.587 95.0561C364.609 95.3155 364.766 95.6288 365.059 95.9959C364.151 96.0734 363.559 96.4179 363.285 97.0294C363.01 97.6409 362.741 98.3172 362.478 99.0584L361.213 99.1664C360.889 99.194 360.635 99.2811 360.451 99.4274C360.268 99.5737 360.09 99.785 359.917 100.061C359.804 100.267 359.637 100.608 359.416 101.084C358.206 101.449 357.042 101.973 355.924 102.656C354.866 103.269 353.813 103.947 352.765 104.69C351.777 105.362 350.759 106.07 349.712 106.812C348.659 107.49 347.565 108.074 346.431 108.563C345.93 109.585 345.153 110.436 344.1 111.114L343.808 111.139C343.49 111.231 343.195 111.224 342.924 111.116C342.713 110.938 342.445 110.863 342.121 110.891C341.926 110.907 341.799 110.951 341.74 111.021C339.905 112.485 337.787 113.319 335.387 113.523C334.738 113.579 334.119 113.599 333.53 113.584C332.935 113.504 332.313 113.492 331.664 113.547C331.47 113.564 331.346 113.64 331.292 113.775L331.13 114.181C331.077 114.316 330.99 114.454 330.872 114.595C330.818 114.73 330.596 114.814 330.207 114.847C329.494 114.908 328.772 114.872 328.042 114.738C327.312 114.605 326.563 114.636 325.795 114.832C324.232 114.116 322.995 113.405 322.085 112.698C321.175 111.992 320.297 110.891 319.451 109.395C319.066 108.709 318.553 108.066 317.914 107.467C317.34 106.863 316.89 106.183 316.564 105.426C316.477 105.172 316.341 104.727 316.156 104.089C315.965 103.387 315.772 102.652 315.576 101.884C315.379 101.117 315.186 100.382 314.995 99.6796C314.87 98.9716 314.796 98.4878 314.774 98.2284C314.707 97.4499 314.676 96.7012 314.68 95.9821C314.743 95.1926 314.807 94.4031 314.87 93.6136C315.049 91.1154 315.098 88.6283 315.017 86.1522C314.996 83.6057 315.34 81.1261 316.049 78.7134C315.858 78.0109 315.735 77.3353 315.68 76.6866L315.497 74.5459C315.392 73.3134 315.141 72.2894 314.745 71.4738C315.192 70.5862 315.371 69.6235 315.283 68.5856C315.183 67.4179 314.638 66.7783 313.649 66.6668L313.624 66.3748C313.508 65.0126 312.962 63.981 311.988 63.2801C311.794 61.0097 312.201 59.2761 313.21 58.0792C314.278 56.8119 315.717 55.6764 317.526 54.6726C317.752 54.2613 317.822 53.9286 317.735 53.6747C318.2 53.7657 318.633 53.8594 319.033 53.9559C319.433 54.0525 319.828 54.0841 320.217 54.0509C320.866 53.9956 321.441 53.8485 321.944 53.6096C322.205 54.3714 322.733 54.8164 323.528 54.9446C324.382 55.0024 325.08 55.1388 325.621 55.354L325.729 56.619C325.9 58.6299 326.55 60.502 327.678 62.2353C327.463 62.7764 327.348 63.3416 327.333 63.9309C327.318 64.5203 327.332 65.0744 327.377 65.5934C327.443 66.3718 327.542 67.1475 327.673 67.9204C327.805 68.6932 327.901 69.4365 327.962 70.15C328.028 70.9284 327.997 71.7152 327.869 72.5102C327.806 73.2997 327.507 74.0112 326.973 74.6449C326.98 75.4937 326.998 76.4723 327.027 77.5806C327.116 78.6185 327.142 79.6943 327.107 80.8081C327.136 81.9164 327.065 83.0006 326.894 84.0606C326.723 85.1207 326.406 85.9972 325.942 86.6902C325.961 87.6687 325.982 88.6797 326.005 89.7231C326.088 90.6962 326.169 91.6368 326.246 92.5449C326.368 93.972 326.577 95.6531 326.872 97.588C327.233 99.5175 327.825 101.1 328.65 102.337C329.018 102.828 329.668 103.165 330.598 103.347C331.593 103.523 332.383 103.587 332.967 103.537C333.68 103.476 334.385 103.318 335.082 103.062C335.839 102.736 336.354 102.268 336.629 101.656C337.023 101.688 337.299 101.86 337.457 102.174C337.614 102.487 337.863 102.727 338.204 102.894C341.769 101.021 345.339 99.214 348.915 97.4714C352.491 95.7288 355.982 93.7647 359.389 91.5791C359.93 91.7943 360.493 91.877 361.077 91.8272C361.725 91.7718 362.369 91.6516 363.006 91.4665C363.644 91.2814 364.287 91.1612 364.936 91.1058L365.617 91.0477C365.78 91.4259 365.869 91.7122 365.886 91.9068ZM423.651 49.8317L423.684 50.2209C423.241 50.3894 423.042 50.7331 423.086 51.2521C422.4 51.6373 421.676 51.9604 420.914 52.2215C420.147 52.4176 419.42 52.7083 418.735 53.0935C418.016 53.0895 417.267 53.1208 416.488 53.1872C415.769 53.1832 415.053 53.2117 414.339 53.2725C412.393 53.4386 410.453 53.6695 408.518 53.9653C406.583 54.2611 404.637 54.4271 402.68 54.4635C401.816 55.0599 400.846 55.5673 399.771 55.9858C398.755 56.3338 397.761 56.5493 396.788 56.6324C396.01 56.6988 395.32 56.6596 394.72 56.5148C393.229 57.4261 391.566 58.2214 389.729 58.9009C387.957 59.5748 386.152 60.2515 384.315 60.931C382.473 61.5456 380.704 62.2519 379.008 63.0501C377.371 63.7778 375.951 64.7484 374.748 65.9619C374.695 66.8811 374.675 67.7976 374.688 68.7113C374.695 69.5601 374.735 70.4061 374.807 71.2494C374.884 72.1576 374.989 72.9981 375.12 73.771C375.316 74.5383 375.609 75.2974 376 76.0481C376.336 76.1502 376.701 76.2171 377.095 76.2487C377.555 76.2748 377.947 76.2741 378.271 76.2464C378.596 76.2187 378.917 76.1586 379.236 76.0661C379.549 75.9086 379.757 75.6622 379.859 75.3268C380.821 75.1141 381.791 74.9986 382.77 74.9804C383.743 74.8974 384.716 74.8144 385.689 74.7314C386.662 74.6483 387.6 74.5356 388.502 74.3933C389.47 74.2454 390.397 74.003 391.283 73.666C392.298 73.318 393.29 73.07 394.258 72.9221C395.29 72.7687 396.29 72.618 397.257 72.4701C398.225 72.3222 399.222 72.1391 400.249 71.9208C401.27 71.6377 402.31 71.1896 403.368 70.5765C404.239 70.8289 405.097 70.9191 405.94 70.8472C406.848 70.7697 407.729 70.7598 408.584 70.8176C409.065 71.1032 409.453 71.4295 409.745 71.7966C410.103 72.1581 410.304 72.5984 410.348 73.1173C410.426 74.0255 410.179 74.9613 409.607 75.9248C409.036 76.8883 408.589 77.7759 408.267 78.5875L407.196 78.6789C405.639 78.8117 404.134 79.1688 402.681 79.7502C401.287 80.2612 399.869 80.8722 398.427 81.5834C397.044 82.2241 395.626 82.8351 394.173 83.4165C392.779 83.9275 391.304 84.2494 389.747 84.3823C389.487 84.4044 389.339 84.5804 389.302 84.9103C389.324 85.1698 389.276 85.3699 389.157 85.5107C388.827 85.4735 388.338 85.4826 387.689 85.5379C386.197 85.6652 384.784 85.9492 383.449 86.3898C382.115 86.8303 380.734 87.1115 379.307 87.2333C378.918 87.2665 378.528 87.2997 378.139 87.3329C377.744 87.3013 377.35 87.2696 376.955 87.2379C376.675 87.7846 376.284 88.1773 375.781 88.4162C375.274 88.5902 374.809 88.8912 374.388 89.3192C374.243 89.9196 374.175 90.6442 374.182 91.493C374.254 92.3363 374.296 93.2148 374.309 94.1285C374.381 94.9718 374.385 95.7882 374.322 96.5777C374.258 97.3672 374.051 98.0056 373.701 98.4929C373.793 98.8117 374.064 98.9193 374.513 98.8156C374.956 98.6472 375.199 98.8224 375.243 99.3413C375.293 99.9252 375.281 100.547 375.207 101.207C375.132 101.866 375.123 102.521 375.178 103.169C375.283 104.402 375.529 105.753 375.916 107.223C376.362 108.622 376.93 109.913 377.619 111.096C378.372 112.273 379.304 113.239 380.414 113.994C381.518 114.684 382.849 114.962 384.406 114.829C385.444 114.741 386.4 114.463 387.275 113.996C388.15 113.53 388.841 112.817 389.347 111.859L389.825 111.721C390.085 111.699 390.315 111.712 390.515 111.76C390.78 111.803 391.042 111.813 391.301 111.791C391.691 111.758 392.158 111.489 392.703 110.985C393.307 110.411 393.939 109.769 394.597 109.059C395.32 108.344 396.046 107.661 396.774 107.011C397.497 106.296 398.205 105.778 398.896 105.458C399.273 104.511 399.617 103.567 399.928 102.626C400.305 101.679 400.893 100.91 401.692 100.319L401.451 97.4972C402.039 96.7283 402.665 96.0215 403.328 95.3768C404.057 94.7265 404.577 93.9307 404.889 92.9893C405.224 93.0914 405.524 93.1638 405.789 93.2065C406.119 93.2437 406.446 93.2485 406.771 93.2208C407.095 93.1931 407.417 93.133 407.736 93.0405C408.119 92.9424 408.468 92.8147 408.781 92.6572C409.361 93.3265 409.819 94.1042 410.156 94.9902C410.552 95.8058 411.011 96.5834 411.531 97.3231C411.047 98.5406 410.485 99.9933 409.845 101.681C409.205 103.37 408.5 105.063 407.73 106.762C406.96 108.462 406.12 110.102 405.21 111.682C404.358 113.192 403.48 114.378 402.573 115.239C402.395 115.451 401.993 115.714 401.366 116.029C400.697 116.608 400.09 117.15 399.545 117.654C399.005 118.223 398.503 118.854 398.04 119.547C396.209 120.291 394.459 121.224 392.79 122.347C391.187 123.464 389.58 124.548 387.971 125.6C387.176 125.472 386.325 125.447 385.416 125.524C384.638 125.591 383.862 125.69 383.09 125.821C382.322 126.017 381.484 126.154 380.576 126.231C380.289 125.929 379.881 125.735 379.35 125.65C378.891 125.624 378.701 125.313 378.781 124.718C376.564 124.777 374.728 124.313 373.272 123.326C371.821 122.405 370.542 121.207 369.437 119.733C368.396 118.254 367.506 116.631 366.767 114.864C366.028 113.098 365.262 111.399 364.47 109.768L364.445 109.476C364.417 109.151 364.53 108.946 364.784 108.859C365.038 108.772 365.151 108.566 365.124 108.242C365.113 108.112 365.072 108.017 365.001 107.958C364.746 107.261 364.531 106.659 364.357 106.151C364.183 105.643 364.066 105.032 364.005 104.319C363.916 103.281 363.895 102.27 363.942 101.286C363.983 100.237 363.96 99.1934 363.871 98.1555C363.782 97.1176 363.575 96.2205 363.249 95.4642C363.481 95.1177 363.672 94.6767 363.822 94.1412C363.902 93.5463 363.95 92.9542 363.965 92.3648C363.98 91.7755 363.963 91.1889 363.913 90.6051C363.928 90.0157 363.981 89.4885 364.072 89.0233C363.752 88.3319 363.472 87.735 363.233 87.2327C362.989 86.6655 362.833 85.9926 362.767 85.2142L362.709 84.5331C363.263 83.375 363.718 82.1927 364.072 80.9864C364.427 79.78 364.811 78.5384 365.225 77.2616L365.2 76.9697C365.039 75.0885 364.814 73.2129 364.523 71.3428C364.233 69.4727 364.008 67.597 363.847 65.7158L363.69 63.8671C363.634 63.2184 363.614 62.5994 363.629 62.01C364.126 61.7063 364.485 61.3163 364.705 60.8401C364.926 60.3638 365.285 59.9739 365.782 59.6701L368.993 59.3961L369.493 58.3733C369.66 58.0323 369.76 57.6645 369.791 57.2697C370.488 57.0142 371.147 56.6966 371.768 56.317C372.449 55.8669 373.064 55.4223 373.615 54.9833C374.479 54.3868 375.251 53.8636 375.931 53.4135C376.671 52.893 377.386 52.4725 378.078 52.1522C378.828 51.7614 379.617 51.4328 380.444 51.1662C381.271 50.8996 382.23 50.6544 383.321 50.4306C383.84 50.3863 384.156 50.2613 384.27 50.0557C384.448 49.8445 384.688 49.5953 384.99 49.3081C385.779 49.3714 386.569 49.4348 387.358 49.4981C388.142 49.4965 388.923 49.4625 389.702 49.3961C391.259 49.2633 392.693 48.8468 394.006 48.1468C395.952 47.9807 397.863 47.785 399.738 47.5596C401.679 47.3287 403.622 47.1302 405.568 46.9642C407.255 46.8203 408.947 46.7412 410.645 46.727C412.342 46.7129 414.016 46.7988 415.665 46.9847C416.232 46.7403 416.873 46.5877 417.586 46.5268C418.365 46.4603 419.151 46.4912 419.946 46.6194C420.801 46.6772 421.612 46.608 422.379 46.4118C422.505 47.1199 422.719 47.7223 423.023 48.2191C423.386 48.6455 423.596 49.183 423.651 49.8317ZM181.927 227.534C181.999 228.377 181.838 229.175 181.445 229.927C181.046 230.615 180.983 231.404 181.255 232.296C181.034 232.772 180.708 233.159 180.276 233.457C179.909 233.75 179.821 234.248 180.011 234.95C178.71 235.78 177.522 236.796 176.449 237.998C175.435 239.13 174.32 240.238 173.106 241.322C172.377 241.972 171.732 242.452 171.171 242.761C170.668 243 170.047 243.38 169.308 243.9L167.008 245.665C165.955 246.343 164.869 247.023 163.752 247.707C162.699 248.385 161.757 249.217 160.926 250.202C159.57 250.383 158.205 250.859 156.834 251.63C155.467 252.465 154.158 253.197 152.905 253.827C152.402 254.066 151.894 254.24 151.381 254.349C150.873 254.523 150.371 254.762 149.874 255.066L148.375 255.88C147.506 256.411 146.474 256.957 145.28 257.516C144.092 258.14 143.012 258.494 142.039 258.577C141.477 258.886 141.029 259.381 140.695 260.063C138.616 260.96 136.457 261.699 134.22 262.282C131.983 262.865 129.83 263.669 127.761 264.695C127.075 265.081 126.365 265.566 125.631 266.151C124.967 266.796 124.211 267.122 123.362 267.129C123.195 267.47 123.099 267.87 123.073 268.33C123.046 268.789 122.988 269.252 122.897 269.717L122.605 269.742C122.346 269.764 122.205 269.645 122.183 269.386C122.225 269.121 122.117 268.999 121.857 269.022C121.663 269.038 121.536 269.082 121.477 269.152C120.65 269.419 119.853 269.65 119.085 269.846C118.383 270.037 117.578 270.171 116.67 270.248C116.151 270.293 115.302 270.3 114.123 270.27C113.009 270.234 112.185 270.141 111.649 269.991C111.243 269.829 110.888 269.5 110.585 269.003C110.281 268.507 109.974 267.977 109.665 267.416C109.421 266.848 109.173 266.249 108.923 265.617C108.744 265.044 108.573 264.569 108.41 264.19C108.543 263.46 108.818 262.849 109.233 262.356C109.649 261.863 109.956 261.249 110.154 260.513C110.732 260.398 111.308 260.251 111.881 260.072C112.453 259.892 113.035 259.81 113.624 259.825C115.585 259.07 117.546 258.314 119.507 257.559C121.539 256.863 123.535 256.137 125.496 255.382C127.457 254.626 129.38 253.809 131.266 252.929C133.151 252.049 134.957 251.013 136.685 249.82L138.728 249.646C139.841 248.898 141.091 248.236 142.479 247.66C143.868 247.084 144.972 246.238 145.791 245.123C147.893 244.486 150.078 243.679 152.347 242.701C154.616 241.724 156.457 240.325 157.87 238.506C158.832 238.293 159.656 237.994 160.342 237.609C161.022 237.159 161.67 236.711 162.285 236.267L164.124 234.836C164.734 234.326 165.449 233.906 166.27 233.574C166.745 233.011 167.184 232.418 167.589 231.796C167.993 231.173 168.503 230.64 169.118 230.195C168.835 229.174 168.25 228.44 167.362 227.993C166.475 227.546 165.676 226.993 164.966 226.335L162.826 226.517C161.051 225.623 159.168 225 157.178 224.647C155.247 224.224 153.313 223.768 151.376 223.28C151.241 223.226 151.076 223.208 150.881 223.224C150.427 223.263 150.149 223.45 150.047 223.785C150.01 224.115 149.762 224.267 149.302 224.241C148.685 223.902 148.049 223.727 147.395 223.718C146.735 223.643 146.049 223.637 145.335 223.697C144.427 223.775 143.524 223.917 142.627 224.124C141.79 224.261 140.917 224.368 140.008 224.446C139.554 224.485 139.097 224.491 138.638 224.465C138.178 224.439 137.71 224.315 137.234 224.095L135.969 224.203C134.607 224.319 133.25 224.5 131.899 224.746C130.607 224.921 129.313 225.065 128.015 225.175C127.302 225.236 126.621 225.294 125.972 225.35C125.318 225.34 124.661 225.298 124.001 225.224C122.694 225.989 121.273 226.567 119.739 226.96C118.204 227.352 116.599 227.685 114.923 227.959C113.313 228.227 111.702 228.495 110.091 228.763C108.475 228.966 106.932 229.261 105.462 229.648C105.068 229.616 104.676 229.617 104.286 229.65C103.957 229.613 103.629 229.608 103.305 229.636C102.981 229.664 102.627 229.727 102.243 229.825C101.919 229.852 101.597 229.912 101.278 230.005C100.358 229.169 99.2643 228.609 97.9986 228.325C96.7922 227.97 95.5996 227.778 94.4209 227.748C93.4187 226.722 92.6435 225.678 92.0953 224.614C91.6065 223.479 91.2363 222.204 90.9848 220.788L91.374 220.755C91.8281 220.716 92.0033 220.473 91.8997 220.024C91.8609 219.57 91.9899 219.167 92.2866 218.815C92.5777 218.398 92.9772 218.102 93.4851 217.928C94.0523 217.684 94.5871 217.442 95.0894 217.204C95.5918 216.965 96.0589 216.696 96.4908 216.398C96.9821 216.029 97.3298 215.51 97.5339 214.839L98.7989 214.731C99.0583 214.709 99.3206 214.719 99.5856 214.762C99.9099 214.734 100.178 214.809 100.389 214.987C100.626 214.706 100.931 214.451 101.304 214.223C101.676 213.995 102.017 213.77 102.324 213.548C102.697 213.32 103.002 213.065 103.239 212.784C103.477 212.502 103.606 212.099 103.626 211.575C103.708 211.764 103.878 211.847 104.138 211.825C104.397 211.803 104.619 211.719 104.802 211.572C105.05 211.42 105.34 211.363 105.669 211.4C105.916 210.464 106.426 209.931 107.199 209.8C107.972 209.668 108.666 209.38 109.282 208.936C109.714 208.638 110.11 208.31 110.472 207.952C110.828 207.53 111.219 207.137 111.645 206.774L117.102 201.8L125.472 194.225C128.263 191.7 131.132 189.331 134.079 187.12C134.176 186.719 134.345 186.411 134.588 186.194C134.831 185.977 135.074 185.761 135.317 185.544C135.554 185.262 135.727 184.986 135.834 184.716C136.007 184.439 136.038 184.045 135.929 183.531C136.821 183.259 137.471 182.844 137.881 182.287C138.356 181.723 138.763 181.133 139.102 180.516C139.436 179.834 139.773 179.185 140.112 178.568C140.511 177.88 141.053 177.344 141.739 176.959C141.658 176.77 141.6 176.481 141.567 176.091C141.523 175.573 141.511 175.051 141.532 174.526C141.617 173.996 141.838 173.52 142.194 173.098C141.494 171.785 140.405 170.898 138.928 170.436C137.446 169.909 136.037 169.474 134.7 169.131L134.409 169.155C134.084 169.183 133.903 169.362 133.866 169.692C133.888 169.951 133.743 170.16 133.43 170.317C132.369 170.146 131.191 170.116 129.893 170.227C128.596 170.337 127.307 170.545 126.026 170.851C124.81 171.151 123.548 171.291 122.24 171.272C122.067 171.548 121.862 171.827 121.625 172.108C121.453 172.385 121.212 172.634 120.905 172.856C119.548 173.037 118.202 173.348 116.868 173.789L112.864 175.11L110.668 175.788C110.354 175.945 110.147 176.192 110.045 176.527C109.943 176.862 109.876 177.227 109.844 177.622C109.449 177.591 109.176 177.451 109.024 177.202C108.937 176.948 108.694 176.773 108.293 176.676C106.879 177.712 105.321 178.596 103.619 179.329C101.982 180.057 100.535 181.095 99.2783 182.444C98.7799 181.964 98.1091 181.76 97.2658 181.832C96.5523 181.893 95.7932 182.186 94.9887 182.712C94.1841 183.238 93.715 183.866 93.5813 184.596C92.9215 184.522 92.4295 184.499 92.1051 184.526C91.3916 184.587 90.7919 184.834 90.3062 185.268C89.8853 185.696 89.47 186.189 89.0602 186.746C88.6449 187.239 88.1971 187.735 87.7169 188.233C87.2367 188.732 86.6102 189.046 85.8373 189.178C85.8649 189.502 85.8954 189.859 85.9286 190.248C86.0211 190.567 86.084 190.921 86.1172 191.31C86.3663 194.229 86.4532 197.162 86.3779 200.109C86.2971 202.991 86.3813 205.891 86.6304 208.81C86.6857 209.459 86.7735 210.105 86.8937 210.748C87.0084 211.326 87.0962 211.972 87.1571 212.686C87.1737 212.88 87.0475 213.316 86.7785 213.992C86.5744 214.663 86.4213 215.166 86.3192 215.502C86.6396 216.193 86.7978 216.898 86.7938 217.617C86.8547 218.331 87.075 218.998 87.4546 219.619C86.9151 220.188 86.6841 220.926 86.7616 221.835C86.7948 222.224 86.828 222.613 86.8612 223.002C86.9593 223.386 87.0249 223.772 87.0581 224.162L87.1578 225.329C87.0739 226.643 87.0576 227.984 87.109 229.352C87.1548 230.655 87.2331 231.955 87.3438 233.252C87.3936 233.836 87.4794 234.841 87.6011 236.269C87.7823 237.625 88.0124 239.174 88.2916 240.914C88.5652 242.59 88.9093 244.325 89.3237 246.119C89.7382 247.913 90.2064 249.572 90.7285 251.095C91.3099 252.549 91.9664 253.734 92.6981 254.652C93.4299 255.569 94.2498 255.99 95.1579 255.912C95.3525 255.895 95.5768 255.844 95.8308 255.757C96.1496 255.664 96.2979 255.488 96.2758 255.229C96.2536 254.969 96.1694 254.748 96.023 254.564C95.9416 254.375 95.8898 254.151 95.8676 253.891L95.9483 253.688C96.4894 253.904 97.0546 254.019 97.644 254.034C98.2982 254.043 98.9524 254.053 99.6066 254.062C100.261 254.072 100.885 254.117 101.48 254.196C102.081 254.341 102.63 254.654 103.128 255.134C102.913 255.675 102.831 256.237 102.88 256.821C102.947 257.6 103.202 258.297 103.647 258.912C104.097 259.592 104.417 260.284 104.608 260.986C103.409 261.481 102.309 261.999 101.31 262.542C100.382 263.144 99.4473 263.681 98.5074 264.153C97.5732 264.69 96.5685 265.168 95.4934 265.587C94.4238 266.07 93.181 266.437 91.765 266.689C90.807 266.182 89.9843 265.73 89.2969 265.331C88.6095 264.932 87.7088 264.715 86.595 264.68C84.7147 262.553 83.1014 260.11 81.7551 257.35C80.4143 254.654 79.2895 251.81 78.3807 248.817C77.5367 245.818 76.8549 242.805 76.3353 239.778C75.875 236.681 75.5286 233.77 75.2962 231.046C75.0415 228.062 74.887 225.102 74.8325 222.166C74.8374 219.16 74.9071 216.149 75.0417 213.131C75.094 212.212 75.1462 211.293 75.1985 210.374C75.2452 209.39 75.2947 208.438 75.3469 207.519C75.449 207.183 75.5158 206.818 75.5475 206.424C75.6385 205.958 75.6701 205.564 75.6425 205.239C75.5484 204.137 75.4218 203.037 75.2629 201.939C75.1039 200.842 74.9801 199.775 74.8916 198.737C74.7532 197.115 74.7094 195.452 74.76 193.749C74.7972 193.419 74.8586 192.989 74.944 192.459C75.0943 191.924 75.1529 191.462 75.1197 191.072C75.0754 190.553 74.9152 190.208 74.6392 190.035C74.3631 189.863 74.1084 189.558 73.875 189.12C74.0143 188.455 74.1239 187.825 74.2038 187.23C74.2782 186.57 74.2877 185.916 74.2323 185.267C74.1272 184.035 73.8088 182.984 73.2772 182.115C73.4577 180.4 73.803 178.705 74.3133 177.028C74.8236 175.35 75.8537 174.021 77.4034 173.039C78.7063 172.994 80.0148 173.013 81.3287 173.097C82.7076 173.175 83.9223 173.627 84.9728 174.452C85.4047 174.154 85.9098 173.947 86.4881 173.832L88.3203 173.48C88.9634 173.36 89.5389 173.213 90.0468 173.039C90.5491 172.8 90.9728 172.404 91.3177 171.852C92.5929 171.482 93.9572 171.006 95.4104 170.425C96.8581 169.779 98.1056 169.084 99.1531 168.341L101.294 168.159C101.72 167.796 102.22 167.524 102.792 167.345L104.6 166.7C105.232 166.45 105.799 166.206 106.301 165.967C106.869 165.723 107.295 165.36 107.581 164.878L107.97 164.845C109.462 164.717 110.894 164.268 112.265 163.498C113.637 162.728 114.982 162.025 116.3 161.39C116.613 161.232 117.08 160.964 117.701 160.584C118.387 160.199 118.86 159.995 119.119 159.973C120.016 159.766 120.919 159.623 121.827 159.546C122.73 159.403 123.627 159.196 124.518 158.924C126.567 158.423 128.58 157.891 130.557 157.331C132.594 156.699 134.651 156.295 136.726 156.118C137.44 156.057 138.091 156.034 138.681 156.049C139.33 155.994 140.013 155.968 140.732 155.972C140.819 156.226 141.001 156.44 141.277 156.612C141.548 156.72 141.786 156.83 141.991 156.943C142.262 157.051 142.506 157.226 142.722 157.469C142.934 157.647 143.023 157.933 142.992 158.328C143.133 158.447 143.268 158.5 143.398 158.489C143.592 158.473 143.746 158.362 143.859 158.156C144.037 157.945 144.288 157.825 144.613 157.798L145.099 157.756C146.02 158.592 146.906 159.399 147.756 160.176C148.666 160.882 149.759 161.442 151.036 161.856C151.721 163.758 152.5 165.619 153.374 167.439C154.248 169.259 154.777 171.24 154.959 173.381C155.07 174.678 154.983 175.959 154.699 177.225C153.83 177.757 153.242 178.526 152.936 179.532C152.63 180.538 152.353 181.509 152.106 182.445C150.368 183.508 148.946 184.838 147.84 186.435C146.735 188.033 145.598 189.632 144.427 191.235L142.871 191.368C142.611 191.39 142.425 191.504 142.312 191.71L141.519 192.757C140.979 193.326 140.375 193.901 139.706 194.48C139.101 195.055 138.673 195.777 138.421 196.648C136.504 197.923 134.663 199.321 132.898 200.844C131.198 202.361 129.568 203.938 128.009 205.574C127.345 206.218 126.69 206.96 126.043 207.8C125.39 208.574 124.729 209.251 124.06 209.831C123.698 210.189 123.269 210.519 122.772 210.823C122.335 211.056 121.935 211.352 121.574 211.709C120.786 212.43 120.065 213.177 119.413 213.952C118.755 214.662 118.061 215.341 117.333 215.992C120.241 215.613 123.187 215.296 126.17 215.042C129.149 214.722 132.095 214.405 135.008 214.091C136.5 213.964 137.957 213.807 139.379 213.62C140.795 213.369 142.249 213.18 143.741 213.052C144 213.03 144.233 213.076 144.438 213.189C144.639 213.237 144.871 213.282 145.136 213.325C146.256 213.426 147.248 213.57 148.113 213.757C151.277 214.075 154.435 214.329 157.587 214.517C160.74 214.705 163.852 215.191 166.925 215.975C167.796 216.227 168.442 216.531 168.865 216.887C169.352 217.238 170.139 217.268 171.225 216.98C172.211 217.81 173.245 218.441 174.327 218.871C175.474 219.296 176.615 219.656 177.751 219.951C178.705 221.177 179.589 222.343 180.402 223.45C181.28 224.551 181.788 225.912 181.927 227.534ZM247.867 222.692C247.691 223.687 247.338 224.534 246.81 225.232C246.281 225.931 245.65 226.572 244.916 227.158C244.246 227.738 243.509 228.291 242.705 228.817C241.895 229.278 241.123 229.801 240.389 230.386L239.124 230.494C236.399 230.727 234.236 230.258 232.633 229.088C231.09 227.847 229.846 226.287 228.901 224.408C227.951 222.463 227.185 220.372 226.602 218.135C226.084 215.893 225.485 213.853 224.806 212.016C224.082 212.731 223.5 213.565 223.059 214.517C222.612 215.405 222.132 216.295 221.62 217.188C221.173 218.076 220.624 218.907 219.971 219.681C219.383 220.45 218.549 221.011 217.468 221.365C217.312 221.836 217.124 222.309 216.903 222.785C216.748 223.256 216.659 223.754 216.639 224.278C215.278 225.178 214.058 226.197 212.979 227.335C211.9 228.472 210.824 229.642 209.75 230.844C208.677 232.047 207.568 233.22 206.424 234.363C205.339 235.435 204.079 236.36 202.642 237.136C202.572 237.076 202.439 237.055 202.245 237.072C201.466 237.138 200.769 237.393 200.154 237.838C199.533 238.218 198.833 238.441 198.055 238.507C197.536 238.551 197.041 238.496 196.57 238.34C196.164 238.178 195.723 237.987 195.247 237.767C194.836 237.54 194.398 237.382 193.932 237.291C193.467 237.2 192.978 237.209 192.465 237.318C191.716 236.206 190.749 235.21 189.563 234.331C188.437 233.382 187.689 232.27 187.318 230.994C187.139 230.422 186.992 229.846 186.877 229.268C186.822 228.619 186.702 227.976 186.516 227.338C186.239 226.382 185.896 225.431 185.489 224.486C185.076 223.475 184.728 222.46 184.445 221.438C184.62 219.659 184.781 217.718 184.928 215.615C185.005 213.452 185.149 211.316 185.361 209.207C185.633 207.027 186.045 204.967 186.598 203.025C187.21 201.012 188.042 199.275 189.094 197.813L188.938 197.14C188.85 196.102 188.961 195.113 189.273 194.171C189.585 193.23 189.932 192.318 190.314 191.436C190.696 190.554 191.013 189.678 191.266 188.807C191.518 187.936 191.503 186.99 191.219 185.968C191.965 185.513 192.748 185.119 193.569 184.788C194.39 184.456 195.255 184.252 196.163 184.174C197.006 184.102 197.796 184.166 198.531 184.364C198.446 184.894 198.701 185.199 199.296 185.279L199.32 185.571C199.437 186.933 199.388 188.277 199.174 189.602C198.961 190.927 198.682 192.258 198.339 193.594C197.99 194.865 197.644 196.169 197.3 197.505C197.016 198.771 196.832 200.06 196.748 201.374C196.494 201.461 196.311 201.608 196.198 201.813C196.15 202.014 196.101 202.214 196.053 202.414C196.005 202.614 195.921 202.784 195.803 202.925C195.684 203.066 195.495 203.148 195.235 203.17C195.04 205.473 194.812 207.78 194.552 210.089C194.351 212.328 194.347 214.582 194.541 216.853C194.657 218.215 194.906 219.598 195.287 221.003C195.668 222.408 196.271 223.729 197.095 224.965L197.476 224.835C198.19 224.774 198.755 224.889 199.172 225.18C199.654 225.466 200.265 225.74 201.006 226.004C201.514 225.83 201.987 225.626 202.424 225.393C202.856 225.095 203.015 224.656 202.9 224.078C203.738 223.941 204.435 223.686 204.991 223.312C205.542 222.873 206.025 222.407 206.44 221.914L207.783 220.427C208.263 219.929 208.852 219.552 209.549 219.296C209.516 218.907 209.588 218.607 209.766 218.396L210.3 217.762C210.478 217.551 210.591 217.345 210.64 217.145C210.747 216.874 210.749 216.515 210.645 216.066C211.418 215.935 211.986 215.691 212.347 215.333C212.774 214.97 213.132 214.58 213.423 214.163C213.774 213.676 214.092 213.191 214.378 212.71C214.663 212.228 215.052 211.803 215.543 211.434C215.914 210.422 216.419 209.072 217.059 207.384C217.764 205.691 218.431 203.935 219.06 202.117C219.754 200.293 220.327 198.578 220.778 196.972C221.288 195.295 221.507 194.035 221.435 193.191C221.407 192.867 221.285 192.583 221.068 192.34C220.917 192.092 220.859 191.803 220.896 191.473L220.872 191.181C221.335 190.488 221.728 189.736 222.051 188.924C222.439 188.107 222.829 187.322 223.222 186.57C223.68 185.812 224.176 185.116 224.71 184.483C225.244 183.849 225.952 183.331 226.832 182.93C227.898 183.165 228.955 183.304 230.004 183.345C231.118 183.381 232.178 183.552 233.184 183.858C233.387 185.474 233.71 187.341 234.152 189.46C234.594 191.578 235.203 193.356 235.979 194.793C236.051 195.636 236.088 196.449 236.09 197.233C236.156 198.012 236.222 198.79 236.289 199.569C236.4 200.866 236.545 202.193 236.727 203.55C236.973 204.901 237.308 206.147 237.731 207.286C237.36 208.298 237.222 209.356 237.316 210.458C237.443 211.95 237.792 213.358 238.362 214.682C238.927 215.94 239.371 217.307 239.693 218.782C240.635 219.878 241.788 220.368 243.15 220.252C243.475 220.224 243.731 220.169 243.92 220.088C244.174 220.001 244.425 219.881 244.674 219.73C245.243 220.269 245.747 220.814 246.186 221.365C246.684 221.845 247.244 222.287 247.867 222.692ZM313.717 184.631C313.773 185.28 313.581 185.721 313.144 185.954C312.707 186.187 312.513 186.596 312.563 187.18C312.579 187.374 312.658 187.531 312.799 187.65C312.939 187.768 313.021 187.957 313.043 188.217L313.076 188.606C312.619 192.435 311.763 195.808 310.509 198.724C309.32 201.635 307.852 204.342 306.105 206.843C304.359 209.344 302.341 211.738 300.053 214.024C297.83 216.305 295.421 218.699 292.825 221.208C292.102 221.923 291.347 222.641 290.559 223.361C289.836 224.076 289.148 224.821 288.495 225.596L286.529 227.822C286.47 227.892 286.127 228.085 285.5 228.399C284.868 228.649 284.49 228.812 284.366 228.888C283.491 229.355 282.557 229.892 281.563 230.5C280.634 231.102 279.846 231.822 279.199 232.661C277.902 232.772 276.816 233.061 275.941 233.528C275.066 233.994 274.105 234.599 273.057 235.342C272.733 235.369 272.435 235.329 272.165 235.222C271.959 235.109 271.721 234.998 271.45 234.891C271.18 234.783 270.882 234.743 270.558 234.771C270.293 234.728 269.939 234.791 269.496 234.96C268.607 233.729 267.67 232.698 266.684 231.867C265.698 231.036 264.419 230.59 262.845 230.528C262.557 229.442 262.031 228.638 261.267 228.115C260.498 227.527 259.727 226.907 258.952 226.254C258.789 225.876 258.653 225.43 258.544 224.917C258.435 224.403 258.264 223.928 258.03 223.49C257.797 223.053 257.504 222.686 257.152 222.389C256.8 222.093 256.332 221.969 255.748 222.019C255.65 221.635 255.796 221.427 256.185 221.394C256.574 221.36 256.755 221.182 256.727 220.857C256.694 220.468 256.596 220.084 256.433 219.706C256.27 219.328 256.169 218.912 256.131 218.458C256.103 218.134 256.111 217.839 256.153 217.574C256.196 217.309 256.268 217.009 256.37 216.673C256.026 214.938 255.777 213.163 255.622 211.347C255.323 207.844 255.257 204.386 255.423 200.974C255.649 197.492 255.612 193.999 255.313 190.497C255.18 188.94 254.95 187.391 254.623 185.851C254.36 184.305 253.938 182.806 253.357 181.352C251.892 181.804 250.434 182.321 248.98 182.902C247.522 183.419 246.174 184.089 244.937 184.913C244.185 184.52 243.417 184.324 242.633 184.326C241.779 184.268 240.951 184.143 240.151 183.949C239.619 183.08 239.312 182.159 239.229 181.186C239.151 180.278 239.239 179.388 239.491 178.517L240.248 175.904C241.777 175.447 243.293 174.828 244.794 174.046C246.231 173.27 247.706 172.556 249.218 171.904C249.726 171.73 250.361 171.513 251.123 171.252C251.949 170.985 252.519 170.773 252.833 170.616C253.27 170.383 253.531 170.001 253.617 169.471C253.762 168.87 253.98 168.362 254.271 167.945L255.925 167.804C256.314 167.771 256.739 167.767 257.198 167.793C257.652 167.754 258.082 167.816 258.488 167.977C260.774 167.194 263.078 166.638 265.403 166.309C267.721 165.915 270.099 165.451 272.536 164.916C272.796 164.894 273.182 164.828 273.696 164.719L275.325 164.286C275.898 164.107 276.408 163.965 276.857 163.861C277.365 163.687 277.716 163.592 277.911 163.576C278.105 163.559 278.211 163.648 278.228 163.843L279.882 163.701C282.671 163.463 285.426 163.588 288.146 164.074L296.308 165.534C297.488 166.348 298.666 167.13 299.84 167.879C301.015 168.628 302.311 169.269 303.729 169.802C304.142 170.812 304.7 171.614 305.404 172.207C306.168 172.73 307.001 173.312 307.906 173.954C308.302 174.769 308.801 175.641 309.403 176.57C310.064 177.429 310.696 178.322 311.298 179.251C311.9 180.18 312.437 181.114 312.909 182.054C313.376 182.929 313.645 183.788 313.717 184.631ZM304.793 186.863C303.952 185.432 303.138 183.933 302.351 182.367C301.564 180.8 300.628 179.41 299.545 178.195C298.349 177.971 297.116 177.684 295.845 177.335C294.633 176.916 293.747 176.109 293.188 174.915C293.064 174.991 292.839 175.043 292.515 175.071C291.931 175.121 291.393 174.938 290.9 174.523C290.407 174.107 289.863 173.86 289.269 173.78C288.744 173.759 288.022 173.723 287.103 173.67C286.249 173.613 285.332 173.593 284.354 173.611C283.375 173.629 282.397 173.647 281.418 173.665C280.504 173.678 279.788 173.707 279.269 173.751C278.75 173.795 278.201 173.875 277.623 173.989C277.104 174.034 276.556 174.113 275.977 174.228C275.458 174.272 275.142 174.397 275.029 174.603C274.911 174.743 274.662 174.895 274.284 175.058C273.949 174.956 273.586 174.922 273.197 174.955L272.029 175.055C270.667 175.171 269.324 175.514 268.001 176.084C266.737 176.584 265.486 177.246 264.25 178.071L264.283 178.46C264.327 178.979 264.579 179.251 265.039 179.278C265.499 179.304 265.78 179.541 265.884 179.99C265.559 180.017 265.303 180.072 265.114 180.153C264.919 180.17 264.841 180.405 264.88 180.859C264.935 181.508 265.061 182.216 265.257 182.983C265.518 183.745 265.682 184.515 265.748 185.294C265.798 185.877 265.791 186.564 265.728 187.354C265.665 188.143 265.393 188.787 264.913 189.285C265.611 189.814 266.002 190.565 266.085 191.538C266.14 192.186 266.069 192.879 265.87 193.614C265.672 194.35 265.4 194.994 265.055 195.546C265.158 198.282 265.133 201.061 264.982 203.883C264.831 206.706 264.872 209.479 265.104 212.204C265.22 213.566 265.399 214.89 265.639 216.176C265.944 217.457 266.347 218.73 266.847 219.994C267.621 220.647 268.414 221.134 269.226 221.457C270.103 221.774 271.011 222.089 271.953 222.401L271.978 222.692C271.994 222.887 271.881 223.093 271.638 223.309C271.396 223.526 271.288 223.797 271.316 224.121C271.338 224.381 271.479 224.499 271.738 224.477C274.396 223.466 276.878 222.307 279.184 220.999C281.49 219.692 283.601 218.009 285.516 215.951C285.694 215.739 285.88 215.625 286.075 215.609C286.205 215.598 286.37 215.616 286.57 215.665C286.835 215.707 287.067 215.753 287.268 215.801L287.137 215.42C287.104 215.031 287.171 214.666 287.338 214.325C287.569 213.979 287.836 213.662 288.139 213.375L289.037 212.416C289.334 212.064 289.565 211.717 289.732 211.376C290.24 211.202 290.575 210.912 290.736 210.507C290.962 210.095 291.368 209.865 291.951 209.815C292.02 209.09 292.333 208.541 292.889 208.167C293.439 207.728 293.749 207.146 293.818 206.421C295.055 205.597 296.115 204.624 296.999 203.503C297.949 202.377 298.795 201.194 299.539 199.954C300.347 198.709 301.088 197.437 301.762 196.138C302.429 194.775 303.135 193.473 303.879 192.233L303.845 191.844C303.757 190.806 303.847 189.949 304.116 189.273C304.45 188.591 304.675 187.787 304.793 186.863ZM383.386 178.686C383.441 179.335 383.25 179.776 382.813 180.009C382.375 180.243 382.181 180.651 382.231 181.235C382.248 181.43 382.327 181.586 382.467 181.705C382.608 181.824 382.69 182.013 382.712 182.272L382.745 182.661C382.288 186.49 381.432 189.863 380.178 192.78C378.989 195.691 377.521 198.397 375.774 200.898C374.027 203.4 372.01 205.793 369.722 208.079C367.499 210.36 365.09 212.755 362.494 215.263C361.771 215.978 361.016 216.696 360.228 217.417C359.505 218.132 358.817 218.876 358.164 219.651L356.198 221.877C356.138 221.947 355.795 222.14 355.169 222.455C354.537 222.705 354.159 222.868 354.034 222.944C353.16 223.41 352.225 223.947 351.232 224.555C350.303 225.157 349.515 225.877 348.868 226.717C347.57 226.828 346.484 227.116 345.609 227.583C344.734 228.05 343.773 228.654 342.726 229.397C342.401 229.425 342.104 229.385 341.833 229.277C341.628 229.164 341.39 229.054 341.119 228.946C340.849 228.839 340.551 228.799 340.227 228.826C339.962 228.784 339.608 228.846 339.165 229.015C338.276 227.784 337.338 226.753 336.353 225.922C335.367 225.092 334.087 224.646 332.514 224.584C332.225 223.498 331.699 222.693 330.936 222.17C330.167 221.582 329.395 220.962 328.621 220.31C328.458 219.931 328.322 219.486 328.213 218.972C328.104 218.459 327.932 217.983 327.699 217.546C327.466 217.108 327.173 216.741 326.821 216.445C326.469 216.148 326.001 216.025 325.417 216.074C325.319 215.691 325.465 215.482 325.854 215.449C326.243 215.416 326.424 215.237 326.396 214.913C326.363 214.523 326.265 214.14 326.102 213.762C325.939 213.384 325.838 212.967 325.799 212.513C325.772 212.189 325.779 211.894 325.822 211.629C325.865 211.364 325.937 211.064 326.039 210.729C325.695 208.994 325.446 207.218 325.291 205.402C324.992 201.899 324.925 198.442 325.092 195.03C325.317 191.547 325.281 188.055 324.982 184.552C324.849 182.995 324.619 181.447 324.291 179.906C324.029 178.361 323.607 176.861 323.025 175.408C321.561 175.859 320.102 176.376 318.649 176.957C317.19 177.474 315.843 178.144 314.606 178.969C313.854 178.575 313.086 178.38 312.302 178.381C311.447 178.323 310.62 178.198 309.819 178.005C309.288 177.135 308.981 176.214 308.898 175.241C308.82 174.333 308.907 173.443 309.16 172.572L309.917 169.96C311.446 169.502 312.962 168.883 314.463 168.102C315.9 167.326 317.374 166.612 318.887 165.96C319.395 165.786 320.03 165.568 320.791 165.307C321.618 165.041 322.188 164.829 322.501 164.671C322.939 164.438 323.2 164.056 323.286 163.526C323.43 162.926 323.648 162.417 323.94 162L325.594 161.859C325.983 161.826 326.407 161.822 326.867 161.849C327.321 161.81 327.751 161.871 328.157 162.032C330.442 161.249 332.747 160.693 335.071 160.364C337.39 159.971 339.768 159.506 342.205 158.972C342.465 158.949 342.851 158.884 343.365 158.775L344.994 158.342C345.567 158.162 346.077 158.02 346.526 157.917C347.034 157.743 347.385 157.648 347.579 157.631C347.774 157.614 347.88 157.703 347.896 157.898L349.55 157.757C352.34 157.519 355.095 157.643 357.815 158.13L365.977 159.59C367.157 160.404 368.334 161.185 369.509 161.934C370.684 162.684 371.98 163.324 373.398 163.857C373.81 164.867 374.369 165.669 375.073 166.262C375.836 166.785 376.67 167.367 377.574 168.009C377.971 168.825 378.47 169.697 379.072 170.626C379.733 171.484 380.365 172.377 380.967 173.306C381.569 174.235 382.106 175.169 382.578 176.109C383.045 176.984 383.314 177.843 383.386 178.686ZM374.461 180.918C373.62 179.487 372.806 177.988 372.019 176.422C371.232 174.856 370.297 173.465 369.213 172.251C368.018 172.026 366.785 171.739 365.513 171.39C364.301 170.971 363.416 170.165 362.857 168.971C362.732 169.047 362.508 169.099 362.184 169.126C361.6 169.176 361.062 168.993 360.569 168.578C360.076 168.163 359.532 167.915 358.937 167.835C358.413 167.814 357.691 167.778 356.772 167.726C355.917 167.668 355.001 167.648 354.022 167.666C353.044 167.684 352.065 167.703 351.087 167.721C350.173 167.733 349.457 167.762 348.938 167.806C348.419 167.85 347.87 167.93 347.292 168.045C346.773 168.089 346.224 168.168 345.646 168.283C345.127 168.327 344.811 168.452 344.698 168.658C344.579 168.799 344.331 168.951 343.953 169.114C343.617 169.012 343.255 168.977 342.866 169.01L341.698 169.11C340.336 169.226 338.993 169.569 337.67 170.14C336.405 170.64 335.155 171.302 333.919 172.126L333.952 172.515C333.996 173.034 334.248 173.307 334.708 173.333C335.167 173.359 335.449 173.596 335.552 174.045C335.228 174.073 334.971 174.127 334.782 174.209C334.588 174.225 334.51 174.461 334.549 174.915C334.604 175.563 334.73 176.271 334.926 177.039C335.187 177.8 335.351 178.571 335.417 179.349C335.467 179.933 335.46 180.62 335.397 181.409C335.333 182.198 335.062 182.842 334.581 183.341C335.28 183.869 335.671 184.62 335.754 185.593C335.809 186.242 335.737 186.934 335.539 187.67C335.34 188.405 335.069 189.049 334.724 189.601C334.826 192.337 334.802 195.116 334.651 197.938C334.5 200.761 334.54 203.535 334.773 206.259C334.889 207.621 335.067 208.946 335.308 210.232C335.613 211.513 336.016 212.785 336.516 214.049C337.29 214.702 338.083 215.19 338.895 215.512C339.771 215.83 340.68 216.144 341.622 216.456L341.646 216.748C341.663 216.942 341.55 217.148 341.307 217.365C341.064 217.582 340.957 217.852 340.984 218.176C341.006 218.436 341.147 218.555 341.407 218.532C344.065 217.522 346.547 216.362 348.853 215.055C351.159 213.747 353.27 212.064 355.185 210.006C355.363 209.795 355.549 209.681 355.744 209.664C355.873 209.653 356.038 209.672 356.239 209.72C356.504 209.763 356.736 209.808 356.936 209.857L356.806 209.476C356.773 209.086 356.839 208.721 357.006 208.38C357.238 208.034 357.505 207.717 357.807 207.43L358.706 206.471C359.002 206.119 359.234 205.773 359.401 205.432C359.909 205.258 360.244 204.968 360.405 204.562C360.631 204.151 361.036 203.92 361.62 203.87C361.689 203.146 362.001 202.596 362.558 202.222C363.108 201.783 363.418 201.201 363.487 200.477C364.723 199.652 365.784 198.68 366.668 197.559C367.617 196.432 368.464 195.249 369.208 194.01C370.016 192.765 370.757 191.493 371.43 190.194C372.098 188.83 372.804 187.528 373.547 186.289L373.514 185.899C373.426 184.862 373.516 184.004 373.785 183.328C374.119 182.646 374.344 181.843 374.461 180.918ZM411.64 211.167C411.36 211.714 411.013 212.234 410.597 212.727C410.176 213.155 409.791 213.612 409.44 214.099C409.003 214.333 408.492 214.474 407.908 214.524C407.389 214.569 406.87 214.613 406.351 214.657C405.892 214.631 405.438 214.67 404.989 214.773C404.6 214.807 404.287 214.964 404.049 215.246C403.519 215.16 403.111 214.966 402.824 214.664C402.531 214.297 402.058 214.109 401.403 214.099C401.138 214.056 400.879 214.079 400.625 214.166C399.558 213.146 398.55 212.056 397.601 210.895C396.718 209.729 395.872 208.625 395.065 207.583C394.795 205.189 394.393 202.773 393.858 200.335C393.743 199.757 393.596 199.182 393.417 198.609C393.237 198.036 393.093 197.493 392.984 196.98C392.928 196.331 392.908 195.712 392.923 195.123C392.998 194.463 393.045 193.871 393.066 193.346C393.165 191.443 393.299 189.569 393.468 187.725C393.638 185.881 393.772 184.008 393.871 182.104C393.986 180.395 393.967 178.633 393.812 176.817C393.651 174.935 393.21 173.209 392.487 171.637L392.349 171.159C392.434 170.629 392.528 170.196 392.63 169.861C392.791 169.455 392.885 169.022 392.911 168.563C392.98 167.838 392.774 167.333 392.292 167.047C392.442 166.512 392.739 166.16 393.182 165.991C393.619 165.758 393.846 165.346 393.861 164.757C393.903 164.492 393.881 164.233 393.794 163.979C394.297 163.74 394.802 163.533 395.31 163.359C395.877 163.115 396.425 163.035 396.955 163.121C397.81 163.179 398.581 163.407 399.268 163.806C399.95 164.14 400.605 164.541 401.233 165.01C402.537 168.035 403.241 171.308 403.345 174.827C403.444 178.282 403.415 181.78 403.26 185.321C403.105 188.863 403.107 192.326 403.265 195.71C403.417 199.03 404.199 202.067 405.61 204.821L405.813 204.902C406.143 204.939 406.394 204.82 406.567 204.544C406.734 204.203 406.982 204.051 407.312 204.088C407.582 204.196 407.75 204.247 407.815 204.241C408.185 205.516 408.712 206.713 409.395 207.831C410.079 208.948 410.827 210.061 411.64 211.167ZM478.334 156.569L478.367 156.958C477.924 157.127 477.725 157.471 477.769 157.989C477.083 158.375 476.359 158.698 475.597 158.959C474.83 159.155 474.103 159.446 473.417 159.831C472.698 159.827 471.95 159.858 471.171 159.925C470.452 159.921 469.736 159.949 469.022 160.01C467.076 160.176 465.136 160.407 463.201 160.703C461.266 160.999 459.32 161.165 457.362 161.201C456.499 161.797 455.529 162.305 454.454 162.723C453.438 163.071 452.444 163.287 451.471 163.37C450.692 163.436 450.003 163.397 449.403 163.252C447.912 164.163 446.248 164.959 444.412 165.638C442.64 166.312 440.835 166.989 438.998 167.668C437.156 168.283 435.386 168.989 433.69 169.787C432.054 170.515 430.634 171.486 429.43 172.699C429.378 173.619 429.358 174.535 429.371 175.449C429.378 176.297 429.417 177.144 429.489 177.987C429.567 178.895 429.671 179.736 429.803 180.508C429.999 181.276 430.292 182.035 430.683 182.786C431.018 182.888 431.383 182.954 431.778 182.986C432.238 183.012 432.63 183.011 432.954 182.984C433.279 182.956 433.6 182.896 433.919 182.803C434.232 182.646 434.44 182.4 434.542 182.064C435.504 181.851 436.474 181.736 437.453 181.718C438.426 181.635 439.399 181.552 440.372 181.469C441.345 181.386 442.283 181.273 443.185 181.131C444.153 180.983 445.079 180.74 445.965 180.403C446.981 180.055 447.973 179.807 448.94 179.66C449.973 179.506 450.973 179.355 451.94 179.208C452.908 179.06 453.905 178.877 454.932 178.658C455.953 178.375 456.993 177.927 458.051 177.314C458.922 177.566 459.779 177.657 460.623 177.585C461.531 177.507 462.412 177.497 463.266 177.555C463.748 177.841 464.135 178.167 464.428 178.534C464.786 178.896 464.987 179.336 465.031 179.855C465.108 180.763 464.861 181.699 464.29 182.662C463.719 183.626 463.272 184.513 462.949 185.325L461.879 185.416C460.322 185.549 458.817 185.906 457.364 186.488C455.97 186.999 454.552 187.61 453.11 188.321C451.727 188.961 450.309 189.573 448.856 190.154C447.462 190.665 445.986 190.987 444.43 191.12C444.17 191.142 444.022 191.318 443.985 191.648C444.007 191.907 443.958 192.107 443.84 192.248C443.51 192.211 443.021 192.22 442.372 192.275C440.88 192.403 439.467 192.687 438.132 193.127C436.798 193.568 435.417 193.849 433.99 193.971C433.6 194.004 433.211 194.037 432.822 194.07C432.427 194.039 432.033 194.007 431.638 193.975C431.358 194.522 430.967 194.915 430.464 195.154C429.956 195.328 429.492 195.629 429.071 196.057C428.926 196.657 428.857 197.382 428.865 198.23C428.936 199.074 428.979 199.952 428.991 200.866C429.063 201.709 429.068 202.526 429.004 203.315C428.941 204.105 428.734 204.743 428.384 205.23C428.476 205.549 428.747 205.657 429.195 205.553C429.638 205.385 429.882 205.56 429.926 206.079C429.976 206.663 429.964 207.284 429.889 207.944C429.815 208.604 429.805 209.258 429.861 209.907C429.966 211.139 430.212 212.49 430.599 213.96C431.045 215.36 431.612 216.651 432.301 217.833C433.055 219.011 433.987 219.977 435.097 220.731C436.201 221.421 437.532 221.7 439.089 221.567C440.127 221.478 441.083 221.201 441.958 220.734C442.833 220.267 443.524 219.555 444.03 218.597L444.508 218.458C444.768 218.436 444.997 218.449 445.197 218.497C445.462 218.54 445.725 218.55 445.984 218.528C446.373 218.495 446.841 218.226 447.386 217.722C447.99 217.148 448.621 216.506 449.28 215.797C450.003 215.082 450.728 214.399 451.457 213.749C452.18 213.034 452.887 212.516 453.579 212.195C453.955 211.249 454.3 210.304 454.611 209.363C454.988 208.416 455.576 207.647 456.375 207.056L456.134 204.235C456.722 203.466 457.347 202.759 458.011 202.114C458.74 201.464 459.26 200.668 459.572 199.727C459.907 199.829 460.207 199.901 460.472 199.944C460.802 199.981 461.129 199.986 461.454 199.958C461.778 199.931 462.1 199.87 462.418 199.778C462.802 199.68 463.15 199.552 463.464 199.395C464.044 200.064 464.502 200.842 464.839 201.728C465.235 202.543 465.694 203.321 466.214 204.061C465.73 205.278 465.168 206.731 464.528 208.419C463.888 210.107 463.183 211.801 462.413 213.5C461.643 215.199 460.803 216.839 459.893 218.419C459.041 219.93 458.162 221.115 457.256 221.977C457.078 222.188 456.675 222.451 456.049 222.766C455.38 223.346 454.772 223.888 454.227 224.392C453.688 224.96 453.186 225.591 452.723 226.284C450.891 227.028 449.141 227.962 447.473 229.084C445.869 230.201 444.263 231.286 442.654 232.338C441.859 232.21 441.007 232.184 440.099 232.262C439.321 232.328 438.545 232.427 437.772 232.558C437.005 232.755 436.167 232.891 435.259 232.969C434.972 232.667 434.563 232.473 434.033 232.387C433.574 232.361 433.384 232.051 433.464 231.456C431.247 231.514 429.411 231.05 427.954 230.064C426.504 229.142 425.225 227.944 424.119 226.47C423.078 224.991 422.188 223.368 421.45 221.602C420.711 219.835 419.945 218.136 419.153 216.505L419.128 216.213C419.1 215.889 419.213 215.683 419.467 215.596C419.721 215.509 419.834 215.304 419.806 214.979C419.795 214.849 419.755 214.755 419.684 214.696C419.429 213.999 419.214 213.396 419.04 212.888C418.866 212.38 418.749 211.77 418.688 211.056C418.599 210.018 418.578 209.007 418.625 208.023C418.666 206.974 418.642 205.931 418.554 204.893C418.465 203.855 418.258 202.958 417.932 202.202C418.164 201.855 418.355 201.414 418.505 200.879C418.585 200.284 418.633 199.692 418.648 199.102C418.663 198.513 418.645 197.926 418.596 197.342C418.611 196.753 418.664 196.226 418.755 195.761C418.434 195.069 418.155 194.472 417.916 193.97C417.671 193.403 417.516 192.73 417.45 191.952L417.391 191.271C417.946 190.112 418.401 188.93 418.755 187.724C419.109 186.517 419.494 185.276 419.907 183.999L419.882 183.707C419.722 181.826 419.496 179.95 419.206 178.08C418.916 176.21 418.691 174.334 418.53 172.453L418.372 170.604C418.317 169.956 418.297 169.337 418.312 168.747C418.809 168.444 419.167 168.054 419.388 167.577C419.609 167.101 419.968 166.711 420.464 166.408L423.675 166.134L424.176 165.111C424.343 164.77 424.443 164.402 424.474 164.007C425.171 163.752 425.83 163.434 426.451 163.054C427.131 162.604 427.747 162.16 428.298 161.721C429.161 161.124 429.934 160.601 430.614 160.151C431.354 159.63 432.069 159.21 432.76 158.89C433.511 158.499 434.3 158.17 435.127 157.904C435.953 157.637 436.913 157.392 438.004 157.168C438.523 157.124 438.839 156.999 438.952 156.793C439.13 156.582 439.37 156.333 439.673 156.046C440.462 156.109 441.252 156.172 442.041 156.235C442.825 156.234 443.606 156.2 444.385 156.134C445.942 156.001 447.376 155.584 448.689 154.884C450.635 154.718 452.545 154.522 454.421 154.297C456.362 154.066 458.305 153.868 460.251 153.702C461.938 153.558 463.63 153.479 465.327 153.464C467.025 153.45 468.698 153.536 470.348 153.722C470.915 153.478 471.555 153.325 472.269 153.264C473.047 153.198 473.834 153.229 474.629 153.357C475.484 153.415 476.294 153.345 477.062 153.149C477.188 153.857 477.402 154.46 477.706 154.956C478.069 155.383 478.278 155.92 478.334 156.569ZM529.371 202.2C529.465 203.303 529.256 204.301 528.744 205.194C528.291 206.016 528.18 207.006 528.409 208.163C527.545 208.759 526.857 209.504 526.346 210.397C525.834 211.29 525.357 212.213 524.916 213.165C520.872 216.32 516.458 218.951 511.672 221.058C506.956 223.225 502.003 224.529 496.814 224.972C496.489 225 496.184 224.863 495.897 224.56C495.615 224.323 495.331 224.053 495.043 223.751C494.756 223.449 494.437 223.149 494.085 222.853C493.803 222.615 493.468 222.513 493.078 222.547C492.624 222.585 492.276 222.713 492.033 222.93C492.022 222.8 492.011 222.67 492 222.541C492.059 222.47 492.083 222.37 492.072 222.24C492.006 221.462 491.839 220.659 491.573 219.833C491.312 219.071 491.148 218.301 491.082 217.522C491.004 216.614 491.103 215.854 491.377 215.243L492.545 215.143C493.193 215.088 493.807 215.003 494.385 214.888C495.023 214.703 495.698 214.58 496.412 214.519C497.125 214.458 497.791 214.598 498.408 214.937C501.964 214.503 505.282 213.566 508.361 212.128C511.499 210.618 514.673 209.139 517.882 207.689C518.34 206.931 518.565 206.128 518.558 205.279C518.61 204.36 518.798 203.494 519.121 202.683C517.312 201.399 515.499 200.443 513.681 199.814C511.923 199.115 509.919 198.992 507.671 199.445C506.237 198.718 504.736 198.356 503.168 198.359C501.665 198.357 500.124 198.292 498.545 198.165C498.15 198.134 497.723 198.105 497.263 198.079C496.863 197.982 496.436 197.953 495.982 197.992C495.657 198.02 495.341 198.145 495.034 198.367C494.785 198.519 494.74 198.752 494.897 199.065C494.529 198.574 494.05 198.32 493.46 198.305C492.93 198.22 492.454 197.999 492.032 197.643C489.945 197.69 488.098 197.489 486.491 197.038C484.879 196.522 483.099 195.955 481.152 195.337C480.616 195.187 480.086 195.101 479.562 195.081C479.096 194.99 478.626 194.834 478.149 194.613C476.932 194.129 475.925 193.431 475.128 192.519C474.332 191.607 473.689 190.583 473.2 189.449C472.641 188.255 472.209 187.018 471.903 185.737C471.598 184.456 471.301 183.273 471.012 182.187C471.508 181.099 471.968 179.982 472.393 178.835C472.753 177.693 473.042 176.492 473.261 175.232C473.634 175.004 474.009 174.809 474.387 174.646C474.766 174.483 475.173 174.285 475.611 174.051C475.535 173.927 475.489 173.768 475.472 173.573C475.444 173.249 475.514 172.916 475.681 172.575C475.913 172.229 475.95 171.899 475.793 171.586C477.109 170.166 478.358 168.72 479.539 167.248C480.779 165.704 481.814 164.048 482.643 162.278C483.589 161.871 484.325 161.318 484.854 160.619C485.382 159.921 485.911 159.222 486.439 158.524C486.962 157.76 487.558 157.089 488.228 156.509C488.891 155.864 489.769 155.43 490.861 155.206C491.082 154.73 491.408 154.343 491.84 154.045C492.266 153.681 492.695 153.351 493.127 153.053C493.559 152.754 493.956 152.426 494.318 152.069C494.679 151.711 494.932 151.232 495.077 150.632C496.115 150.543 497.039 150.269 497.849 149.807C498.724 149.341 499.564 148.844 500.368 148.318C501.173 147.792 501.98 147.299 502.79 146.837C503.665 146.371 504.622 146.093 505.659 146.005C505.919 145.982 506.181 145.993 506.446 146.035C506.706 146.013 507 146.021 507.33 146.058C507.823 146.473 508.162 147 508.347 147.637C508.591 148.205 508.777 148.842 508.902 149.55C509.028 150.258 509.121 150.969 509.182 151.683C509.308 152.391 509.493 153.028 509.738 153.595C509.248 154.748 508.693 155.906 508.074 157.07C507.519 158.228 506.715 159.146 505.662 159.824L505.468 159.84C505.019 159.944 504.589 159.883 504.178 159.657C503.767 159.43 503.302 159.339 502.783 159.384C502.458 159.411 502.207 159.531 502.029 159.742L501.584 160.27C501.465 160.411 501.282 160.557 501.033 160.709C500.85 160.855 500.558 160.88 500.158 160.784C499.277 161.185 498.968 161.767 499.229 162.529C498.007 162.764 497.002 163.242 496.214 163.962C495.421 164.618 494.701 165.366 494.054 166.205C493.401 166.979 492.745 167.721 492.087 168.431C491.424 169.076 490.608 169.472 489.64 169.62C488.704 171.66 487.488 173.495 485.994 175.126C484.564 176.751 483.411 178.548 482.533 180.518C482.772 181.02 482.949 181.56 483.064 182.138C483.178 182.717 483.328 183.325 483.513 183.962C484.164 184.691 484.903 185.314 485.731 185.831C486.624 186.343 487.485 186.858 488.313 187.375L488.605 187.35C489.902 187.24 491.125 187.397 492.272 187.822C493.413 188.182 494.6 188.309 495.833 188.204C496.481 188.148 497.022 187.972 497.454 187.673C499.173 187.919 500.855 188.102 502.499 188.223C504.208 188.339 505.911 188.389 507.609 188.375C508.463 188.433 509.312 188.426 510.155 188.354C511.063 188.276 511.915 188.302 512.71 188.43C513.44 188.564 514.176 188.762 514.917 189.026C515.653 189.224 516.391 189.455 517.132 189.719C518.68 190.24 520.135 190.835 521.499 191.502C522.928 192.165 524.208 193.003 525.34 194.017C526.466 194.966 527.382 196.13 528.088 197.507C528.788 198.819 529.216 200.384 529.371 202.2Z" fill="#282D31"/>
</svg>
