<svg version="1.2" xmlns="http://www.w3.org/2000/svg" viewBox="0 0 1500 1000" width="1500" height="1000">
	<title>8218621-ai</title>
	<style>
		.s0 { fill: #ff6b6b } 
		.s1 { fill: #00cc72 } 
		.s2 { fill: #ffc4c4 } 
		.s3 { fill: #4d96ff } 
		.s4 { fill: #474744 } 
	</style>
	<g id="OBJECTS">
		<g id="&lt;Clip Group&gt;">
			<path id="&lt;Path&gt;" class="s0" d="m1863.8 988.6c-15.7 54.7-153.4 81.1-222.2 94.7-68.8 13.6-220.4 27.7-253.5-9.3-33.2-37.1-90.9-120.4-56.4-199.2 34.4-78.8 354.5-100.5 354.5-100.5 211.9-8.2 193.4 159.7 177.6 214.3z"/>
			<path id="&lt;Path&gt;" class="s1" d="m1366.1-86.3c13.7-134.6 154.7-207.6 252.5-194.5 97.7 13.2 175.2 127.9 98.2 254.3-76.9 126.4-39.1 120.1-85.1 263.5-45.9 143.4-210.3 45.7-210.3 45.7-81.7-61.3-69-234.5-55.3-369z"/>
			<path id="&lt;Path&gt;" class="s2" d="m90.6 171.1c-135 6.9-228.7-121.3-230.6-220-1.9-98.6 99.8-192.6 236.4-135.8 136.7 56.9 124.7 20.5 273.4 44 148.7 23.6 77.2 201 77.2 201-48.2 90.1-221.3 103.8-356.4 110.8z"/>
			<path id="&lt;Path&gt;" class="s3" d="m355.1 1130.2c-6.2 1.2-137.4 161.2-294.1 82.1-126.1-63.7-138.8-148.7-115.9-219.7 23-71.1 112.4-131.9 217-128.7 104.6 3.3 203 79.6 217.7 125.3 22.4 69.7-24.7 141-24.7 141z"/>
			<g id="&lt;Group&gt;">
				<path id="&lt;Compound Path&gt;" fill-rule="evenodd" class="s4" d="m1337.8 127.6c6.1 8.6 6.3 18.3 3.8 28.1-1.2 4.9-2.4 10.1-4.5 14.7-2.1 4.5-5.2 8.3-8.7 11.7-7.6 7.5-17.3 12.7-27.5 15.7-9 2.5-18.6 3.2-27.2-0.8-15.9-7.4-23.8-25.2-22.2-42.1 0.8-9.1 4.2-17.9 9-25.8 4.2-7.1 10-14.8 18.2-17.1 4.9-2 9.9-3.5 15.1-4.6 5.6-1.2 10.4-0.6 15.7 1.6 10.5 4.3 21.5 9.2 28.3 18.6zm-10-1.5c-6.5-5.6-15.1-9.5-23.1-12.2-4.5-1.6-9-0.6-13.5 0.6q-3.3 0.8-6.5 2c-0.4 0.6-1.1 1.1-2.2 1.2q-1 0.1-1.9 0.3-1.5 0.7-3.1 1.3-0.3 0.2-0.5 0.2c-6.3 3.7-10.9 11.7-13.8 17.7-3.7 7.6-6.1 16.1-5.6 24.6 0.7 13.6 9.6 27.9 23.5 31.1 8.6 2 17.6-0.5 25.5-3.8 8-3.5 15.6-8.6 21.1-15.5 5.3-6.7 7.6-16.2 8.9-24.6 1.3-9-1.8-16.9-8.8-22.9z"/>
				<path id="&lt;Compound Path&gt;" fill-rule="evenodd" class="s4" d="m1525 226.4c0.9 4.2 2.2 11.2-4.5 11.1-4.9 0-9.3-5.1-12.4-8.5-3.9-4.4-7.1-9.5-10.7-14.2-3.4-4.5-7.4-8.6-11.7-12.3-9-7.5-19.3-13.3-29.8-18.2-10.5-4.9-21.3-9.1-32.6-11.2-0.6 0.8-1.2 1.6-2 2.4-2.7 2.4-5.8 4.4-8.9 6.4 0.6 5.6 3.2 10.7 1.6 16.5q0 0 0 0 0.6 0.3 1.1 0.8c15.6 16.2 31.1 32.6 42 52.4 0.9 1.6-0.4 3.4-1.8 4.1-9.6 4.7-19.4 2.1-28.4-2.6 3.7 5.5 7.9 10.6 11.8 15.9 3 4.1 5.8 8.3 8.2 12.8 1.8 3.4 4.6 8 3.5 12.1-2.5 9.2-16.4 3.2-21.3-0.2-6.2-4.3-10.7-10.6-16.2-15.7 0.2 0.5 0.4 1 0.5 1.4q1.3 3.4 2.5 6.9 2.5 7.2 5.1 14.3c1.2 3.6 4 8.5 2.6 12.4-1.2 3.4-4.9 4.5-8.2 4.3-7.7-0.4-14.9-5.6-20.8-10.2-3-2.4-5.9-4.9-9-7.3-2.2-1.7-4.8-4-7.7-4.8 0.3 1.8 1.2 3.6 2 5.3q1.8 4 3.5 8 3.5 8.4 6.6 17c1.3 3.4 3.1 7.5 1.3 11-1.8 3.5-6.2 4.5-9.8 4.2-7.8-0.4-13.8-6.6-19.1-11.7q-11.2-11-21.8-22.5-1.5-1.6-2.9-3.2c-0.5-0.5-2.1-2.1-1.8-2.2-1.1 0.3-2.6 5-3 6.1-2 4.5-3.8 9.1-5.2 13.9-0.6 1.8-2.7 2-4.2 1.6-9.4-2.8-13-13.5-16-21.9-3.8-10.7-6.7-21.7-8.8-32.9-2.9 0.3-5.8-0.3-8.4-2.5-3.6-3-6.3-7.5-8.7-11.7q-1.8 0.9-3.5 1.8c-4.5 2.1-9.5 5.6-14.7 5.5 1.3 25.4 6.9 50.4 16.8 73.9 2.3 5.5 4.9 10.8 7.5 16.1 2.3 4.9 5.2 10.3 6.1 15.8 0.6 4.1-1.5 8.3-6.1 8.5-4.8 0.2-9.4-4.3-13-6.9-9.7-6.9-20-13.4-28.8-21.3-8.7-7.8-14.3-17.6-20.1-27.6q-4.6-7.9-9.1-15.9c-2.9-5.2-5.9-10.4-7.9-16-1.9-5.6-2.7-11.5-3.5-17.4-0.7-5.7-1.4-11.4-1.7-17.2-1.1-19.1 2.1-39.5 15.8-53.7-7.9-15.3-13.4-31.5-15.2-48.9-0.5-4.2-0.7-8.3-0.7-12.5-1.6-0.9-2.5-2.8-0.9-4.4q0.5-0.5 0.9-0.9c0.6-32.2 12-64.2 31.4-89.9 0.4-0.5 0.9-0.8 1.4-1q0-0.1 0.1-0.2-0.3-0.4-0.4-0.9c-1.1-3.9-4.5-6.4-6.9-9.5-2.2-2.9-4-6.2-5.3-9.7-2.3-6.3-2.9-13.1-1.7-19.6-1.9-0.2-3.7-0.4-5.5-0.9-2.7-0.8-5.5-1.8-7.1-4.3-1.5-2.4-1.6-5.4 0.2-7.7 1.4-1.9 3.7-3.4 5.7-4.7 2.2-1.3 4.6-2.5 7-3.4 2.3-0.8 4.7-1.3 7.1-0.5 4.6 1.5 5.8 7.7 4.7 11.9-0.8 3.2-2.7 6.1-5.4 8-1.7 6.7-1.3 13.7 1.4 20.1q1.9 4.7 5.2 8.6c2.6 2.9 5.4 5.6 6.5 9.4q0.1 0.6 0.1 1.1c4.7-0.8 9.4-1.4 14.2-1.7 11.3-0.7 22.3 0.3 32.9 4.5 10.4 4.1 20.3 9.4 30.1 14.8 19.7 10.8 38.5 23.5 55.2 38.6 0.8 0.8 1.7 1.7 2.6 2.5 12.6-6 25.8-12.2 40-12.9 13-0.7 24.5 3.6 34.2 12.2 9.5 8.6 18.2 18.2 27.1 27.4 9 9.2 17.1 18.9 23.4 30.3 12.3 22 18.3 46.9 23.3 71.5zm-106.5-58.4c-0.1-2.2-1.7-4.7-2.6-6.6-4.4-9.7-9.7-19-15.9-27.7-12.4-17.6-27.7-32.8-44.6-45.9-8.3-6.4-16.9-12.3-25.8-17.7-0.4 0.6-1.1 1-2 1.2-23.3 3.4-44.9 14-65.9 24.1-20 9.7-36.2 24.3-51.9 39.6-0.1 8.5 0.7 17 2.2 25.3 2.5 12.8 7.2 24.6 13 35.9 1.1 0.7 1.9 2 1.8 3.3 3 5.6 6.3 11.1 9.7 16.6 6.1 9.8 12.4 19.5 18.6 29.2 1.9 3.1 4.6 9.5 9.1 9.1 2.3-0.2 4.6-1.6 6.6-2.6q3.9-1.9 7.7-3.7c41.1-20.1 82.1-40.5 120.7-65.2q7.2-4.6 14.2-9.4c1.9-1.3 5.1-2.9 5.1-5.5zm-29-57.4q1.9 2.1 3.7 4.2-1.5-2.3-3-4.5-0.3 0.2-0.7 0.3zm101.8 39.2c-6.8-10.1-15.3-18.6-23.7-27.2-8-8.1-15.6-17.3-24.8-24.1-11.5-8.5-24.6-8.5-37.3-5.1 3.6 5.3 6.5 11.2 9.5 16.9q5.3 9.8 10.5 19.8 10.7 20.4 20.8 41c0.5 0.9 0.5 1.6 0.2 2.2q5.8 2.3 11.4 5c10.6 4.9 21 10.6 30.1 17.9 8.4 6.9 14.5 15.1 21 23.7 1.5 2.1 3.1 4.2 4.9 6.1q1.5 1.6 3.2 3 0.6 0.5 1.2 0.9c0.3 0.3 1 1.1 1.3 1.3 0-0.1 0-0.1-0.1-0.2q-0.1-0.6-0.2-1.1-0.2-1.2-0.4-2.3-0.4-2-0.9-4-0.8-4-1.7-8c-5.1-22.9-11.9-46.1-25-65.8zm-56.3 19.6q2.1 0.6 4.1 1.3-1.1-2.2-2.2-4.3-0.3 0.5-0.8 0.8c0 0.9-0.5 1.7-1.1 2.2zm-53.2-66.8q1 1 2 2c0.4-1.6 1.1-3 2.2-4q-2.1 1-4.2 2zm-168.9 3q1.9-1.7 4-3.3 0.4-0.4 0.7-0.8c-0.6-1.2-0.5-2.8 0.8-3.9q3.8-3.2 7.8-6.1 1.1-1.4 2.3-2.6c-3.5 1.6-7.1 3.2-10.8 4.7-0.7 0.3-1.3 0.2-1.8 0.1q-1.8 5.9-3 11.9zm16.7-43.8q1-1.1 2-2.1-0.3-0.1-0.6-0.2-0.7 1.2-1.4 2.3zm15.6-8.4q2.5-1.5 4.9-2.9-1.8 0.2-3.6 0.5c0 0.6-0.2 1.1-0.5 1.5q-0.4 0.4-0.8 0.9zm21.3 24.7q0.8-0.3 1.5-0.6 1.4-0.7 2.8-1.5 4.1-2.2 8.3-4.3c-0.9 0.2-1.9 0.4-2.8 0.7q-4.9 2.9-9.8 5.7zm31.7-19.3c-3.4-1.1-6.9-2-10.4-2.7-3.1-0.6-6.2-1-9.2-1.3-12.7 5.9-24.9 12.7-36.5 20.5q4.9-2.4 9.8-4.8c6-2.9 12.1-5.7 18.3-8.2 5.8-2.2 11.9-4.6 18.1-4.8 1.4 0 2.5 0.7 3.1 1.7 2.2-0.3 4.5-0.5 6.8-0.4zm-38.8-3.1q0.8-0.4 1.5-0.7-0.3-0.1-0.6-0.3-0.4 0.5-0.9 1zm-47.5 55.2q-0.5 2.8-0.9 5.7 2.1-2.6 4.4-5c-1.4 0.6-2.7 0.2-3.5-0.7zm4.1 9.6c8.5-7.9 17.4-15.3 27.1-21.6q-1.5 0.8-2.9 1.6c-0.9 0.6-1.9 0.6-2.7 0.3-7.9 5.6-15.2 12.1-21.5 19.7zm81.5-47.8c8.1-2.9 16.3-5.3 24.8-6.9q-3.5-2.1-7.1-4 0.2 0.3 0.4 0.6c1.4 2.1 0.3 4.5-2.2 5-3.9 0.8-7.8 1.2-11.7 1.4q-2.3 0.8-4.6 1.7c0.4 0.7 0.5 1.5 0.4 2.2zm-44.9-28.7c5.8-0.2 11.6 0.8 16.4 4q4.1 0 8.2 0.3 1.1-0.4 2.2-0.9c1.8-0.6 3.2 0.3 3.8 1.6q3.9 0.5 7.6 1.3 1.5 0.3 3.1 0.7c-6.9-3.3-14-6.1-21.7-7-6.4-0.7-13-0.6-19.6 0zm-33.7 40.7q1.2-1 2.3-1.9c-0.4-1-0.4-2.1 0.6-3q0.3-0.3 0.6-0.6 0 0-0.1 0 0.2-0.1 0.3-0.2c3.5-3.3 7.2-6.3 11.1-9.1q3.1-2.6 6.2-5.2 0.9-0.8 1.9-1.7c-4.9 3.3-9.7 6.7-14.5 10.2-1.1 0.8-2.5 0.6-3.5-0.1q-2.7 5.7-4.9 11.6zm48.9 234.8c-4-12.2-6.9-24.7-8.7-37.4-0.6 0-1.1-0.2-1.7-0.5-20.4-12.5-33.9-32.5-46.2-52.5-2 10.8-1.6 22.3-0.5 32.8 1.2 11 2.5 21.6 7.7 31.5 5.1 9.9 10.9 19.4 16.5 29 5.4 9.1 11.3 16.9 19.6 23.5 8.4 6.6 17.4 12.6 26.1 18.8 1.4 0.9 4.6 4.3 6.4 4.1 1.5-0.2-0.3-4.2-0.7-5.2-1.8-5.1-4.3-10-6.6-14.8-4.7-9.5-8.7-19.3-11.9-29.3zm-33.3-80.3q0.1 0.1 0.3 0.3-2.6-3.9-5.1-7.8 1.9 3.2 4 6.3 0.4 0.6 0.8 1.2zm-8.2-27.7c0.3 0.7 0.2 1.3 0 1.9q0.8 1.4 1.6 2.8 0.5-0.2 1.1-0.2-1.3-2.2-2.7-4.5zm21.5 34.2q-2-3.2-4-6.3c-3-4.7-6-9.4-9-14.1q1.7 3.6 3.6 7.1 4.8 6.6 9.4 13.3zm-25.3-40.8c-0.5 0.5-0.9 1.1-1.4 1.7 0.8 0 1.6 0.4 2.2 1q1.2 1.5 2.4 2.9-0.8-1.3-1.5-2.6c-0.6-1-1.1-2-1.7-3zm-9.1 15.8q1.1 1.8 2.3 3.7c0.7-0.7 1.7-1.1 2.7-0.7-1.1-2.2-2.8-5.2-3-7.9q-1.1 2.4-2 4.9zm43.6 37.5q-1.1-0.8-2-1.9c0.7 1.9-0.5 3.7-2.1 4.2q0.3 0.7 0.6 1.4 1.4 1.8 2.6 3.7c1.9 2.8-1 5.8-3.7 4.7q2.8 2.2 5.8 4.3-0.9-8.2-1.2-16.4zm38.9 3.1c2.7 1 6.1-0.9 8.5-1.9q4.6-1.8 9.1-3.8c21.2-9.3 41.3-20.7 61-32.9 9-5.6 18.6-11 26.9-17.6 3.1-2.5 6.3-5.7 6.8-9.8 0.4-3.3-0.7-6.5-1.5-9.8q-7.7 5-15.6 9.9c-20.8 12.7-42.2 24.3-63.8 35.4-10.9 5.6-21.8 11-32.8 16.4q-3.6 1.8-7.2 3.6 1.6 2.6 3.3 5.1c1.4 1.9 3 4.6 5.3 5.4zm115.2-57.2c-1.6 2.3-3.7 4.3-5.9 6-4.6 3.6-9.6 6.6-14.5 9.7q-8.2 5.3-16.7 10.5c-11.1 6.8-22.3 13.4-33.9 19.4-11.4 6-23.2 11.6-35.3 16.3 1.9 10.2 4.4 20.2 7.8 30 2.1 6.3 4.4 15.3 10.4 19.3 1.4-4.3 2.9-8.4 4.8-12.4 1.7-3.6 4-9.4 9-8.4 3.8 0.7 6.8 5.8 9.2 8.4q5.4 5.8 10.8 11.4 5.6 5.7 11.3 11.2c2.7 2.7 5.5 5.4 8.9 7.2 1.8 1 9.3 3.4 8.7-0.7-0.4-2.3-1.6-4.6-2.4-6.8q-1.3-3.5-2.7-7-3-7.6-6.3-15.1c-1.7-3.8-3.5-7.5-2.7-11.8 0.3-1.5 1.4-2.4 2.8-2.7 7.3-1.3 13.8 5.1 18.9 9.3 5.8 4.7 11.5 9.8 18.7 12.2 0.9 0.4 4.2 1.7 5.2 0.8 1-0.8-0.9-4.5-1.3-5.7q-2.3-6.6-4.7-13.2c-1.6-4.4-3.3-8.8-4.7-13.3-0.9-3.1-1.2-6.5 1.1-9 1.3-1.3 2.9-1.5 4.4-0.5 6.8 4.5 11.3 11.2 17.3 16.5 2.7 2.5 5.8 4.8 9.4 5.9 1 0.3 4.4 1.4 5.3 0.6 1-0.8-0.9-3.8-1.3-4.6-6.9-15.4-20.3-26.8-27.4-42.2-1.5-3.1 2.5-5.2 4.9-3.6 8.5 5.7 19 12.2 29.4 9.3-10.3-17.5-24.4-32.4-38.5-47zm-18.4-106.3q-1.5 0.6-2.9 1.2c0.7 0 1.3 0.2 1.9 0.5q0.5-0.8 1-1.7zm30.9 65.4q0.7 1.9 0.9 3.7 2.8 0.5 5.4 1.2-0.8-1.3-1.5-2.6c-0.9 0-1.7-0.3-2.3-1.2q-3.1-4.5-6.1-9.1 1.9 4 3.6 8z"/>
				<path id="&lt;Compound Path&gt;" fill-rule="evenodd" class="s4" d="m1317.8 128.7c5.1 5.2 6.9 13 7.8 20.1 0.9 7.1 0.3 14.8-4.1 20.8-4.6 6.3-12.6 9.6-19.8 11.7-7.1 2-15 2.9-21.7-0.6-6-3.1-10.3-8.9-12.2-15.3-4.5-14.7 3.1-29 12.8-39.5 1.2-1.3 2.9-1.3 4.1-0.6 3.5-1.8 7.6-2.6 11.6-2.7 7.3-0.1 16.1 0.6 21.5 6.1zm-4.9 11.3q0 0.7-0.1 1.3c0.2-0.3 0.3-0.6 0.5-0.9q0.3-0.5 0.7-0.7-0.1-0.2-0.3-0.4-0.3 0.4-0.8 0.7zm-1.2 30.1c1.7-1.1 3.2-2.4 4.4-4-0.7-0.4-1.3-1.2-1.6-2.3-0.1-0.6-0.2-1.3-0.3-1.9-0.5 2.8-1.2 5.6-2.5 8.2zm-21.4-40.4c-0.5 0.2-0.9 0.4-1.4 0.6 1 0.5 1.7 1.6 1.5 3.1q-0.2 0.7-0.3 1.5c0.5-1 0.9-2.1 1.5-3.1 1.7-2.9 6.7-2 6 1.8-0.3 1.8-0.6 3.6-0.9 5.4 0.6-2.1 1.3-4.2 2.1-6.2 1.4-3.3 6.7-1.8 6.1 1.7-0.5 2.4-0.8 4.8-1.2 7.2 1.1-2.6 2.3-5.2 4-7.6 1-1.5 2.5-1.5 3.8-0.8q0.7-0.3 1.5-0.4c-0.8-0.7-1.6-1.4-2.6-1.9-3.1-1.5-7-1.8-10.4-2-3.2-0.3-6.6-0.2-9.7 0.7zm-9.4 44.1q0-0.3 0-0.6-0.3 0.1-0.5 0.2 0.2 0.2 0.5 0.4zm3-40.2c-0.4 0.4-0.7 0.7-1 1.1q0.3 0.2 0.6 0.5 0.2-0.8 0.4-1.6zm2.7 42.8q0.6 0.1 1.2 0.2c0-0.1-0.1-0.2-0.1-0.3q0-0.6 0-1.1-0.4 0.7-1.1 1.2zm7.4 0.2q0.1 0 0.2 0 0-0.2-0.1-0.3-0.1 0.1-0.1 0.3zm12.3-3.7c-0.8-0.4-1.3-1.1-1.3-2.3q0.1-6.6 0.4-13.3c-1.3 6-2.5 12.1-4.8 17.7q1.7-0.5 3.3-1.1 1.2-0.4 2.4-1z"/>
			</g>
			<g id="&lt;Group&gt;">
				<path id="&lt;Compound Path&gt;" fill-rule="evenodd" class="s4" d="m1133.7 1002.9c-5.7 2.5-12.3 3.1-18.4 4.1q-10 1.9-20.1 3.7c-13.8 2.4-27.6 4.6-41.5 6.4-51.5 6.5-106.2 5.7-153.4-18.4-21.1-10.8-40-26.5-53.6-45.9-6.9-9.7-12.4-20.2-16.2-31.5-3.8-11.4-6.4-23.9-4.5-35.9 2.1-12.9 8.5-25.3 15.1-36.5 4.5-7.5 10-14.6 16.8-20.1-0.5-0.5-0.8-1.2-0.7-2.1 1.5-17.8 4.6-35.3 9.1-52.6-5.5-2.2-10-7.2-12.6-12.3-1.7-3.2-2.4-6.8-1.6-10.3 1-4.1 4.1-7.3 7.7-9.3 3.6-2 7.7-2.6 11.7-2.7 3.9-0.2 7.9 0.2 11.5 2.1 3.4 1.7 6 4.8 6.8 8.5 0.8 3.6-0.3 7.3-1.4 10.7-1.4 4-3.4 7.2-7.2 9.3-1.8 1-3.8 1.7-5.8 2.2-0.1 1.3-1 2.8-2.5 2.9q-0.3 0.1-0.7 0.1c-4.3 16.2-7.2 32.8-8.8 49.6q1.9-1.1 3.9-2.1c10.2-4.7 22.2-5.5 32.9-2 5.7 1.9 11 5.1 14.7 9.9 10.7-11.7 18.7-25.7 23.4-40.8-6.7-3.4-11.6-10.5-10.5-18.3 0.6-3.8 2.3-7.5 5.4-10 3-2.4 6.8-3.7 10.6-4.3 3.8-0.6 7.8-0.8 11.5 0.4 3.4 1.2 6.5 3.6 8.5 6.6 4.3 6.6 3.3 15-2.1 20.7-4.5 4.7-10.8 5.3-16.9 4.8q-0.1 0.2-0.2 0.3 0 0.1 0 0.1c-5.1 17.2-14.3 32.8-26.6 45.8 1.8 3.9 3 8 3.9 12.1 5 22.3 1.2 46.2 9.5 67.8 6 15.7 17.9 27.3 31.3 37.2-14.1-21.6-17.5-49.5-10.7-74.6 4.7-17.5 13.8-33.8 25.7-47.3 11.4-13 26-24 43.3-27.2 17.5-3.3 36.6 0.7 52.9 7.2 16.2 6.4 31.2 16.2 42.7 29.4 5.8 6.6 10.8 14.1 14.4 22.1 3.8 8.6 4.8 16.9 3.2 26.2-1.6 9.7-4.1 19.4-7.3 28.8-3.1 9.5-6.6 19.1-11.6 27.9-4.3 7.7-10.5 14.4-18.8 18q-0.1 0-0.2 0.1c1 0.8 1.4 2.3 0.4 3.7-0.4 0.5-0.8 1-1.3 1.5q2.5-0.5 5.1-0.8c11.7-1.1 26.5 0 35.7 8.1 8.6 7.6 8.8 21.6-2.5 26.7zm-266-234.5c0.4-0.6 1-1 1.9-1.1 3.1-0.5 6.3-1 9-2.6 2.7-1.6 3.6-4.3 4.5-7.1 0.7-2.2 1.4-4.7 0.6-6.9-0.8-2.4-3.1-3.9-5.3-4.6-2.7-0.9-5.8-0.8-8.6-0.5-2.8 0.2-5.8 0.8-8.2 2.5-2.2 1.5-3.9 3.8-3.8 6.5 0 2.3 1 4.4 2.3 6.2 1.7 2.6 4.4 6 7.6 7.6zm116.1 198.7q0.3 0.1 0.6 0.3 0.4 0.3 0.7 0.7c5.7 4.3 12.1 7.7 19.1 10.2 14.4 5 30 5.9 45 3.9 7.6-1 15.3-2.7 22.5-5.3 6.9-2.4 13.7-5.7 18.6-11.2-5.4 1.4-11.1 1.9-16.7 1.7-8.5-0.1-16.9-1.6-25.2-3.3-9.5-2-18.9-4.9-27.3-9.7-13.5-7.9-24.3-21.3-27.7-36.7-2-9-0.7-18.1 1.1-27 2-9.8 4.7-19.4 9.4-28.2 7.9-14.7 23.1-26.7 40.5-25.3 17 1.3 31.9 13.7 40.4 27.9 9 14.9 10.7 34.5 1.1 49.6-8.8 14-26.7 20.9-42.4 14.8-7.6-3-16.4-8.6-18.9-16.8-2.3-7.3 0.8-15.2 5.2-21 4.5-5.9 11.6-10.9 19.3-8.6 8.9 2.6 12.1 12 14.4 20 1.1 3.7-4.9 4.8-5.9 1.1-1.8-6.3-5.3-17.2-13.9-15.6-6.4 1.2-11.3 8.6-13.1 14.3-2.6 8.5 2.7 14 9.5 18.2 13.2 8 29.8 5.1 39.2-7.3 9.9-13.2 8.7-31.1 0.8-44.9-7.3-12.9-21.1-24.8-36.6-25.8-15.6-1-28.4 10.7-35.1 23.8-4.2 8.1-6.5 17.1-8.3 26-1.5 8-2.5 16-0.7 24.1 7.3 32 43.1 42.8 71.9 44.3 7.1 0.4 14.4 0 21-2.5 7.4-2.8 12.9-8.1 17-14.7 4.6-7.6 7.7-16.3 10.7-24.6 3-8.5 5.4-17.1 7.2-25.8 1.8-8.6 2.9-16.7-0.3-25.1-2.7-7.2-6.7-14-11.5-20-9.5-12.3-22.2-22-36.2-28.6-14.3-6.8-30.4-11.2-46.2-11.1-16 0-30.2 6.8-42 17.3-23.4 20.7-38.9 53.4-36.3 84.9 1.8 22.1 12.2 42.7 29.1 56zm-44.3-183.5c0.4-0.2 0.8-0.3 1.3-0.2 5.7 0.8 13 1.8 17.2-3.2 3.3-4.1 3.4-9.7 0-13.7-3.8-4.3-9.7-4.1-14.9-3-2.6 0.6-5.2 1.6-7 3.6-1.7 1.9-2.4 4.4-2.4 6.9 0 4.1 2.5 7.5 5.8 9.6zm195.8 201.1c-2.8-5.8-9.6-8.2-15.5-9.6-11.2-2.5-23.1-1.5-33.8 2.6-0.6 0.2-1.1 0.2-1.6 0.1-2.7 1.6-5.7 2.9-8.7 4-31 11.5-70.2 10.9-96.8-10.7q-0.1-0.1-0.3-0.2c-4-2.6-8.1-5.1-12.1-7.8-18.9-12.8-36.3-28.6-42.8-51.3-5.7-20.4-3.1-42-7.7-62.5-0.7-2.9-1.4-5.9-2.5-8.8-2.8 1.8-6.1-2.4-3.5-4.9q0.3-0.3 0.6-0.6-0.4-0.7-0.9-1.3c-4-4.9-10.4-7.4-16.4-8.4-10.9-1.9-22.1 0.8-30.8 7.4-9.6 7.4-16 18-21.4 28.6-5.7 11.3-10.3 22.9-9.6 35.7 1.3 22.2 12.3 43.8 26.4 60.6 14.3 17.2 32.9 30.7 53.4 39.7 45.5 20.2 96.7 19.8 145.1 13.4 12.6-1.7 25.2-3.7 37.7-5.9q9.8-1.8 19.6-3.6c5.6-1 12.1-1.4 17.4-3.7 5.3-2.4 6.8-7.7 4.2-12.8z"/>
				<path id="&lt;Path&gt;" class="s4" d="m932.1 956.6c0.1 0.8-0.1 1.6-0.5 2.2-0.4 0.7-1.2 1.2-1.9 1.3-0.7 0.2-1.7 0-2.3-0.4-2.1-1.6-3.8-3.7-4.8-6.2-0.3-0.7-0.4-1.5-0.1-2.3 0.2-0.7 0.8-1.3 1.5-1.7 0.7-0.3 1.6-0.4 2.3-0.1 0.7 0.2 1.4 0.8 1.7 1.5q0.4 0.9 0.9 1.7 0.7 1 1.5 1.7 0.2 0.2 0.4 0.4 1 0.7 1.3 1.9z"/>
				<path id="&lt;Path&gt;" class="s4" d="m892.1 958c-1.1 1.1-3.3 0.9-4.2-0.3-2.9-3.7-5.3-7.7-7.1-12-0.7-1.6-0.1-3.2 1.4-4 1.4-0.8 3.4-0.1 4 1.4q1.3 3 2.9 5.8 0.4 0.6 0.8 1.3c0 0 0.1 0.1 0.2 0.2q0.2 0.4 0.4 0.8 0.9 1.3 1.9 2.6c1.1 1.3 0.9 3.1-0.3 4.2z"/>
				<path id="&lt;Path&gt;" class="s4" d="m947.1 989.1c-0.2 0.8-0.8 1.4-1.5 1.8-0.7 0.3-1.6 0.3-2.3 0.1-0.8-0.3-1.3-0.8-1.7-1.5q0.2 0.3 0.3 0.5-0.4-0.6-1-1.2-0.4-0.3-0.8-0.5-0.6-0.3-1.2-0.4c-0.4-0.1-0.9-0.1-1.4-0.1q0.3 0 0.5 0c-0.8 0-1.5-0.1-2.2-0.5-0.7-0.4-1.1-1.2-1.3-1.9-0.1-0.8 0.1-1.7 0.5-2.3 0.4-0.6 1.2-1.2 1.9-1.2 1-0.1 1.9-0.2 2.8 0 1.1 0.2 2 0.5 3 1 0.9 0.4 1.6 0.9 2.3 1.6 0.8 0.7 1.4 1.4 2 2.4 0.4 0.6 0.3 1.5 0.1 2.2z"/>
				<path id="&lt;Path&gt;" class="s4" d="m977.3 988.7c-0.3 0.7-0.9 1.4-1.6 1.7-0.7 0.4-1.5 0.3-2.3 0.1q-0.3-0.1-0.7-0.1-2.3-0.5-4.6-0.5c-0.8 0-1.6-0.4-2.1-1-0.5-0.6-0.7-1.4-0.7-2.2 0-0.7 0.5-1.6 1-2.1 0.7-0.5 1.4-0.7 2.2-0.7 2.3 0 4.6 0.4 6.9 0.9 0.7 0.2 1.4 0.9 1.7 1.6 0.4 0.7 0.4 1.5 0.2 2.3z"/>
				<path id="&lt;Path&gt;" class="s4" d="m1099.8 992.9c0.2 0.8-0.1 1.7-0.5 2.3-0.4 0.6-1.1 1.1-1.9 1.2q-3 0.5-6.1 0.9-1.2 0.2-2.3-0.5c-0.6-0.4-1-1.1-1.2-1.9-0.2-0.7 0-1.6 0.4-2.2 0.5-0.6 1.2-1.2 2-1.3q3-0.4 6.1-0.9 1.2-0.1 2.2 0.5c0.7 0.4 1.1 1.2 1.3 1.9z"/>
				<path id="&lt;Path&gt;" class="s4" d="m1021.4 1005.3q-0.1 0.6-0.6 1-0.3 0.5-0.9 0.7-0.5 0.3-1.1 0.3-0.6 0.1-1.2-0.1-0.2-0.1-0.4-0.2-0.1 0-0.1 0-0.2 0-0.4 0.1-0.5 0.1-1 0.1-0.4-0.1-0.7-0.2-0.8-0.2-1.4-0.9-0.2-0.3-0.4-0.6-0.3-0.5-0.2-1.1-0.1-0.6 0.1-1.2 0.2-0.6 0.6-1 0.4-0.5 0.9-0.7 0.5-0.2 1.1-0.4 0.2 0 0.3 0c0.4-0.1 0.7-0.1 1.1-0.1q0.2 0 0.4 0c0.4 0 0.9 0.1 1.4 0.2q0.3 0.1 0.7 0.3 0.7 0.2 1.3 0.9 0.2 0.3 0.4 0.6 0.3 0.7 0.3 1.5-0.1 0.4-0.2 0.8z"/>
				<path id="&lt;Path&gt;" class="s4" d="m895.2 914.9c-5.4 11.3-21.7 11.2-29 1.8-3.9-5.1-3.6-11.5-3.5-17.5 0-6.4 0.8-12.6 3.7-18.3 0.8-1.5 3-1.6 4.2-0.8 1.5 1 1.5 2.7 0.8 4.1-3 6-2.8 13-2.7 19.5 0.1 2.8 0 5.8 1.6 8.3 1.4 2.4 4 4.1 6.6 5 5.1 1.6 10.8 0.1 13.1-5 1.5-3.4 2.3-7.2 3.4-10.7q1.7-5.5 3.4-11c1.1-3.7 6.8-1.8 5.7 1.9q-1.8 5.9-3.6 11.7c-1.1 3.7-2 7.5-3.7 11z"/>
			</g>
			<g id="&lt;Group&gt;">
				<path id="&lt;Compound Path&gt;" fill-rule="evenodd" class="s4" d="m409.7 212.5c-5.4 16.8-16.6 31.9-31.8 41-9.8 5.8-20.9 8.9-32 11-12.5 2.4-25.2 3.9-37.8 4.8-22.4 1.7-45 2.6-67.4 0.9-20.9-1.5-41.7-5.4-60.9-14.1-19.1-8.5-35.3-22-47.3-39-27-38.1-30-87.3-19.6-131.6 5.4-23.2 14.4-44.7 28.9-63.7 6.8-8.9 14.4-17.3 22.2-25.4 7.9-8.2 15.8-16.4 24.1-24.1 8.4-7.8 17.5-14.8 28-19.5 10.5-4.7 21.7-7.3 33.1-8.8 22.8-3 46.7-3.4 69.4 0.8 21.4 4.1 44 12.8 57.4 30.7 12.5 16.5 16.5 37.5 27.1 55.1 0.7 1 0.5 2 0 2.8 0.5 4.4-2.9 7.9-7.3 8.2-5.2 0.3-10.8-2.8-15.3-4.8-22.2-9.3-44.5-22.7-69.5-21.5-20.7 1-37.2 14.7-46.6 32.5-11 21-10.9 45.6-7.7 68.5 1.6 11.3 3.2 23.5 7.5 34.2 4.4 11 13.4 17.6 23.4 23.2 19.7 11.1 43.1 18 65.9 14.5 10.2-1.6 20.1-5.1 28.9-10.6 4.3-2.7 8.2-5.9 11.7-9.6 3-3 6.2-8.7 11.2-6.4 4 1.9 5.1 7.8 6.1 11.7 1 4.2 1.6 8.7 1.8 13.1 0.4 8.8-0.8 17.7-3.5 26.1zm-3.5-36.2q-0.7-3.2-1.8-6.4c-0.2-0.7-0.6-2.5-1.5-2.7-0.7-0.1-1.8 1.7-2.3 2.2-3.1 3.7-6.7 7-10.6 9.9-7.8 5.8-16.8 10.1-26.2 12.6-20.8 5.6-43 2.6-62.8-5.4-9.9-4-19.8-9-28.3-15.5-8.5-6.7-13.6-15.5-16.4-25.9-3-11.3-4.8-23.1-6.1-34.6-1.3-11.9-1.6-23.8 0-35.7 2.5-19 10.7-37.8 25.3-50.7 6.9-6.1 15.1-10.7 24-12.9 11.2-2.8 22.9-1.9 34 0.7 11.2 2.7 21.9 7.4 32.4 12.1 5.1 2.4 10.3 4.8 15.5 7 3 1.3 6.1 2.6 9.2 3.7 1.1 0.4 7.6 2.5 6.9-0.6-0.1-0.6-0.1-1.1 0.1-1.6-4.7-7.9-8.2-16.5-11.6-25-3.8-9.2-7.5-18.4-13.1-26.6-6.1-8.9-14.6-15.4-24.2-20.2-20.4-10.2-43.7-13.2-66.3-13.1-22 0.1-46 1.5-66.1 11.4-10.2 5.1-18.9 12.3-27 20.1-8 7.7-15.7 15.6-23.3 23.5-15.5 16.2-29.7 33.8-38.3 54.6-9 21.8-13.9 45.8-14.6 69.3-1.4 42.2 13.5 87 48.7 112.6 33.7 24.5 77.6 27.2 117.9 26 24.1-0.8 48.7-2.1 72.3-7.8 10.1-2.4 19.8-6 28.2-12.2 6.9-5.2 12.7-11.8 17.1-19.2 8.8-14.6 12.5-32.7 8.9-49.6z"/>
				<path id="&lt;Path&gt;" class="s4" d="m233.2 109.4c0.5 1.5-0.7 3.1-2.1 3.6-0.6 0.2-1.6 0-2.2-0.3-0.7-0.4-1-1-1.3-1.8q-0.2-0.6-0.5-1.3c-0.8-1.8-1.8-3.6-2.8-5.3-2.3 2.8-5.3 5.2-8.5 6.9 0.4 1.9 0.8 3.9 1.3 5.8 0.4 1.5-0.5 3-2 3.5-1.5 0.5-3.2-0.6-3.6-2q-0.7-2.5-1.1-5.1c-3.6 0.9-7.2 0.9-10.7-0.4q-2.1 3.1-4.2 6.3c-0.9 1.3-2.5 1.8-4 1-0.6-0.3-1.1-1-1.3-1.7-0.2-0.7-0.1-1.6 0.3-2.2q2.1-3.2 4.3-6.4c-4-3.3-6.7-7.5-8.7-12.2-1.6 1.5-3.2 3-4.6 4.7-0.5 0.5-1.3 0.8-2 0.8-0.8 0-1.5-0.3-2-0.8-0.6-0.5-0.9-1.4-0.9-2.1 0-0.8 0.3-1.4 0.9-2 2-2.4 4.2-4.5 6.6-6.5-1.4-5.2-2.1-10.5-2.5-15.6-0.3-3.7 5.5-3.7 5.8 0 0.5 6.5 1.5 13.3 4.1 19.3 2.3 5.3 6.7 12.4 13.1 12.9 1.9 0.1 3.9-0.3 5.8-1q0.1-0.1 0.2-0.2c0.5-0.6 1.3-0.8 2-0.9q0.1 0.1 0.1 0.1c3.3-1.8 6.3-4.5 8.3-7.2 3.9-5.5 5.2-12.5 3.8-19-0.9-3.7 4.7-5.2 5.5-1.6 1.6 6.9 0.8 14.1-2.5 20.4q0 0 0.1 0c2.2 3.2 3.9 6.7 5.3 10.3z"/>
				<path id="&lt;Compound Path&gt;" fill-rule="evenodd" class="s4" d="m232.5 22.4c1.5 3.4 2.7 7.1 1 10.7-1.3 2.7-4.2 4.5-6.8 5.6-2.9 1.2-5.9 2-9 1.3-3.1-0.7-5.6-3.3-6.2-6.4-0.5-3 0.2-6.2 2-8.6 2-2.6 4.6-4.5 7.4-6.2 1-0.7 2.2-0.5 3.1 0.2 1.5-0.3 3-0.4 4.4-0.1 1.9 0.4 3.3 1.8 4.1 3.5zm-15.4 9.8q0 0 0-0.1 0 0 0 0 0 0.1 0 0.1zm0.9 1.7c0 0 0.1 0.1 0.1 0.1q0.1 0 0.1 0c0 0.1 0.2 0.1 0.3 0.2q-0.1-0.3-0.2-0.7-0.5-0.1-0.9-0.4 0 0.1 0.1 0.2c0 0.1 0.2 0.3 0.2 0.4 0.1 0 0.2 0.1 0.3 0.2zm10.6-4c0 0 0-0.1 0-0.1q0-0.2 0-0.2 0-0.2 0-0.4-0.9 1.7-2.3 3.2 0.2-0.1 0.3-0.1 0.3-0.2 0.5-0.4c0.1-0.1 0.2-0.2 0.3-0.3q0.3-0.2 0.5-0.5c0.1 0 0.1 0 0.1-0.1q0.1 0 0.1-0.1 0.2-0.3 0.3-0.6c0 0.1 0.1-0.2 0.2-0.4z"/>
				<path id="&lt;Compound Path&gt;" fill-rule="evenodd" class="s4" d="m264.1-15.2c-1.2-6.7 2.8-15 9.8-16.5q1.2-0.6 2.5-0.9c3.9-0.9 8.2 0.1 10.8 3.3 2.3 3 3 6.8 2.2 10.4-0.9 3.6-3.6 6.6-6.6 8.6-3 1.8-6.8 3-10.3 2.6-4.2-0.5-7.7-3.2-8.4-7.5zm7.3 1.3q0 0 0.1 0.1 0.1 0 0.1 0-0.6-0.3-0.9-0.9-0.1 0-0.3 0 0 0 0 0c0 0 0 0 0 0q0.2 0.2 0.3 0.3 0.1 0.2 0.1 0.2 0 0 0.2 0.1 0.2 0.1 0.4 0.2zm4.6 0.2q0.5-0.1 1-0.3-0.5-0.1-0.9-0.4c-0.4 0.2-0.9 0.6-1.3 0.8q-0.2 0.1-0.5 0.2 0.1 0 0.1 0c0 0 0.4 0 0.5 0 0.1-0.1 0.1-0.1 0.2-0.1q0.4 0 0.9-0.2zm6.7-12q-0.2-0.2-0.4-0.4 0 0.1 0 0.2c1.1 0.9 1.4 2.4 0.7 3.7-0.3 0.8-0.8 1.5-1.3 2.2 0 0.2-0.1 0.4-0.1 0.4q-0.4 0.9-0.6 1.8-0.1 0.3-0.1 0.6c0 0-0.2 0.9-0.1 0.5q-0.1 0.5-0.2 0.9 0 0 0.1-0.1 0 0 0 0 0.1 0 0.2-0.1 0.1-0.1 0.3-0.3 0.3-0.3 0.7-0.7 0.3-0.3 0.5-0.6c-0.2 0.3 0.3-0.3 0.3-0.4q0.3-0.4 0.5-0.9 0.1-0.2 0.3-0.4 0.2-0.8 0.4-1.6c0 0 0 0 0-0.1q0-0.2 0-0.4 0.1-0.4 0-0.8 0-0.3 0-0.5 0-0.1 0-0.2c0-0.1-0.1-0.4-0.1-0.5q-0.2-0.5-0.3-0.9 0 0 0-0.1-0.1-0.1-0.2-0.3-0.2-0.3-0.4-0.7c0 0-0.1-0.1-0.1-0.1q-0.1-0.1-0.1-0.2zm0.8 6.4q0 0 0 0c-0.1 0.1-0.1 0.2 0 0z"/>
				<path id="&lt;Path&gt;" class="s4" d="m149.5 83.4c0.6 4-0.6 8.1-3.5 10.9-3.3 3.2-9.3 4.5-12.5 0.4-1.5-1.9-1.8-4.4-1.3-6.8 0.4-2.2 1.8-4.2 3.1-6 0.5-0.7 1.2-1.1 2-1.3q0.7-0.6 1.4-1.2c1-0.8 2.1-1.6 3.3-2.1 1.4-0.6 3.2-0.4 4.4 0.5 1.8 1.3 2.8 3.5 3.1 5.6z"/>
				<path id="&lt;Path&gt;" class="s4" d="m345.2-6.3c-0.1-0.5-0.2-1-0.2-1.5 0-0.4 0.1-0.8 0.1-1.2q0.1-0.2 0.1-0.4 0.2-0.7 0.7-1.4 0.3-0.6 0.9-1.2c0.3-0.2 0.6-0.4 0.9-0.7q0.1-0.1 0.3-0.2 0.5-0.3 1-0.4 0.2-0.1 0.4-0.2 1.2-0.2 2.3 0.3c0.6 0.3 0.9 0.9 1.2 1.5q0.3 0.2 0.7 0.5 0.1 0.2 0.3 0.3 0.3 0.4 0.6 0.9 0.1 0.2 0.2 0.3c0.2 0.4 0.3 0.7 0.4 1.1 0.1 0.4 0.2 0.9 0.2 1.4 0 0.6-0.2 1.1-0.4 1.7-0.2 0.6-0.5 1-0.9 1.5-0.4 0.3-0.8 0.6-1.2 0.8-0.4 0.2-0.8 0.4-1.3 0.5-0.5 0.1-1 0.1-1.4 0.1-0.5-0.1-1-0.1-1.5-0.3-0.4-0.2-0.9-0.3-1.3-0.6-0.3-0.2-0.6-0.4-0.8-0.7-0.3-0.2-0.5-0.5-0.7-0.8-0.2-0.4-0.4-0.8-0.6-1.3z"/>
				<path id="&lt;Compound Path&gt;" fill-rule="evenodd" class="s4" d="m176.2 167.5c0.4 3.3-0.6 6.8-2.3 9.7-1.8 3-4.6 5.5-8 6.6-1.9 0.5-4 0.5-5.8-0.4-1.7-0.9-2.8-2.5-3.5-4.3-1.3-3-1-6.8-0.1-9.9 1-3.2 2.8-6.2 5.4-8.4 0.9-0.8 2.1-1.1 3.2-0.6 1.1-0.6 2.3-1 3.6-0.8 4.4 0.3 6.9 4 7.5 8.1zm-13.3 10.9q0 0 0 0 0 0 0 0 0 0 0 0 0 0 0 0z"/>
				<path id="&lt;Path&gt;" class="s4" d="m212.7 180.2c-0.6-0.7-1-1.4-1.4-2.1-0.5-1.1-0.9-2.1-1-3.3 0-1.3 0.5-2.4 1.3-3.4 0.3-0.3 0.8-0.7 1.2-0.9 0.6-0.3 1.3-0.5 2.1-0.5 0.1 0 0.2 0.1 0.3 0.1q0.5-0.2 1-0.2c0.8 0 1.4 0.3 2 0.8 1.4 1.2 2.7 2.8 3 4.6 0.1 0.9 0.1 1.4 0 2.3-0.1 0.5-0.3 0.9-0.5 1.4-0.5 0.9-1.2 1.6-2 2.1-2 1.3-4.6 0.8-6-0.9z"/>
				<path id="&lt;Compound Path&gt;" fill-rule="evenodd" class="s4" d="m229.6 211.5c2 2.5 1.9 5.7 0.7 8.6-1.1 2.7-2.6 5.1-4.4 7.4-1.6 2-3.7 4.2-6.4 4.8-3.4 0.7-6.2-1.2-7.4-4.3-1.1-2.6-0.4-5.7 0-8.4 0.4-2.6 1.4-5.3 3.3-7.1 1.8-1.7 4.3-2.7 6.7-2.3 1.3-0.8 2.6-1.1 4.1-0.9 1.3 0.3 2.6 1.1 3.4 2.2zm-4.2 4.3q0-0.1 0-0.1 0-0.1 0-0.1 0-0.1 0-0.1-0.1-0.2-0.2-0.3c0.3 0.4 0 0-0.1-0.1 0 0 0 0 0 0q-0.1 0-0.1 0-0.2 0.2-0.3 0.3-0.5 0.5-0.9 1-0.3 0.2-0.5 0.4 0.2 0.3 0.4 0.7c0.3 0.9 0.3 1.8 0.2 2.7q0.3-0.6 0.6-1.1 0.1-0.3 0.2-0.6 0.1-0.1 0.1-0.1 0-0.1 0.1-0.1c0.2-0.6 0.3-1.1 0.5-1.6 0 0 0-0.2 0-0.2q0-0.4 0-0.7zm-0.2-0.8q0 0 0 0 0 0 0 0z"/>
				<path id="&lt;Compound Path&gt;" fill-rule="evenodd" class="s4" d="m307.7 234.1c1.4 3.4 0.5 7.4-1.9 10.1-1.7 1.9-4.3 2.9-6.6 1.7-2-1-3-3.1-3.8-5.1-1.5-3.8-1.5-8.2-0.2-12 0.5-1.5 1.9-2.4 3.5-2 1 0.2 1.8 1.2 2.1 2.2 0.7-0.1 1.6 0 2.3 0.3 2.3 0.9 3.7 2.6 4.6 4.8zm-5.2 2.8q0 0 0 0 0 0.1 0.1 0.2 0-0.1-0.1-0.2zm-1.1-2.1q-0.1 0-0.1 0 0 0-0.1-0.1 0.1 0.1 0.2 0.1zm0.9 1.1c-0.1-0.1-0.1-0.1-0.1-0.1q0 0 0 0 0 0 0-0.1 0 0.1 0 0.2 0 0 0 0.1 0.1 0.1 0.1 0.1 0 0.1 0.1 0.2c0 0-0.1-0.2-0.1-0.3 0.1 0.1 0.1 0.1 0-0.1q0 0 0 0z"/>
				<path id="&lt;Path&gt;" class="s4" d="m302.2 235.8q0 0.1 0.1 0.1 0 0.1 0 0.1-0.1-0.1-0.1-0.2z"/>
				<path id="&lt;Path&gt;" class="s4" d="m340.6 217.4c0.2 0.7 0 1.6-0.3 2.3q-0.2 0.2-0.4 0.5-0.2 1.4-0.9 2.7c-0.8 1.6-2.3 2.9-4 3.4-1.3 0.5-2.9 0.1-3.8-0.9-0.8-0.9-1.2-2-1.1-3.1 0.1-1 0.3-1.9 0.9-2.7 0.5-0.6 1-1.3 1.6-1.9q0.9-0.8 2-1.3c0.4-0.6 0.9-0.9 1.5-1.1 0.6-0.2 1.3-0.1 1.9 0.1q0.6 0 1.2 0.3c0.7 0.4 1.1 1 1.4 1.7z"/>
			</g>
			<g id="&lt;Group&gt;">
				<path id="&lt;Compound Path&gt;" fill-rule="evenodd" class="s4" d="m384.2 898.1c-7.3 8.4-17.8 14.8-28 18.9-8.7 3.5-17.9 5.2-27 3.7 0 17.7-14.1 31.3-30.5 36.8-16.6 5.5-37.7 3.9-48.3-11.6q-0.3-0.5-0.5-1.1-7.7 46-15.5 92.1c-2.5 15.2-4.4 30.9-8 45.9-3.1 12.6-8.8 25.1-19.8 32.6-9.3 6.3-22.2 7.4-31.7 0.9-11.1-7.5-10.7-20.9-10.3-32.8 0.9-30.4 6.5-60.4 9.1-90.6 1.2-14.6 0.6-29.4 2.7-43.9-9.5 6.2-22.7 2.5-27.2-7.8-8.2 4.8-17.3 8.4-26.8 8.6-10.6 0.2-20.5-4.4-27.8-12-14.2-14.9-15.3-36.8-9.9-55.7 0.5-1.8 2.6-5.7 1.4-7.3-1.1-1.5-4.7-1.7-6.3-2-5.5-1-11.2-1.4-16.7-2.4-9.8-1.6-18.9-5.6-24.8-13.9-11.9-16.9-5.5-38.5 6.9-52.9 11-12.8 27.5-23 44.7-23.5-2.8-6.5-5.8-12.9-5.2-20.1 0.5-7.8 4.2-15.2 9.8-20.6 10.5-9.9 25.7-11.1 38.6-6.2-0.8-7.1 0-14.4 2.3-21.3 5.4-16.3 19.2-30.6 36.7-33.2 9.2-1.4 18.2 1 25.1 7.3 5.1 4.5 8.6 10.6 10.9 17.1 1.6-11.2 5.2-22.1 11.4-31.6 12.1-18.7 35.7-30 57.6-22.5 22.6 7.8 30.9 33.6 32.6 55.7 7.7-2.8 14.4-8.1 22.6-9.3 10.5-1.4 20.2 4.7 25.6 13.4 6 9.4 7.4 21.5 7 32.4-0.4 9.4-2.5 18.5-6 27.1 9.3-1.4 19.1-1.6 27.5 2.9 9.6 5.2 13.4 16 12.5 26.4-2 21-16.7 40.1-34.2 51.3 8.4 6 18.1 10.4 23.7 19.6 6.1 10.1 3 21.2-4.2 29.6zm-153.8 119.8q6.9-41 13.8-82c-0.3-0.6-0.4-1.2-0.3-2 1-6.1 2-12.3 4-18.1 1.8-5.1 4.7-9.6 5.7-14.9 2-11.6 3.5-23.3 5.3-34.9-3.8-1.3-7.5-2.7-10.9-4.8-1.3-0.8-2.6-1.7-3.8-2.6q-1.1 4.5-2.2 8.9c-1 4.1-1.8 8.4-4.6 11.8-4.7 5.7-13.7 8.2-20.8 9.1-17.9 2.4-31.5-9.8-42.5-22.4-0.4-0.6-0.7-1.1-0.8-1.7-5.3 2.7-10.9 4.6-16.6 5.9 5.6 12.2 14.5 22.7 25.5 30.3 1.6-2.9 7-2.3 6.8 1.7-0.2 8.3-0.8 16.7-1.9 25-1 7.9-2.7 15.7-3.8 23.6-1 7.6-1 15.2-1.2 22.9-0.3 8-0.9 16-1.6 24-2.7 28.2-7.7 56.1-8.7 84.4-0.4 11.2-1.7 25.8 11.3 30.3 11.2 3.8 22-2.8 28.3-12 7.8-11.5 9.4-25.9 11.7-39.3q3.6-21.6 7.3-43.2zm149.7-148.6c-6.6-7.9-16.7-11.8-24.5-18.3-1.8-1.5-1-4.6 0.9-5.6 16.7-9.1 31-25.7 34.7-44.8 1.7-8.6 0.1-18.3-8.1-22.9-8.7-5-20.2-3-29.4-1.3-3.2 0.6-5.5-2.5-4-5.3 4.8-9.3 7.5-19.5 8-29.9 0.3-9.4-0.7-19.7-5.5-27.9-4.7-8.1-13.3-12.8-22.5-9.9-7.8 2.5-14.3 7.8-22.4 9.5-2.3 0.5-4.4-1.1-4.5-3.5-0.5-12.8-3.2-26.2-9.5-37.5-5-8.7-12.6-15-22.5-17.1-9-2-18.9-0.3-27.1 3.8-19.3 9.8-27.9 32.1-29.2 52.6-0.2 3.4-4.3 4.3-6.2 2.5-1.9 1-4.6 0.5-5.2-2.1-2.2-9.4-6.9-19.5-16-24-9.1-4.5-20.2-1.4-28.2 4-15 10-22.1 29.8-17.4 47.1 0.8 3-2.7 5.5-5.4 3.9-11.6-6.9-27.4-7.4-37.3 2.8-4.4 4.5-7.2 10.8-7 17.2 0.3 7.1 4.5 13.7 7 20.4 0.7 2.1-1.4 4.7-3.6 4.5-19.8-1.9-39.7 11.6-49.9 27.9-8.9 14.5-9 36.9 8.6 45 9.1 4.1 19.5 3.8 29.1 5.7 3.7 0.7 7.7 2 9.7 5.4 2.1 3.7 0.4 7.7-0.7 11.4-5.3 17.5-4.7 38.1 9.4 51.4 14.4 13.6 33.4 7.8 48.2-1.9 1.8-1.1 4.9 0.1 5.2 2.3 1.5 9.6 12.5 13.8 19.6 6.7 1-1 2.2-1.2 3.2-0.9 1.6-10.7 3.2-21.3 3.9-32.2-0.5 0-1-0.2-1.6-0.6-13.5-8.8-23.9-21.5-30.4-36.2q-2.5 0.4-5 0.6c-2.1 0.1-4.7-0.2-7-0.1-0.5 0.7-1.2 1.2-2 1.3-2.5 0.6-5.4-1-5.3-4 0.1-3.5 3.7-4.2 6.5-4.2q6.4 0 12.7-0.9 0.5-0.4 1.1-0.6c0.7-0.1 1.4-0.1 2 0.1 2.4-0.4 4.7-1 7.1-1.7 15-4.4 28-14.5 34.6-28.9 0.9-2 4.3-2.3 5.7-0.6 7.4 9.5 21.5 8.9 27.6-1.8 2.1-3.6 7.3-0.9 6.6 2.7q0.2 0.2 0.4 0.5c4.5 7.9 9.2 16.4 17.2 21.2 4.3 2.5 9.1 4 13.8 5.3 5.3 1.5 10.6 2.7 16 3.1 4.6 0.4 4.6 7.6-0.1 7.2-5.3-0.4-10.4-1.4-15.6-2.7-1.7 11.6-3.3 23.3-5.3 34.9-1 5.6-4.1 10.2-5.8 15.5-1.3 3.8-2.1 7.7-2.8 11.6 0.2 0.6 0.3 1.2 0.2 2q-0.9 5.3-1.8 10.5c1.3-1.9 4.7-2.6 6.5-0.1 8.4 12.3 26.2 12.5 39 8.4 14.4-4.5 28.6-17.1 26-33.7-0.5-2.6 1.6-5.2 4.5-4.4 9.2 2.7 18.7 1.2 27.4-2.4 8.7-3.6 17.3-8.9 23.8-15.6 7.2-7.4 9.6-17 2.6-25.4zm-200.9-8.4q0.1 0 0.1 0.1c9.1 10.4 20.4 22 35.5 20.4 5.6-0.6 14.8-2.5 17.8-7.9 1.8-3.1 2.3-7.3 3.2-10.8q1.2-5 2.5-10c-3.4-4-6.2-8.4-8.8-12.9-8.5 8.2-22.1 8.9-31.3 1.3-4.6 8-11.2 14.7-19 19.8z"/>
				<path id="&lt;Path&gt;" class="s4" d="m232.4 769.2c0.7 1.8-0.9 4-2.6 4.4-2.1 0.5-3.7-0.8-4.4-2.6-0.3-0.7-0.9-1.4-1.6-2.2-0.6-0.5-1.7-1.2-2.7-1.8-0.7-0.3-1.9-0.7-3-1-1.3-0.3-2.2-0.4-3.4-0.5-2.6-0.2-5.4 0-7.8 1.2-2.1 1.1-3.7 2.8-4.3 4.9-1.3 4.4-8.3 2.4-7-2 2.5-8.3 11.1-11.9 19.2-11.4 7.4 0.6 14.8 3.7 17.6 11z"/>
				<path id="&lt;Path&gt;" class="s4" d="m303.8 774.3c0.8-3.9 1.9-8.4 0.4-12.3-1.2-3.1-3.7-4.9-7.1-4.2-7.8 1.6-13.2 8.8-17.7 14.7-1.2 1.5-3.2 2.3-5 1.2-1.5-0.9-2.4-3.4-1.2-5 6.2-8 14-17.9 25.1-18.3 5.9-0.2 10.6 3.8 12.6 9.1 2.1 5.5 1 11.3-0.1 16.8-0.4 1.9-2.7 3-4.5 2.5-2-0.6-2.9-2.6-2.5-4.5z"/>
				<path id="&lt;Path&gt;" class="s4" d="m297.6 841.2c-0.1-0.2-0.2-0.3 0 0z"/>
				<path id="&lt;Compound Path&gt;" fill-rule="evenodd" class="s4" d="m305 847.8c-0.7 1.9-2.4 3-4.5 2.5-1.7-0.4-3.1-2.7-2.4-4.5q0.2-0.5 0.3-1.1 0-0.1 0.1-0.1c0-0.2 0-0.3 0-0.3 0-0.3-0.1-0.7-0.1-1q0-0.1 0-0.1 0-0.2-0.1-0.4 0-0.3-0.1-0.5c-0.2-0.3-0.3-0.7-0.5-1q0 0-0.1-0.1c0 0 0.1 0.1 0.2 0.2q-0.2-0.2-0.4-0.4-0.2-0.3-0.4-0.5 0 0-0.1 0-0.1-0.1-0.2-0.2-0.2-0.1-0.5-0.3-0.1 0-0.2-0.1 0 0-0.1 0-0.5-0.2-1.1-0.3-0.2 0-0.4-0.1-0.3 0-0.5 0c-0.1 0.1-0.4 0.1-0.5 0.1q-0.2 0-0.5 0.1-0.2 0.1-0.4 0.1-0.6 0.3-1.1 0.6c-1.6 1.1-3.9 0.2-4.9-1.4-1-1.7-0.1-3.9 1.4-4.9 4.1-2.7 9.8-2.3 13.5 0.7 3.7 3 5.4 8.5 3.6 13zm-6.8-5.5q0-0.1 0-0.1c-0.2-0.5-0.1-0.2 0 0.1z"/>
				<path id="&lt;Path&gt;" class="s4" d="m170.4 800.5c0 0.9-0.5 2-1.1 2.6-0.6 0.6-1.7 1.1-2.6 1-0.5-0.1-1.1 0-1.6 0q-0.7 0.1-1.4 0.4-0.8 0.3-1.4 0.7-0.7 0.6-1.2 1.2-0.4 0.6-0.8 1.2c-0.2 0.5-0.3 1.1-0.4 1.6-0.2 0.9-1 1.7-1.8 2.2-0.8 0.5-1.8 0.5-2.7 0.3-0.9-0.2-1.7-1-2.2-1.7-0.5-0.9-0.4-1.8-0.3-2.8 1-6.2 7.7-11.1 13.9-10.3q1 0 1.9 0.5 0.3 0.3 0.7 0.6c0.7 0.6 1 1.6 1 2.5z"/>
				<path id="&lt;Path&gt;" class="s4" d="m313.1 887.7c1.4 3.6 0.1 8-2.6 10.7-1.5 1.4-3.7 1.2-5.1-0.2-1.4-1.3-1.3-3.8 0.1-5.1q0.1-0.1 0.2-0.2 0.2-0.3 0.4-0.7 0.2-0.5 0.3-0.9 0-0.4 0-0.7-0.1-0.4-0.2-0.7-0.1-0.3-0.3-0.6-0.1 0-0.1-0.1-0.6-0.1-1.2-0.4-1.2-0.7-2.4-1.3c-1.4-0.7-1.9-2.6-1.6-4.1 0.2-0.7 0.7-1.4 1.4-1.9q0.5-0.4 1.2-0.6 0.4 0 0.9-0.1c1.9 0.2 3.8 0.8 5.3 1.9 0.8 0.6 1.5 1.2 2 2 0.8 1 1.3 1.8 1.7 3z"/>
				<path id="&lt;Path&gt;" class="s4" d="m219.1 968c-2-0.5-2.9-2.6-2.5-4.5q2.2-9.5 4.3-18.9c0.4-2 2.6-2.9 4.5-2.5 1.9 0.5 2.9 2.6 2.4 4.5q-2.1 9.4-4.2 18.9c-0.5 2-2.7 2.9-4.5 2.5z"/>
				<path id="&lt;Path&gt;" class="s4" d="m211.5 1019.2q-2 10.9-4 21.9c-0.4 2-2.8 2.9-4.5 2.4-2-0.4-2.8-2.6-2.5-4.4q2-10.9 4-21.9c0.4-2 2.7-2.9 4.5-2.4 2 0.4 2.8 2.6 2.5 4.4z"/>
				<path id="&lt;Path&gt;" class="s4" d="m203.9 951c-0.1 2-1.6 3.5-3.7 3.6-1.8 0-3.6-1.8-3.5-3.7 0.3-5.5 1.2-11.1 2.7-16.5 0.6-1.9 2.6-2.9 4.5-2.5 1.9 0.5 3 2.7 2.5 4.5q-1.1 3.7-1.7 7.6-0.1 0.5-0.2 1 0 0.1 0 0.1 0 0.1 0 0.1-0.2 1-0.3 1.9-0.2 1.9-0.3 3.9z"/>
				<path id="&lt;Path&gt;" class="s4" d="m201.5 990.7c-0.1 1-0.4 1.8-1.1 2.6-0.7 0.6-1.7 0.9-2.6 1-0.9 0-1.9-0.5-2.5-1.2-0.6-0.6-1.1-1.6-1-2.5 0.2-2.8 0.8-5.7 1.9-8.3q0.2-1 1-1.6 0.3-0.3 0.7-0.6c0.8-0.5 1.8-0.5 2.7-0.3 0.9 0.2 1.8 0.9 2.2 1.7 0.4 0.7 0.7 2 0.3 2.8q-1.1 2.6-1.5 5.4-0.1 0.5-0.1 1z"/>
			</g>
			<g id="&lt;Group&gt;">
				<path id="&lt;Compound Path&gt;" fill-rule="evenodd" class="s4" d="m186.8 510.1c-5.2 13.8-10.9 27.4-16.3 41.1-5 12.4-10.2 25.1-18.8 35.4-7.4 8.9-17.2 16-28.7 18.2-6.7 1.3-13.7 0.6-20.4-0.4-7.4-1.1-14.7-2.4-22.1-3.6-29.8-5-59.6-10.2-89.3-15.8-14.6-2.8-29.2-5.7-43.6-9.3-6.9-1.7-13.8-3.5-20.5-5.7-5.8-2-11.3-4.6-15.6-9-7.7-7.9-10.5-19.4-11.6-30.1-1.6-13.9-1.6-28.1-0.6-42 1-14.5 3.4-28.9 7-42.9 3.1-12.3 6.6-25.5 14.4-35.7 17-22 47.1-19.1 71.3-15.4 1.9 0.4 3.8 0.8 5.7 1.1q0-0.4 0.1-0.9c1.4-4.7 4.9-9 9-11.7 4.5-3 9.9-3.4 15.1-3.2 5.7 0.2 11.1 1.3 16.6 3 5.4 1.7 10.7 2.9 16.2 3.9q-4.2-17-8.4-34c-2.9-11.7-5.6-23.4-9.2-34.9-3 0.5-6.2 0-8-2.7-2-2.9-1.9-7.1-0.5-10.2 1.3-3 4.1-5.3 7.3-5.5 1.2-0.6 2.6-0.8 4-0.5 1.9 0.4 3.4 1.4 4.7 2.8 1.1 1.2 2 2.6 2.7 4 1.1 2 0.9 4.4-0.6 6.2-1.1 1.3-2.5 2.6-4.1 3.6 3.7 11.6 6.5 23.4 9.4 35.1q4.6 18.7 9.2 37.4 9.9 2 19.8 4.3 0.2-0.4 0.6-0.7 18.2-15.3 36.4-30.7c-0.8-2.3-0.6-5 0.5-7.1 0.9-1.7 2.2-3 4-3.9q0.6-0.2 1.2-0.4 0.5-0.4 1.1-0.7c1.7-1 3.8-1 5.6-0.3 2 0.7 3.5 2.2 4.5 4 1.6 2.7 1.7 6.4 0.3 9.2-1.5 3-4.5 5.1-7.9 5.2-2 0.1-3.9-0.3-5.5-1.3q-16.8 14.2-33.7 28.3 0.7 0.2 1.4 0.3 8.3 2.1 16.5 4.4c4.7 1.3 10.2 2.3 14.2 5.4 3.6 2.9 4.9 7.1 5 11.5 0.2 4 0.1 7.9-0.3 11.8q7 2 14 4.1c11.4 3.5 23 6.7 33.3 12.9 10 6 17.2 15 19.7 26.4 2.9 13.2-0.6 26.6-5.1 39zm-57.1-150.5c-0.2 0.3-0.2 0.4-0.1 0.3q0 0 0 0 0-0.1 0.1-0.2 0 0 0-0.1zm-2.4-2.8q0.1 0 0.2 0-0.1 0-0.2-0.1 0 0.1 0 0.1zm1.1-0.6q0 0 0-0.1 0 0 0 0 0 0.1 0.1 0.1 0 0.1 0 0.1 0 0 0 0 0 0 0 0 0 0 0-0.1 0 0 0 0 0 0 0 0 0 0 0 0 0 0 0 0 0 0 0 0 0 0-0.1 0 0 0 0 0zm0-0.1q0-0.1 0-0.2c0 0.1 0 0.2 0 0.2q0 0 0 0zm-0.1-0.2q0 0.1 0.1 0.2 0 0 0 0-0.1-0.1-0.1-0.2zm0 0q0 0 0 0 0 0 0 0zm0.9 4.4q0 0.1-0.1 0.1 0 0 0 0 0.1 0 0.1 0 0 0 0-0.1zm57.4 127.2c1.4-11.7-1.2-23.8-10-32.1-7.6-7.2-17.8-11-27.5-14.2-9.3-3-18.6-5.8-28-8.5q-0.5-0.1-1-0.3c-16.1-4.7-32.3-9.1-48.5-13.3-26.6-6.9-53.3-12.9-80.3-18.3-6.6-1-13.2-2-19.9-2.5-11.9-0.8-24.4 0.2-35 6.2-10.8 6-16.3 16.8-20.1 28.1-8.5 25.7-12.3 53.2-11.6 80.2 0.3 11.3 0.6 23.4 4.9 34 1.9 4.9 4.8 9.3 9.1 12.5 4.9 3.6 11 5.3 16.8 7 27.1 7.9 55.1 12.6 82.8 17.6 27.9 5.1 55.8 10 83.9 14.4 6.4 1 13 1.8 19.5 0.7 5.3-1 10.4-3.3 14.9-6.4 10.1-7.1 16.8-17.6 21.9-28.7 5.8-12.2 10.4-25 15.4-37.6 5-12.6 11.1-25.3 12.7-38.8zm-125-93q1.1 0.3 2.2 0.6 5.3 1.3 10.5 3.1 0.5-0.2 1.2-0.1 4.2 0.5 8.3 1.3-11.1-2.7-22.2-4.9zm7.4 8.2q-3.9-1.2-7.8-2.2-3.3-0.8-6.7-1.5c0 0.3-0.1 0.4-0.2 0.6 4.9 0.9 9.8 2 14.7 3.1zm-48.9-16.6c-2.9-0.1-6 0.2-8.6 1.4q3.9 0.2 7.7 0.5c0.1-0.8 0.4-1.4 0.9-1.9zm67.7 31.2c3 0.8 6 1.6 9 2.4 3.6 1 7.2 2 10.8 3q-1.5-0.6-2.9-1.5-0.5-0.3-0.7-0.8-5.6-1.2-11.2-2.3-0.6 0.1-1.3 0-1.8-0.4-3.7-0.8zm22.5-10.8c-0.9-0.3-1.8-0.6-2.8-0.8q3.7 1.3 7.3 2.7c2.4 1 2.4 4.8 0 5.6q2.4 1.6 4.5 3.6 0-1.3-0.1-2.6c-0.6-5.3-4.1-7.1-8.9-8.5zm-82-19.6q6.9 1.7 13.7 3.8 2.5 0.5 5.1 0.9c-6.3-1.5-12.5-3.6-18.8-4.7zm-24.9 10.3c3.5 0.7 6.9 1.4 10.4 2.1 10.5 2.3 21.1 4.7 31.6 7.2q-4.4-1.3-8.7-2.8c-1.4-0.5-1.9-1.7-1.7-2.8-10.5-0.8-20.9-2.2-31-5.1-0.2 0.4-0.4 0.9-0.6 1.4zm115.7 28.8q0.1-1.3 0.2-2.7-0.3 0.2-0.6 0.3c-2.3 0.6-4.5 0.7-6.7 0.4q3.5 1 7.1 2zm8.4-69.1q0 0 0 0 0 0 0 0 0 0 0 0z"/>
				<path id="&lt;Path&gt;" class="s4" d="m128.5 356.2q0 0-0.1 0 0.1 0 0.1 0 0 0 0 0 0 0 0 0 0 0 0 0.1 0-0.1 0-0.1z"/>
				<path id="&lt;Compound Path&gt;" fill-rule="evenodd" class="s4" d="m136.5 498.9q-4 15-9 29.6c-2.8 8.2-5.3 17-10.2 24.3-4.7 7-11.8 10.6-20.2 10.6-9.6 0-19.4-2.5-28.8-3.9q-31.4-4.7-62.8-8.1c-17.8-1.9-38.6-2-53.7-13-6.8-4.9-10.7-11.9-11.5-20.3-1-9.6-0.6-19.5 0-29.1 1.3-19.5 5.5-38.6 12-57q0-0.2 0.1-0.3c0.9-3.1 2.8-5.7 5.4-7.8 6.8-5.3 15.3-5.7 23.5-4.3 10 1.7 19.9 3.9 29.8 5.9 20.5 4.1 41.1 8.2 61.4 13.1 9.9 2.4 19.9 5 29.7 7.9 8.5 2.5 17.5 4.8 25.1 9.5 6.7 4.2 11.1 10.8 12.1 18.7 1.1 8.1-0.8 16.4-2.9 24.2zm-178.5-65.4q0 0 0 0.1 0 0.3-0.2 0.6-2.3 6.8-4.2 13.6c1.4-1.2 2.9-2.3 4.5-3.2 3.8-2.1 8.6-4.3 12.9-2.3 3.9 1.9 4.6 6.7 6.1 10.4 1.6 3.7 3.7 7 6.1 10.1 2.2-2.4 4.5-4.8 6.8-7.1 2.8-2.7 5.6-5.5 9-7.5 3-1.8 6.5-2.6 9.7-0.9 3.2 1.6 5.1 5 6.7 7.9 1.9 3.4 3.4 7 5.5 10.2 0.7 0.9 2.4 4.1 3.7 4 1.1 0 2.8-3 3.5-3.8 5-5.3 11.6-7.9 18.7-8 1.8 0 2.6 1.9 2.6 3.3 0.1 3.2 0.4 6.4 1.1 9.5 0.3 1.3 1.2 7.2 2.8 7.8 1.7 0.5 5.9-2.9 7.3-3.8 2.2-1.5 4.3-3.2 6.4-5 3-2.5 6.3-5.1 10.3-5.3 4-0.3 7.5 1.7 9.7 4.8 2.4 3.2 3.4 6.9 4.7 10.5 1 3 3 8.2 7 8 3.8-0.1 6.4-4.9 8.8-7.3 2.7-2.9 6.6-5.5 10.8-5.2 4.5 0.4 6.9 4.1 8.3 8 1.4 3.8 3 7.4 5.1 10.8 0.2-1.2 0.6-2.4 0.8-3.6 1.4-6.9 2.3-14.7-1-21.3-3.4-6.7-10.7-9.9-17.5-12.3-17.8-6.3-36.4-10.7-54.8-14.9-18.3-4.1-36.7-7.7-55-11.4-8.9-1.8-17.8-4.1-26.7-5.1-4.3-0.6-8.6-0.4-12.6 1.5-2.8 1.3-6.2 3.6-6.9 6.9zm158.2 108.4q0.5-1.1 0.9-2.2c-0.8-0.3-1.5-1-1.6-2.3-0.2-4.3-0.8-8.7-2.2-12.8-0.7-2-1.4-3.7-3.8-2.4-1.4 0.8-2.5 2.3-3.5 3.4-5.3 5.6-11.5 9.9-18.6 12.9-1.3 0.6-3.4 0-3.9-1.6q-2.2-7.3-4.4-14.6c-0.3-0.9-1-5.5-2-5.7-0.5-0.1-3.3 2.7-3.9 3.2-5.5 4.7-10.6 9.9-18 11.5-1.7 0.4-3-1-3.4-2.5q-2.3-8.6-5.6-16.8-1.5-3.7-3.1-7.2c-1-2.1-1.8-4.3-4.4-3.2-3.7 1.5-6.8 5.1-9.5 7.9-2.7 2.8-5.3 5.7-8.3 8.1-2.8 2.2-7 5.3-10.8 3.8-3.6-1.4-4.5-5.9-5.4-9.2-1.1-4.2-1.7-8.4-3.2-12.5-1.2-3.4-3.5-8.4-7.6-9-2.2-0.3-3.7 1.7-5.1 3.2q-2.6 2.9-5.2 5.8-5.2 5.8-10.3 11.7c-1.4 1.5-4.4 1.7-5.2-0.6q-1.7-5.1-3.4-10.2-0.8-2.3-1.6-4.6c-0.1-0.5-0.8-3.6-1.4-3.8 0.5 0.1-2.6 2.9-2.9 3.1q-1.7 1.5-3.3 3-3.4 3.2-6.8 6.5c-0.9 1-2 1-2.9 0.5q0 1.6 0 3.2c0.1 5 0 10.2 1.6 14.9 2.7 7.8 10.2 12.4 17.5 15.2 8.4 3.1 17.4 4.3 26.2 5.3 9.3 1 18.7 1.9 28 3q28.8 3.4 57.5 7.8c7.9 1.2 17.1 3.9 25.2 2.3 7.6-1.6 11.6-8.4 14.4-15.1zm9.2-26.2c1.5-4.9 3-9.8 4.4-14.7-0.4-0.2-0.8-0.5-1.2-1-3.4-4.9-5.7-10-7.8-15.5-1-2.8-2.4-4.4-5.5-3-2.4 1.2-4 3.4-5.8 5.3-2.4 2.8-5.3 5.8-9.2 6.5-4 0.7-7.7-1.1-10.2-4.2-2.6-3.1-3.7-7-5.1-10.8-1.1-3.2-3-8.5-7.2-8.3-4.3 0.2-8.1 5.2-11.4 7.6-3.4 2.5-8.1 6.1-12.5 6.6-5 0.4-7-4.5-8.2-8.5-1.2-3.9-1.8-7.9-2.1-11.9-2.6 0.4-5.2 1.4-7.5 2.8-2.6 1.8-4.3 4.3-6.5 6.4-5.9 5.8-11.2-0.2-14.4-5.5-1.7-2.9-3.2-6.1-4.8-9.1-1.6-2.8-3.6-7.2-7.4-5.6-3.4 1.4-6.2 4.8-8.8 7.2-3.1 2.9-5.9 6-8.7 9.1-1.3 1.5-3.4 1.6-4.7 0.1-5.1-5.6-8.5-12-11-19-0.7-2.1-1.5-3.1-3.9-2.5-1.9 0.4-3.9 1.5-5.5 2.5-3.1 1.8-5.6 4.3-7.7 7.1-0.5 0.7-1.2 1-1.8 1.1-2.6 11.6-4.3 23.3-4.9 35.2q-0.1 2.9-0.2 5.7 4.3-4.3 8.9-8.3c2.4-2.2 5.2-5.6 8.9-4.5 3.5 1 4.4 5.2 5.4 8.3q1.5 4.4 3.1 8.9 5.1-5.8 10.3-11.6c3.2-3.6 6.5-7.9 11.8-7.4 9.8 0.9 13.2 12.7 15 20.6 0.6 2.4 1.1 4.7 1.8 7.1 0.1 0.5 0.7 3.1 1.3 3.4 0.6 0.2 2.4-1.1 2.7-1.4 3.9-2.4 6.9-5.9 10-9.2 4.9-5.1 14.8-15.2 21.3-6.8 3 3.9 4.7 9.3 6.4 13.8 1.6 4.1 2.9 8.2 4.1 12.4 3.3-1.3 6-3.6 8.7-6 2.9-2.6 6.4-6.6 10.2-7.7 4.7-1.3 7 2.9 8.2 6.7q2.1 7 4.2 14c3.6-1.8 7-4 10.1-6.7 3.3-2.9 5.9-7.3 10.2-8.7 8.2-2.8 11.3 6 12.4 13.5 1.6-4.6 3.1-9.3 4.6-14z"/>
				<path id="&lt;Compound Path&gt;" fill-rule="evenodd" class="s4" d="m167.8 499.6c0.2 5-2.6 9.6-7 12.1-4 2.2-9.3 1.9-12.9-1-2.2-1.8-3.7-4.3-3.5-7.2 0.1-2.3 1-4.4 2.2-6.4 2.2-3.7 6-6.3 10.2-7.2q0.7-0.1 1.3 0.1c5.2 0.1 9.5 4.3 9.7 9.6zm-15.2-0.7q-0.2 0.3-0.4 0.6 0.4-0.4 0.8-0.7c1.6-1.4 3.8-2.5 6-2q0.3 0 0.5 0.1 0.3 0 0.6-0.1c0.1 0 0.2 0 0.3 0q-0.4-0.2-0.7-0.5c-0.1 0-0.5-0.2-0.6-0.3q-0.1 0-0.2 0c0 0-0.2-0.1-0.3-0.1q-0.3 0-0.5 0 0 0 0 0 0 0 0 0c-0.2 0-0.3-0.1-0.4-0.1-0.1 0.1-0.5 0.2-0.6 0.2q-0.1 0-0.2 0-0.5 0.2-1.1 0.5-0.3 0.2-0.7 0.3c0 0.1-0.1 0.1-0.2 0.2-0.1 0.1-0.3 0.2-0.4 0.2q-0.2 0.2-0.5 0.4-0.4 0.4-0.9 0.8c0 0 0 0 0 0.1-0.1 0 0 0-0.1 0q-0.2 0.2-0.4 0.4z"/>
				<path id="&lt;Compound Path&gt;" fill-rule="evenodd" class="s4" d="m158.1 525.5c4.3 9.2-7.6 21.2-16.6 15.8-4.4-2.6-5.6-8.3-3.9-12.8 1.9-4.8 6.6-8.7 11.8-8.6 0.5 0 1 0.2 1.4 0.4q0.5 0 1 0.1c2.8 0.5 5.1 2.5 6.3 5.1zm-15 8.6q0 0.2 0.1 0.4 0.1-0.4 0.1-0.8 0.1-0.1 0.1-0.1-0.1-0.4 0-0.7c0.2-1.6 0.9-3 2-4.2q0 0 0-0.1c0.8-0.9 1.8-1.7 2.9-2.2q-0.3-0.2-0.5-0.4 0 0 0 0-0.3 0.1-0.5 0.2-0.3 0.2-0.6 0.3-0.1 0.1-0.1 0.1-0.5 0.4-1 0.8-0.3 0.2-0.5 0.4 0 0 0 0c0 0 0 0 0 0.1-0.3 0.3-0.6 0.6-0.8 0.9q-0.3 0.3-0.5 0.7c0 0 0 0-0.1 0.1q-0.3 0.5-0.5 1.1-0.1 0.4-0.2 0.7 0 0 0 0-0.1 0.6-0.2 1.2 0 0.1 0 0.1 0 0.2 0.1 0.3 0 0.5 0.1 1 0 0 0 0 0 0.1 0.1 0.1z"/>
				<path id="&lt;Compound Path&gt;" fill-rule="evenodd" class="s4" d="m150 560c-0.2 4.2-2.2 8.7-5.8 11-3.6 2.5-8.7 2.8-12.4 0-3.6-2.7-4.4-7.7-3.1-11.8 1.4-4.1 5.2-7.1 9.1-8.6 0.4-1.2 1.8-2 3.1-1.9 2.6 0.2 5.1 1.6 6.8 3.6 1.8 2.1 2.4 4.9 2.3 7.7zm-7.4 4.3q0.1-0.2 0.2-0.3c0 0 0.1-0.2 0.1-0.3q-1.3 1.2-2.9 1.9-0.9 0.8-1.9 1.4 0 0 0 0 0.3 0 0.6-0.1 0.3 0 0.6-0.1 0 0 0.1 0c0.2-0.1 0.4-0.1 0.4-0.1q0.2-0.1 0.4-0.2 0.2-0.1 0.4-0.2 0 0 0 0 0.5-0.3 0.9-0.7c0 0 0.6-0.6 0.2-0.1q0.1-0.2 0.3-0.4 0.3-0.4 0.6-0.8z"/>
			</g>
			<path id="&lt;Compound Path&gt;" fill-rule="evenodd" class="s4" d="m386.7 533.7c-4.5 6.6-9.7 12.8-15.4 18.5q-0.5 0.5-1.1 0.7c-0.1 1.1-0.9 2.2-2.3 2.3q-2.6 0.2-5.2 0.4c-0.7 0.5-1.5 0.5-2.2 0.2q-19.8 1.5-39.6 2.2-21 0.8-42.1 0.7c-5.1 0-11.8 0.8-13.1-5.7-1.1-5.9-1.3-12.3-1.2-18.2 0.2-9.4 2.6-25.5 13.9-27.8 5.4-1.1 10.2 2.1 13.9 5.7 3.4 3.3 6.6 6.9 9.7 10.4 1.6-10.6 3.6-21.1 6.3-31.5 2-7.9 4.4-17.2 11.9-21.7 4.2-2.5 8.8-2.5 12.5 0.8 3.2 2.9 5.6 7 7.6 10.8 8 14.9 9.5 32.3 7.5 48.9 5.6-3 10.7-7.2 16.6-9.7 5.8-2.5 13.9-5.4 20.2-3.1 7.4 2.7 5.6 10.8 2.1 16.1zm-20.5 9.2c-2.3 2.6-4.5 5.3-6.8 8q0.4-0.1 0.8-0.1 2.9-4 6-7.9zm-5.5-2.9q-5.2 5.6-10.2 11.5 1.8-0.1 3.6-0.3c-0.2-0.6-0.2-1.3 0.3-2 2.3-2.9 4.3-6 6.3-9.2zm-85.8 5.4c0.1 1.4 0.1 3.2 1.7 3.7 0.1 0 0.3 0 0.4 0.1q0-0.1 0-0.2-0.2-7.2-1-14.3c-0.9 3.5-1.3 7.1-1.1 10.7zm7.1 3.4q1.4-0.2 2.8-0.3-1.4-7.6-2.8-15.2 0 7.8 0 15.5zm20-18.4q-1.6-1.7-3.2-3.4 2.3 6.8 4.8 13.5c0.9-3.5 1.6-7.1 2.2-10.6-0.8 1.3-2.5 1.9-3.8 0.5zm-11.7-1.4c0.5 6.3 0.6 12.6 0.3 18.9q0.5-0.1 1.1-0.2 2.3-0.2 4.5-0.4-2.5-9.3-5.9-18.3zm16.6 17.1q1.1-0.1 2.1-0.2c-0.5-0.4-0.8-1-0.9-1.7q0-0.8-0.1-1.6-0.5 1.8-1.1 3.5zm5.9-0.6q3.7-0.4 7.5-0.8-0.2-0.3-0.2-0.7c-1.1-12.3-1.5-24.5-1.1-36.8q-0.5 2.7-0.9 5.3-2.8 16.1-5.1 32.3c0 0.3-0.1 0.5-0.2 0.7zm12.3-1.3q1.5-0.2 3-0.3 0.6-15.2 1.3-30.5c-1.3 10.3-2.7 20.6-4.3 30.8zm8.1-0.9q0.9-0.1 1.7-0.2 0.6 0 1.1 0.1c0.5-7 0.7-14.1 0.6-21.2q-0.1-6.2-0.5-12.3c-0.1-1.4 0-3.4-0.3-5.2-0.3 2.1-0.3 4.4-0.4 6.4q-0.4 5.9-0.8 11.8-0.7 10.3-1.4 20.6zm13-1.9c1.9-2.8 3.9-5.5 6.1-8-1.9 1.2-3.8 2.3-5.9 3.2q-0.1 2.4-0.2 4.8zm-0.9 10.4q0.3 0 0.6 0-0.1-0.3-0.2-0.7-0.2 0.4-0.4 0.7zm-12.3-72.9c1.5 5.7 2 11.5 2 17.4 0.4 0 0.9 0 1.4 0.3 3 1.7 4 4.8 4.3 8.1 0.5 4.4 0.7 8.9 0.8 13.4q0.1 4.3 0.1 8.6c0.4-0.7 1-1.1 1.7-1.1 0.5-6.3 0.4-12.6-0.3-18.9-1-7.7-3.2-15.4-6.8-22.3-1-1.8-2-3.7-3.2-5.5zm-25.9 43.8q2.4-12.3 4.8-24.6c0.4-2.1 2.7-2.2 4-1.1 0.3-1.7 0.6-3.4 0.9-5 0.8-4.2 1.3-9 4.8-12 1.4-1.2 4.5-0.5 4.2 1.8-1.3 11.8-1.9 23.7-1.9 35.6 1.6-12.6 2.9-25.3 4.2-37.9 0.2-2 2.3-3 3.7-2.2-0.7-1-1.5-1.9-2.4-2.8-3.4-3.2-7.7-0.3-10.1 2.8-4.8 6.1-6.2 15.3-7.9 22.7q-2.6 11.2-4.3 22.7zm-15.3-3.3q0.7 1.5 1.4 3.1 0.3-0.5 0.9-0.7-1.1-1.2-2.3-2.4zm-21.9 25.1q0 0.3 0 0.7c-0.4-7.4 1.5-14.8 5-21.3 0.4-0.7 1.2-1.1 2.1-1.1 0.1-3.1 0.5-6.1 2.1-8.5 1.1-1.7 4.2-1.7 4.6 0.5q0.4 2.3 0.8 4.6-0.3-3-0.6-6c0-0.2 0-0.4 0.1-0.6-2.9-1.4-6-1.4-8.7 1.7-3.3 3.7-4.7 9.2-5.4 14-0.7 5.3-0.5 10.7 0 16zm4.9 9.3q-0.6-0.2-1.2-0.5c-2.3-1.2-3.1-3.5-3.5-5.9q0.1 0.7 0.2 1.5c0.1 1.1 0 3.1 0.6 4 0.7 0.8 2.3 1 3.9 0.9zm65.2-1.7q-0.1-0.5 0-1.1c0.2-1.3 0.4-2.7 0.6-4-0.8 1.9-3.5 2.2-4.5 0.7q-0.5 0.4-1.2 0.4-1.4 0.2-2.8 0.3c-0.8 0.7-2.1 0.9-3 0.4q-20 2.1-40.1 4.2c-0.7 0.5-1.6 0.6-2.3 0.3q-1.5 0.1-2.9 0.3-0.4 0-0.8 0.1c4.4 0 8.8 0 13.1-0.1 14.7-0.2 29.3-0.7 43.9-1.5zm40.8-18.8q0.2-0.3 0.5-0.6-4.3 4.7-8.3 9.6c-0.9 1.3-1.9 2.6-2.8 3.8 3.8-4 7.4-8.2 10.6-12.8zm4.1-8.2c-0.1-2.9-3.1-3.3-5.4-3.3-6.3 0.2-12.9 2.9-18.2 6q-1.5 0.9-2.9 1.8c1.1 0.6 1.7 2 1.1 3.4q-0.6 1.1-1.1 2.1 5-5.3 10.2-10.4c1.7-1.6 5.2 0 4.2 2.4-0.5 1.3-1.2 2.6-1.8 3.9 2.4-2 4.8-4 7.5-5.8 1.6-1.1 3.5 0.4 3.7 2.1 0.8 0.5 1.3 1.5 1.1 2.5 1-1.5 1.7-3.1 1.6-4.7zm-17.8 25.2q0 0 0 0 0 0 0 0 0 0 0 0z"/>
			<g id="&lt;Group&gt;">
				<path id="&lt;Compound Path&gt;" fill-rule="evenodd" class="s4" d="m1542.2 544c0 3.9-4.2 6.7-6.9 8.8-3.3 2.4-6.9 4.6-10.6 6.4-7.4 3.6-15.3 6.2-23.1 9-3.9 1.5-7.7 3-11.5 4.7-1 0.5-2.3 0.9-3.1 1.5-1.1 0.9-0.9 1.8-0.8 3 0.2 2.4 0.5 4.7 0.9 7.1 1.4 9.4 3.6 18.7 5.1 28.1 1.4 8.9 2.6 19.1 0.4 27.9-0.9 3.6-3.9 6-7.6 5.2-3.9-0.8-6.6-4-9-7-10.8-13.9-20.1-29-27.8-44.9-10.7 15.5-23.4 29.6-37.8 41.8-3.3 2.7-17.1 12.6-18.7 3.3-0.7-3.7 1.5-8.4 2.7-11.8 1.4-4.1 3.1-8.1 4.9-12.1 3.6-8.3 7.6-16.3 10.6-24.8 1.5-4.3 2.7-8.6 3.4-13.1 0.3-1.6 1.3-5 0.2-6.3-1.1-1.3-4-2-5.4-2.8-8.1-4.1-15.8-9.1-22.9-14.8-3-2.5-6.9-5.1-9.1-8.4-1.8-2.7-2.3-6.8 1.2-8.4 2-0.9 4.6-0.7 6.7-0.8q3.6-0.1 7.2-0.2 7.1-0.1 14.2 0.2c9.1 0.4 18.1 1.4 27 2.8 3.3-11.4 7.5-22.5 12.6-33.2q4-8.4 8.8-16.4 2.4-4.2 5.1-8.2c1.3-2.1 2.8-4.1 5.2-5 1-0.4 2.3-0.2 2.9 0.8 2.8 3.8 4.3 8.1 5.5 12.6 1.4 5.1 2.7 10.2 4 15.4q4 14.9 7.9 29.9c11-0.5 22.1-0.3 33.1 0.8 5.7 0.5 11.5 1.2 17.2 2.4 3.4 0.7 7.4 2.5 7.5 6.5zm-76.2-59.2q-0.7 1.5-1.3 3 0 0.1 0.1 0.1c1.3 0.7 2.3 1.6 3 2.6-0.5-1.9-1.1-3.8-1.8-5.7zm-36 107.8q6.7-10.4 13.9-20.5 0.6-2.3 1-4.6c-5.5 8.6-10.7 17.4-15.7 26.2q0.4-0.5 0.8-1.1zm-0.8-21.2q0.7 0.2 1.1 0.6 3.1-7.4 6.2-14.8-1.6 2.9-3.1 5.8-0.3 1.1-0.7 2.2c-0.2 0.6-0.6 1-1 1.2q-1.3 2.5-2.5 5zm40.7-18.2q-0.4 0-0.8 0 0.2 5.7 0.7 11.2 0.1 0.4 0.3 0.8c0.3-0.3 0.5-0.5 0.8-0.7q0.3-0.2 0.6-0.3-0.8-5.5-1.6-11zm-5.9-6.7q-1.2 4.6-2.8 9 0.5 0.4 0.9 1 0.1 0.2 0.2 0.4c0.7-0.1 1.4 0 2 0.2q-0.1-2.1-0.2-4.3c-0.8-0.7-0.8-2.2-0.1-3.3q0-1.5 0-3zm-8.1 21.7q0.9 3.3 1.8 6.6-0.1-0.6-0.1-1.1c-0.2-2.2-0.7-4.6-1-6.9q-0.4 0.7-0.7 1.4zm14.8 36.4q3.5 5.3 6.9 10.7c-1.8-6.2-3.8-12.5-5.4-18.8-0.8 0-1.6-0.4-1.9-1.5q-0.1-0.3-0.1-0.6 0 0 0 0-0.1-0.1-0.1-0.1c-1.8-6.5-3.2-13.1-4.1-19.8q-1-1.9-1.9-3.8 0.1 3.2 0.4 6.3c0.9 8.9 2.8 17.7 5.7 26.1q0.2 0.7 0.5 1.5zm-1.6-57.2q-0.1-0.6-0.2-1.2 0 0.6 0 1.2 0.1 0 0.2 0zm-10.6 0.2q-3 4-5.9 8.2 0.6 2.4 1.3 4.9c1.8-4.3 3.4-8.7 4.6-13.1zm-8.5 19.4q0.3 0.1 0.5 0.3-0.2-0.6-0.4-1.3 0 0.5-0.1 1zm0.8 10.9q2 2.4 4 4.9-1.2-4-2.3-8-0.8 1.6-1.7 3.1zm24.3 4.8q0.1-4.1 0.2-8.2-0.6 0-1.1-0.1-0.1 3.3 0.2 6.6 0.4 0.8 0.7 1.7zm-18.8 10.2c0.6 1.2 1.2 2.4 1.8 3.5q4.1 7.8 8.6 15.3 6.9 11.4 14.8 22.2-0.3-2.7-0.8-5.5c-0.4 0-0.9-0.1-1.2-0.5-6.4-5.7-10.4-13.2-13.3-21.1q-4.8-7.1-9.9-13.9zm8.3-87.1q0.1-1.5 0.1-3.1c0-0.9 0.1-2.4 0.2-3.9q-1.8 9.2-4.5 18.2c0 7.3-2.6 14.2-5.2 21q-2.2 5.6-4.6 11.1 0.2 0.2 0.3 0.4c3.4-4.7 6.9-9.4 10.6-13.9 0.7-0.8 1.6-1 2.5-0.9 0.1-6.1 0.2-12.3 0.4-18.5q0-0.6 0-1.3-0.4-3.3-0.9-6.6c-0.2-1.2 0.4-2 1.1-2.5zm-56 49.2q-0.1 0.1-0.2 0.2 0.4 0.3 0.7 0.6 0 0 0 0-0.2-0.4-0.5-0.8zm-7.3 3.5q2.6 1.6 5.4 3.1-3.2-2.5-6-5.3-7.5-5.6-15.1-11.2c-2.1-1.5-0.5-4.6 1.8-4.5 1 0.1 1.9 0.2 2.8 0.3q0.2-0.3 0.4-0.5-0.8 0-1.5 0-3.6 0.1-7.2 0.3c-0.3 0-2.1 0-2.2 0.2 0 0 0.2 0.5 0.2 0.4 0.1 0.9 1.5 2 2 2.4 5.9 5.6 12.5 10.5 19.4 14.8zm14.2-2.2q0.4 0.6 0.8 1.2 0.6-1 1.1-2 0.6-1.3 1.1-2.7-1.5 1.8-3 3.5zm63.4 46.2q-0.2-2.5-0.4-5-0.5 0.2-0.9 0.2 0.6 2.4 1.3 4.8zm15-48.9q-6.7 1.9-13.4 4.2 0 0.8 0 1.5 0 1.9-0.1 3.7 0.9-0.3 1.7-0.7c3.6-3.5 7.6-6.3 11.8-8.7zm-12-1.5q-0.7 0.1-1.3 0.2 0 0.1 0 0.2 0.6-0.2 1.3-0.4zm-33.4-22.7q3.5-7.8 7-15.5c0.2-0.4 0.5-0.7 0.9-0.9q1.9-6.6 3.2-13.3-6 14.6-11.1 29.7zm-16.8 13.9q-1.3-0.2-2.6-0.4c0 0.2 0.1 0.3 0 0.5q-0.2 0.8-0.4 1.6 1.3-0.3 2.5-0.5 0.2-0.6 0.5-1.2zm-16.5 81.3c11.9-11.2 22.4-23.7 31.4-37.3 0.3-0.4 0.6-0.6 0.9-0.8q-0.4-1-0.7-2c-7.9 12.4-17.3 23.9-27.2 34.6-1.4 1.6-3.4 1-4.1-0.3q-5.5 6.3-11.2 12.5c-1.9 2-5.5 0.3-4.3-2.5 4.4-10.8 9.3-21.4 14.5-32 1.8-7 4.2-13.7 7-20.3-1.2-0.4-2.3-1.7-1.8-3.3 0.4-1.3 0.7-2.5 1-3.7-0.7 0.2-1.5 0.1-2.2-0.4q-0.2-0.1-0.3-0.1c0.3 0.6 0.6 1.3 0.7 2.1 0.3 3.5-0.7 7.4-1.4 10.8-0.9 3.9-2.1 7.7-3.4 11.4-2.8 7.5-6.2 14.7-9.5 22-1.6 3.7-3.3 7.4-4.7 11.3q-1.1 2.8-2 5.7c-0.2 0.7-1.9 4.6-1.3 5.2 0.6 0.8 4.4-1.3 5.1-1.7 1.5-0.9 3-2 4.3-3.1 3.2-2.6 6.2-5.3 9.2-8.1zm66-50.1c0.2-0.7 0.4-1.4 0.8-1.9-0.6 0.4-1.2 0.7-1.7 1.1q-0.1 3.5-0.2 6.9c0.5 0.1 1 0.3 1.3 0.6-0.3-2.3-0.5-4.6-0.2-6.7zm43.7-25.8c0.1-0.9 0.4-1.8 1-2.4-0.6 0-1.3-0.1-1.3-0.1q-0.3 0.1-0.7 0.1c-0.2 0.5-0.7 1-1.4 1.2-7.2 2.3-14.5 4.7-21.3 7.9q2.7-0.8 5.5-1.5c0.6-0.2 1.1-0.1 1.5 0.1q8.4-2.7 16.7-5.3zm-0.3-2.5q0 0 0 0 0 0 0 0zm-44.6-8.9q-0.2-0.9-0.5-1.7 0.4 2.8 0.6 5.7 8.4-0.9 16.9-1.9c3.3-0.3 3.7 4.1 0.7 5q-0.4 0.1-0.8 0.2 4.3-0.8 8.6-1.4c6.4-1.1 12.8-1.8 19.3-1.9q1 0 2 0-0.6-0.1-1.2-0.2-7-1-14.1-1.5-14.3-1.1-28.7-0.2c-1.5 0-2.5-0.7-2.8-2.1zm-10.3-39.5c0.2 3.8-0.1 7.6-0.1 11.4q-0.1 1.4-0.1 2.7 1.6 6.7 3.2 13.3c0.2-0.3 0.6-0.6 1-0.9 1-0.6 2.1-0.6 2.9 0q-2.3-8.7-4.5-17.3-1.2-4.6-2.4-9.2zm-21.2 11.8q-0.4 0.7-0.7 1.5c0.6-0.3 1.3-0.3 2-0.1q3.3-8.8 6.9-17.4-0.2 0.4-0.5 0.8-4.2 7.4-7.7 15.2zm-44.2 30.9q-4.4-0.1-8.9-0.1c6.4 1.8 13 2.8 19.6 3q0.5 0 0.9 0.2 1.4-1 2.8-2-7.2-0.8-14.4-1.1zm1.3 8.1q-2.7-0.6-5.3-1.3 2.1 2.1 4.2 4.1 0.6-0.5 1.2-1c-0.2-0.5-0.2-1.2-0.1-1.8zm5 68.2q5.4-6.2 10.5-12.7c-1.2-0.3-2.2-1.5-1.7-3.2 1.7-6.2 4.5-12 7.6-17.6q-0.1-0.1-0.2-0.2-1.8 3.7-3.7 7.4c-1.7 3.9-3.3 7.9-4.9 11.9-0.3 0.7-0.9 1.2-1.5 1.3q-3.1 6.5-6.1 13.1zm77.9 8c-0.2-4-0.7-8-1.3-11.9 0.3 9.1 0.3 18.2 0.2 27.3 0.4-0.6 0.5-1.6 0.6-2.5 0.7-4.3 0.8-8.6 0.5-12.9zm31.8-69.1q1.1-0.5 2.2-1-9.8 3.1-19.7 6.3-6.2 2.8-12.1 6.2 4.3-1.8 8.6-3.4c7-2.6 14.1-4.9 21-8.1zm16.6-12.1c-0.7-1.2-3.8-1.3-5-1.5q-1.3-0.3-2.7-0.5c0.9 0.4 1.7 0.9 2.3 2 0.5 1 0.4 2.3-0.1 3.4-0.2 0.5-0.5 1-0.8 1.4q-0.3 0.4-0.5 0.7 0.2 0.5 0.3 1.1c1.8-1.2 7.5-5 6.5-6.6z"/>
				<path id="&lt;Compound Path&gt;" fill-rule="evenodd" class="s4" d="m1498.8 509.6c-0.2-0.8-0.1-1.6 0.4-2.2 2.1-2.8 4.2-5.6 6.8-8q1.9-1.6 4-2.8c1.4-0.8 3.2-1.8 4.9-1.5 1.6 0.2 2.7 1.7 2.5 3.4-0.1 0.7-0.4 1.5-0.7 2.3-0.6 1.4-1.4 2.8-2.4 4-1.9 2.5-4.3 4.6-7.1 6-1.3 0.7-2.9 1.3-4.3 1.6-1 0.1-2.2-0.1-3-0.7-0.6-0.5-1-1.2-1.1-1.9q0-0.1 0-0.2zm4.9 0.1q0 0 0 0 0 0 0 0 0 0 0 0zm11-9.8c0 0-0.2 0.1-0.3 0.1q0 0 0 0 0.2 0 0.3-0.1z"/>
				<path id="&lt;Path&gt;" class="s4" d="m1409.9 497.7c-0.2-1.1-0.3-2.3 0.2-3.4 0.6-1.4 1.9-2.2 3.5-2.1 0.8 0.1 1.7 0.7 2 1.5q1.8 4.9 4.2 9.6c1.5 2.9 4.2 6.2 3.4 9.7-0.2 0.8-0.7 1.5-1.4 1.9-0.9 0.6-2.2 0.7-2.9-0.1-3.2-3-5.7-6.7-7.3-10.8-0.8-2-1.4-4.1-1.7-6.3z"/>
				<path id="&lt;Compound Path&gt;" fill-rule="evenodd" class="s4" d="m1529.1 614.1c0.4 1.6 0.6 3.7-0.4 5.1-1 1.4-2.8 1.9-4.4 1.6-3.3-0.7-4.9-3.9-6.4-6.6q-2.2-3.9-4.5-7.9c-1-0.6-1.3-2-1-3 0.5-1.4 2.1-1.8 3.3-1.4 3.2 1.1 6.3 2.7 8.7 5 2.2 2 4 4.4 4.7 7.2zm-4.5 1.4q0 0 0 0-0.1-0.2-0.1-0.1 0 0 0.1 0.1zm-0.7-0.9q0.1 0.2 0.3 0.4c-0.2-0.4-0.3-0.9-0.5-1.3-0.1-0.1-0.3-0.4-0.3-0.4q-0.2-0.3-0.4-0.6-0.4-0.5-0.8-1.1 0 0.2 0.1 0.3 0.5 0.9 1 1.7 0.1 0.2 0.2 0.4 0.2 0.3 0.4 0.6zm0.5 2.1q0 0 0 0 0 0 0 0zm0.1-0.1q0 0 0 0-0.1 0-0.1 0.1 0.1 0 0.1 0c0 0 0-0.1 0-0.1zm0.9-0.6c-0.1-0.1-0.1-0.1-0.1-0.1q0.1 0.1 0.1 0.1z"/>
				<path id="&lt;Compound Path&gt;" fill-rule="evenodd" class="s4" d="m1450.8 639.3q-1.5 7.7-2.4 15.5-0.4 3.4-0.7 6.8c-0.2 2-0.4 4.3-2.6 5.1-2 0.8-4.3-0.2-5.3-2-1-1.8-0.8-4.1-0.7-6 0.2-4.5 1.1-9 2.3-13.3 0.8-3.2 1.6-9.3 6.1-8.8q0.1 0 0.1 0 0.5-0.1 1-0.1c1.3 0.2 2.4 1.5 2.2 2.8zm-8.2 23.3c-0.1-0.1-0.1-0.2 0-0.4-0.1 0.1-0.1 0.2 0 0.4z"/>
				<path id="&lt;Compound Path&gt;" fill-rule="evenodd" class="s4" d="m1393.7 588.4c0.9 1.1 0.7 2.8 0 3.9-0.5 0.8-1.2 1.5-2 2-2.4 1.7-5 3.3-7.6 4.9q-1.1 0.7-2.3 1.4c-0.6 0.3-1.2 0.7-1.8 0.9-2.2 0.7-4.3-0.6-4.7-2.9-0.3-1.8 0.9-3.4 2.3-4.4 1.3-0.9 2.6-1.7 3.9-2.5 2.3-1.3 4.7-2.4 7.2-3.3 1.4-1.3 3.8-1.6 5 0zm-13.6 10.2q-0.1 0.1 0 0z"/>
			</g>
			<g id="&lt;Group&gt;">
				<path id="&lt;Path&gt;" class="s4" d="m1260.1 805.4c2.1 3.3 1.3 7.9 0 11.3-1.5 3.8-3.6 7.3-5.8 10.7-1.9 3.2-4.1 6.3-6.8 8.9-2.6 2.5-7.3 6.5-10.8 3-2.7-2.8-1.4-7.7-0.1-11-0.1-9.4 6.5-16.7 13-22.7 1.7-1.6 3.5-3.1 5.9-3 1.9 0.1 3.6 1.2 4.6 2.8z"/>
				<path id="&lt;Compound Path&gt;" fill-rule="evenodd" class="s4" d="m1326.7 752.9c0.2 5-2.6 10.5-4.7 14.9-2.4 5-5.3 9.9-8.3 14.5-3 4.6-6.6 8.2-11.7 10.5-4 1.7-10.6 4.8-14.2 0.8-3.9-4.3 0.6-10.4 2.9-14.2 4.3-7.2 9-14.2 13.9-21 1.3-2.1 2.8-4.1 4.4-5.9q1-1.2 1.9-2.5c0.5-0.6 1.2-0.9 2-0.9q1.7-1.3 3.6-2.2c3.6-1.8 7-0.9 8.8 1.7q0.1 0.1 0.2 0.3c0.7 1 1.1 2.4 1.2 4zm-28.7 27q0 0 0 0-0.3 0.4-0.5 0.8 0.3-0.3 0.6-0.7 0 0-0.1-0.1zm-5 8.7q-0.1 0.2-0.1 0.4 0.1 0 0.2 0-0.1-0.2-0.1-0.4zm12.8-6.5q-1.7 1.6-3.4 3.1 0 0 0 0 0 0 0.1 0c1.3-0.9 2.3-2 3.3-3.1zm10.6-17.5q0.5-1.1 1-2.2-1 1.3-2 2.6-1.1 1.6-2.1 3.1 0.4 0.4 0.7 1c0.8-1.5 1.6-3 2.4-4.5z"/>
			</g>
			<path id="&lt;Compound Path&gt;" fill-rule="evenodd" class="s4" d="m1248.5 645.6c-10 9.6-25 10.9-36.9 4.6-1.4 14.3-12.2 26.6-26.9 28.9-8.3 1.3-16.4-0.6-21.6-7.6-4-5.3-6.8-11.8-8.8-18.3-4.2 4.6-10.2 7.2-16.7 7.6-17.8 1.1-33-15.9-28.8-33.5 2.1-8.8 9-15.5 16.1-20.5 6.5-4.6 13.8-7.9 21.4-9.9-6.3-11.9-3.2-27.7 10.8-32.8 6.9-2.4 14-1 19.5 3.7 4.4 3.8 7.1 9 10.4 13.8 6.1-12.2 19.8-20.5 33.6-18.9 7.5 0.9 15.3 5.2 16.7 13.1 1.4 7.4-0.6 15.6-3.5 22.9 6.3-0.1 12.5 1.6 17.3 5.8 12.2 10.6 7.9 31-2.6 41.1zm0.3-34.6c-4.4-5.6-12.4-7.1-19-5.8-2.7 0.5-4.7-2-3.5-4.5 3.2-6.7 6-15.5 5.1-23-0.8-6.3-7.7-8.8-13.3-9-12.3-0.3-23.8 8.2-27.3 19.9-0.6 2.1-3.6 3.2-5.1 1.4-6.5-7.5-11.5-22.7-23.8-20.8-12.3 2-15.6 15.9-10 25.5q0.1 0 0.1 0c3.3-2.2 6.4 3.1 3.1 5.3q-0.5 0.4-0.9 0.7c-0.4 0.5-1 1-1.8 1.1q-0.2 0.1-0.3 0.1-0.3 0.1-0.6 0.1c-9.3 2-18.2 5.8-25.7 11.7-6.9 5.6-12.7 13.2-11.3 22.6 1.3 9 8.4 15.9 17.1 17.9 7.8 1.7 17.7-1.2 20.9-9.1 1.1-2.6 5.2-3.3 6 0 1.7 7.3 4.3 14.4 8.3 20.8 3.8 6.3 10 8.4 17.2 7.1 13.6-2.4 22.6-14.7 21.5-28.3-0.2-3 3.4-3.7 5.3-2.2 12.8 10.2 31.9 5.5 39-9.1 3.2-6.7 3.9-16.2-1-22.4z"/>
			<path id="&lt;Compound Path&gt;" fill-rule="evenodd" class="s4" d="m677.1 823.1q-1.7 1.3-3.7 1.8c0.3 7.2-0.2 14.5-0.5 21.7q-0.5 12.3-1.5 24.6c-0.7 8-1.2 16-2.4 23.9-1 6.9-2.9 14-7.4 19.5-4.3 5.4-10 8.5-16.7 9.6-8 1.2-16.1 1.8-24.1 3.2-16.3 2.8-32.3 7.1-48.4 10.9q-6.3 1.5-12.7 2.9c-3.8 0.8-7.7 1.9-11.7 2.1-7 0.4-11.3-3.6-14.2-9.6-14.2-29-14.9-62.3-15.7-93.8q0-0.1 0-0.2c-2-0.5-4-1.5-5.5-2.9-3.2-2.9-4.5-7.4-3.8-11.6 0.5-3.7 2.4-7.4 5.8-8.9 1.7-1.4 3.8-2.2 6.1-2.2 4.2-0.1 8.1 2.5 10.9 5.4 3 3.2 3.5 7.7 1.8 11.7-0.9 1.9-2.1 3.6-3.6 5q0.1 0 0.1 0c3.3 2.4 5.3 7.2 7.6 10.5q3.7 5.6 7.8 10.9 2 2.7 4.1 5.3c1 1.2 2.1 3 3.6 3.6 3.5 1.1 6.5-4.1 7.9-6.5 1.8-3.4 3.4-7 4.8-10.7 4.6-12.2 7.1-25.1 11.7-37.2-1.5-0.7-2.8-1.6-4-2.9-2.7-3.2-3.4-7.7-2-11.6q0.5-1.4 1.3-2.6 0.8-1.7 2.1-3.2c2.9-3 7.6-4.4 11.7-3.8 4.1 0.7 7.7 3 9.8 6.6 2 3.3 1.9 7.7 0.2 11.2-1.2 2.3-2.9 4.2-5 5.6 2.6 3.8 4.6 8 6.8 12 4.3 8.1 8.7 16.2 13 24.3 1.2 2.2 2 3.6 4.6 2.8 1.7-0.5 3.1-1.5 4.6-2.4 3.4-2.1 6.6-4.5 9.6-7.1 6-5.1 11.5-10.9 17.1-16.4 2.7-2.7 5.4-5.3 8.2-7.8 1-0.8 1.9-1.7 2.9-2.6-0.6-4.3 0.6-8.9 4.3-11.5q0.5-0.4 1.1-0.6 0.5-0.3 1-0.6c5.7-3.5 13.2-1.3 16.5 4.3 3.4 5.6 1 13.7-4.1 17.3zm-97.5-18.7q-0.3-0.8-0.5-1.7-0.1 0.5-0.3 1 0.1 0.3 0.3 0.6c0.1 0.1 0.2 0.3 0.3 0.4q0.1-0.1 0.2-0.3zm-63.6 20.3c-0.1 2.4 0.5 5.5 1.8 7.5q0-0.1 0-0.2c-0.2-0.7-0.4-1.5-0.6-2.2q-0.3-1.3-0.4-2.7-0.6-1.4-0.7-2.8 0 0.2-0.1 0.4zm146.7 74.5c0.5-2.2 0.9-4.5 1.2-6.7-22.4 3.8-44.6 8.4-66.6 14.2-10.5 2.8-20.9 6.5-31.7 8.5-10.4 1.9-20.9 3.6-31.4 5.3q1.3 3.6 2.8 7.1c1.4 3.1 2.9 7.6 6.1 9.4 3.1 1.7 7.2 0.5 10.4-0.1q5.3-1.1 10.6-2.3c7.7-1.8 15.4-3.7 23.1-5.5 15-3.7 30.1-7.2 45.4-9.1 7.1-0.9 15-0.5 20.9-5 5-3.8 7.9-9.7 9.2-15.8zm5.3-74.1q-0.4-0.1-0.9-0.2c-2.8-0.8-5.1-2.7-6.6-5.1-9.6 8.2-17.8 17.9-27.5 26-4.6 3.8-10.2 8.6-16.2 10.1-7.1 1.9-9.7-4.4-12.5-9.6q-5.6-10.5-11.2-21c-2.2-4-4.2-8.3-6.9-12.1q-0.2 0.1-0.4 0.1-1.5 0.1-2.9 0c-2.5 6.2-4.4 12.7-6.2 19.2-2.1 7.6-4.3 15.2-7.4 22.6-2.5 6-5.9 14.3-12.7 16.6-7.8 2.5-12.9-7-16.8-12.2q-4-5.4-7.7-11c-0.7-1-5.5-9.6-6.9-8-0.5 0.6-1 0.9-1.6 1 0.4 16.8 0.9 33.6 3.5 50.2 1.2 8 2.9 15.9 5.3 23.6 10.8-1.9 21.6-3.6 32.3-5.6 10.7-2 21.1-5.6 31.7-8.4 22-5.8 44.3-10.5 66.8-14.3q0.7-0.1 1.3 0.1c0.3-3.3 0.6-6.7 0.9-10q1-11.5 1.6-23 0.7-11.5 1-23c0-2 0.1-4 0-6zm5.9-6.4q0.2-0.2 0.5-0.4-0.3 0.1-0.6 0.1-0.1 0.2-0.1 0.4c0.1 0 0.2-0.1 0.2-0.1z"/>
			<path id="&lt;Compound Path&gt;" fill-rule="evenodd" class="s4" d="m737.5 884.2c-1.2-4.6 1-9.2 4-12.6 1.7-2 3.9-3.6 6.3-4.4 2.2-1.1 4.6-1.7 6.9-1.3 4.5 0.7 7.6 4.9 8 9.3 0.5 4.5-1.6 9.2-4.7 12.4-3.1 3.2-7.4 4.9-11.8 4.2-4-0.7-7.7-3.6-8.7-7.6zm17.8-11.7c-0.1 0-0.1-0.1-0.2-0.1q0-0.1-0.1-0.1 0.1 0.1 0.1 0.3 0.1 0 0.2-0.1z"/>
			<path id="&lt;Compound Path&gt;" fill-rule="evenodd" class="s4" d="m243.3 374.7c-0.9-3.2 0.7-6.4 2.7-8.8 1.3-1.4 2.8-2.5 4.5-3.1 1.5-0.8 3.2-1.2 4.8-0.9 3.2 0.5 5.3 3.5 5.6 6.5 0.4 3.2-1.1 6.4-3.3 8.7-2.2 2.2-5.2 3.4-8.3 2.9-2.8-0.4-5.3-2.5-6-5.3zm12.4-8.2q0 0-0.1-0.1 0 0-0.1 0 0.1 0.1 0.1 0.2 0 0 0.1-0.1z"/>
		</g>
	</g>
</svg>